<svg xmlns="http://www.w3.org/2000/svg" width="41.242" height="37.2" viewBox="0 0 41.242 37.2">
  <g id="logo-light" transform="translate(-42 -40)">
    <path id="路径_20" data-name="路径 20" d="M71.319,55.629c-.448.326-1.165.228-1.68.495a6.478,6.478,0,0,1-1.285.79c-.508.144-.926-.029-1.285.2a10.964,10.964,0,0,0,.2,3.262l.1.3c.948-.185,3.124-2.5,3.657-3.261.252-.361.325-.842.593-1.186C71.605,55.782,71.651,55.76,71.319,55.629Z" transform="translate(-9.507 -5.939)" fill="#f2f0ed" fill-rule="evenodd"/>
    <path id="路径_21" data-name="路径 21" d="M82.863,56.016a24.653,24.653,0,0,0-.988-2.471,31.643,31.643,0,0,0-3.163-6.028,9.544,9.544,0,0,0-2.569-2.273l-.494-.593c-.7-.523-1.458-1.135-2.174-1.582A22.074,22.074,0,0,0,61.318,40c-.452.288-1.176.045-1.779.2l-2.965.692a31.337,31.337,0,0,0-6.918,4.052c-3.448,2.583-5.359,6.677-7.115,10.97a5.807,5.807,0,0,1-.4,2.174,9.2,9.2,0,0,0,.1,3.656c.293,1.355-.052,2.656.3,3.855,1.028,3.532,2.5,6.757,5.139,8.7.763.56,1.205,1.729,2.174,2.076.291.081.861-.471,1.186-.692A12.419,12.419,0,0,0,54.6,72.717a5.743,5.743,0,0,1,2.866.89c1.058.448,1.973.576,2.965,1.087.65.335,1.273.911,1.877,1.285.445.276,1.049.3,1.483.593.229-.022.278-.02.395-.1s.009.009.1-.1a4.738,4.738,0,0,1-2.174-2.57l.2-1.976c.035-.622-.14-1.528-.1-1.977.067-.723.724-1.3.3-1.977v-.2c.333.088.385.52.791.79-.1.5-.565.719-.89.988.075.724.526.792.692,1.285q-.1,1.481-.2,2.964a7.558,7.558,0,0,0,1.582,2.767c1.4,0,2.929-.721,4.249-.395.746.184,1.5.669,2.174.889a13.551,13.551,0,0,0,3.855.2c.928-.96,2.254-1.6,3.064-2.668a32.687,32.687,0,0,0,4.941-8.8C83.358,64.09,83.408,57.782,82.863,56.016ZM67.544,66.194c-.162.176-.151.381-.3.593-.713,1.045-2.433,1.229-4.052,1.087.507-.315,1.432-.164,1.976-.395,1.108-.47.967-1.109,1.582-1.977,0-.412-.012-.589-.2-.79-.725-1.92-4.07.024-4.843.494-.425.259-.945.264-1.285.593a1.413,1.413,0,0,1-.4-.1c.03-1.136.777-1.434,1.384-1.977.678-.606,2.773-3.213,2.866-4.249-.459.037-.82.242-1.086.1-.362-.146-.286-.324-.495-.593.025-.569.131-.513.4-.79h.1c-.116.246-.269.422-.1.692v.2a1.067,1.067,0,0,0,.593-.1c.675-.02.96.014,1.285.3-.143,1.89-1.6,2.5-2.471,3.656a5.831,5.831,0,0,1-.889,1.186v.2c1.2-.232,2.642-1.414,4.348-.79a7.272,7.272,0,0,1,1.384.889A6.358,6.358,0,0,1,67.544,66.194Zm.1-10.08c-.827,1.128-2.8,1.189-3.854,1.977h-.3v-.1a4.487,4.487,0,0,0,3.063-6.127c-.533-1.434-1.246-1.263-2.174-2.075a2.977,2.977,0,0,0-1.285.1c-.172.187.389,1.046.2,1.68a6.652,6.652,0,0,1-1.087,2.174c-1.2,1.3-3.427,1.57-4.744,2.767-.473-.035-.575-.114-.692-.494-.453-.665,0-2.554,0-3.558a3.779,3.779,0,0,1,.1-1.482c.428-1.221,2.975-1.395,4.052-2.075.4,0,.513.01.692-.2a18.072,18.072,0,0,1,3.558.593C67.014,50.062,69.431,53.676,67.643,56.114Z" transform="translate(0 0)" fill="#f2f0ed" fill-rule="evenodd"/>
  </g>
</svg>
