<svg xmlns="http://www.w3.org/2000/svg" width="196.363" height="60" viewBox="0 0 196.363 60">
  <g id="logo" transform="translate(-42 -40)">
    <g id="组_17" data-name="组 17">
      <g id="组_13" data-name="组 13">
        <path id="路径_1" data-name="路径 1" d="M238.293,73.681V46.186a13.015,13.015,0,0,0-.06-2.341V43a7.209,7.209,0,0,0-.481-1.62c-.91-1.513-3.279-1.381-5.7-1.381H218.182c-.146.089-.389,0-.6.06a3.135,3.135,0,0,0-1.74.9c-.837,1.175-.541,3.892-.541,5.824V76.923c0,2.029-.235,5.1.9,5.943a5.345,5.345,0,0,0,2.1.66h1.321a16.935,16.935,0,0,0,3.121.06h6.124a33.485,33.485,0,0,0,4.562-.06c1.234-.185,2.38.1,3.3-.3a2.345,2.345,0,0,0,1.02-.78C238.651,80.991,238.293,76.106,238.293,73.681Zm-1.081-6.544c0,1.16,0,2.522,0,3.843a11.4,11.4,0,0,1-.06,2.04l.06,2.162c0,2.443.216,5.264-.6,6.9a31.209,31.209,0,0,1-6.844.361H218.662a7.369,7.369,0,0,0-1.32-.18c-.244-.248-.56-.386-.721-.721a3.941,3.941,0,0,1-.24-1.621,1.272,1.272,0,0,0,.06-.48,13.4,13.4,0,0,1-.06-2.342V50.449c0-2.645-.4-7.463.6-9.065a5.7,5.7,0,0,1,1.441-.24,3.481,3.481,0,0,0,1.261-.061h12.006c1.629,0,4.01-.18,4.923.6.615.526.48,1.986.54,3.062.118,2.122.06,4.5.06,6.723v9.6a40.651,40.651,0,0,1-.06,4.983A10.4,10.4,0,0,0,237.212,67.137Z" fill="#c1272d" fill-rule="evenodd"/>
        <path id="路径_2" data-name="路径 2" d="M222.264,43.065a10.9,10.9,0,0,1,2.582.479h1.44c1.282,0,3.315,0,4.143.481.547.321.913.234.9,1.141-.174.179-.225.438-.48.54-.49.348-1.348.225-1.981.421a5.189,5.189,0,0,0-2.7,1.62c-.159.251-.426,2.042-.06,2.221h.42a1.226,1.226,0,0,1,1.021-.3c.31.277,1.533,1.06,1.321,1.561-.1.463-.627.44-.841.78a6.627,6.627,0,0,0-.3,1.441c-.2.757.243,2.719.121,3-.118.394-.749.544-.9.12-.789-.837-.079-3.805-.12-5.1a.632.632,0,0,0-.361-.12c-.111.144-.17.164-.42.18-.234-.236-.54-.434-.78-.66l-.06-1.5a10.111,10.111,0,0,0,.24-1.921,14.154,14.154,0,0,0-2.462-.66,2.8,2.8,0,0,1-2.1-3.422,1.74,1.74,0,0,1,.841-.12C221.857,43.154,222.128,43.158,222.264,43.065Z" fill="#c1272d" fill-rule="evenodd"/>
        <path id="路径_3" data-name="路径 3" d="M231.449,50.508c.617-.024,1.3.187,1.32.781a1.422,1.422,0,0,0-.12.42c-.582.333-1.356.471-1.98.781-.2.1-.509.33-.721.24-.152-.088-.093-.026-.12-.24a9.624,9.624,0,0,0,.78-1.2A7.9,7.9,0,0,1,231.449,50.508Z" fill="#c1272d" fill-rule="evenodd"/>
        <path id="路径_4" data-name="路径 4" d="M221.964,50.989a5.232,5.232,0,0,1,2.882.96c.227.157.688.33.54.661-.141.314-.233.04-.54.18-.283.128-.169.4-.661.42a5.8,5.8,0,0,0-.72-.42,5.267,5.267,0,0,1-.961-1.081C222.311,51.454,221.894,51.336,221.964,50.989Z" fill="#c1272d" fill-rule="evenodd"/>
        <path id="路径_5" data-name="路径 5" d="M218.782,51.349a3.738,3.738,0,0,1,2.341,2.041,2.658,2.658,0,0,1-.18,1.261,6.8,6.8,0,0,0,.6,3.482c.335.261,2.262-.168,2.762-.3,1.63-.433,3.417-.536,5.042-.9l1.8.06c.411-.1.849-.261,1.321-.36a3.3,3.3,0,0,0,.36-.48,10.284,10.284,0,0,0,.3-2.342,4.884,4.884,0,0,1-.18-.78h.06v-.06a1.522,1.522,0,0,1,1.8,1.26,2.856,2.856,0,0,0-.96,1.2c-.211.754.092,1.885-.061,2.582a1.353,1.353,0,0,1-.66.3c-.225-.262-.348-.531-.84-.54-.678.617-2.83.08-3.9.36a1.554,1.554,0,0,1-.781.12.988.988,0,0,0-.48-.06c-.275.089-.355.453-.6.54l-1.08-.06c-.552.142-1.165.382-1.681.54l-.48.06c-.7.369-.614,1.249-1.682,1.261-.612-.495-2.181-1.2-2.281-2.1-.224-.391.331-1,.18-1.681-.169-.77-.247-1.754-.42-2.522l-.06-1.08A3.892,3.892,0,0,1,218.782,51.349Z" fill="#c1272d" fill-rule="evenodd"/>
        <path id="路径_6" data-name="路径 6" d="M229.288,53.87c.814,0,1.726.215,1.981.781.1.107.1.151.12.36a.682.682,0,0,0-.12.18c-.285.045-.885.266-1.2.06a1.593,1.593,0,0,1-1.02-1.141c.048-.061.021-.016.059-.12A.614.614,0,0,0,229.288,53.87Z" fill="#c1272d" fill-rule="evenodd"/>
        <path id="路径_7" data-name="路径 7" d="M222.684,54.17c.85.094,2.2-.02,2.942.06a.939.939,0,0,1,.06.3,6.611,6.611,0,0,1-2.461,1.261.428.428,0,0,0-.241-.121C222.782,55.258,222.428,54.665,222.684,54.17Z" fill="#c1272d" fill-rule="evenodd"/>
        <path id="路径_8" data-name="路径 8" d="M224.846,75.3a2.19,2.19,0,0,0-2.4.6.666.666,0,0,0,.36.541.646.646,0,0,1-.06.36c-.151.375-.717.375-1.02.6a.731.731,0,0,1-.54-.18c-.035-.755.173-1.533.18-2.342.06-.02.12-.039.18-.06.243-.106.474.24.78.181.493-.1,1.173-.633,1.861-.781.192.189.465.294.661.48a.823.823,0,0,0,.239-.06c0-1.507-.3-3.854.541-4.742a1.041,1.041,0,0,0-.78-.9,1.267,1.267,0,0,0-.6-.059c-.254.18-.631.131-.96.24a12.964,12.964,0,0,1-2.342.72c-.054.065.005,0-.06.06a1.162,1.162,0,0,0,.361.9c-.013.385-.252.469-.541.54-.143.788.206,2.046,0,3-.161.748.059,1.639-.12,2.462a3.571,3.571,0,0,0-.18,1.5,5.463,5.463,0,0,0,.42,1.141l.6-.06c.2-.28.4-.56.6-.84.568-.432,2.715-1.22,3.422-.541.586-.021.686-.58.84-1.02A7.864,7.864,0,0,1,224.846,75.3Zm-1.261-5.043a1.393,1.393,0,0,1,.48.181,1.8,1.8,0,0,0,.241.6c-.019.349-.107.341-.241.541-.276.043-.523-.147-.84-.06a4.954,4.954,0,0,0-1.261.54.664.664,0,0,1-.48-.18C221.476,70.977,223.057,70.752,223.585,70.259ZM221.364,72.9c.07-.134.087-.091.18-.181a.791.791,0,0,1,.42.061,7.25,7.25,0,0,1,1.921.059c-.029.623-1.811,1.508-2.4,1.441C221.407,74.006,221.17,73.191,221.364,72.9Z" fill="#c1272d" fill-rule="evenodd"/>
        <path id="路径_9" data-name="路径 9" d="M234.751,69.119c.211-.078.3-.372.48-.481.54-.334.775.11.781-.96a1.151,1.151,0,0,0-.12-.66c-.275-.7-2.59-.81-3.362-1.141.216-2.1.382-3.49-1.021-4.563a2.017,2.017,0,0,0-1.561-.66,3.573,3.573,0,0,1-.54.42c-.264,1.458.968,4.057,1.681,4.8a.913.913,0,0,1-.06.24,3.894,3.894,0,0,1-1.621.18c-.51-.143-.994-1.056-1.8-.54-.06.02-.12.039-.18.06a.624.624,0,0,0,.12.36,1.486,1.486,0,0,1-.06.48c-.466-.046-1.233-.762-1.681-1.02.014-.139.012-.17.06-.241.046-.041.134-.079.18-.12a1.563,1.563,0,0,0,.781-.12,9.169,9.169,0,0,0,.12-1.02c-.315-.335-.558-.91-.961-1.141s-.769-.291-1.14-.54c-.324-.217-.558-.589-1.021-.661-.887-.416-2.24,1.454-2.7,1.8a14.313,14.313,0,0,0-3.3,4.083,2.6,2.6,0,0,0-.48,1.981,3.337,3.337,0,0,0,1.14,1.561,2.446,2.446,0,0,0,1.2-.361l.36-2.641a3.813,3.813,0,0,1,1.2-1.321c.128-.1.141-.284.24-.42a3.34,3.34,0,0,1,2.941-1.38c-.021.616-.59.661-1.02.84a.39.39,0,0,0,.18.3c0,.5-.205.526-.541.66a4.224,4.224,0,0,0,.661,1.381h.42c.19-.2.441-.309.54-.6.167-.291-.347-.852-.54-1.021v-.24c.31-.08,1.038-.261,1.321,0,.677.334.634,1.4,1.441,1.681.157.072.382-.191.48-.361a1.107,1.107,0,0,1,.36.061q.3,1.05.6,2.1c.28.477.9.838,1.08,1.38l-.06,5.284a8.286,8.286,0,0,0,0,1.74c0,.892.5.779.84,1.261.721-.056.337-.387.54-.96.038-.1.182-.2.241-.3.3-.052.611.117.9.06a10.362,10.362,0,0,0,2.7-2.28,2.361,2.361,0,0,1,.721.12,2.752,2.752,0,0,0,.48-1.081c-.229-.227-.241-.65-.419-.841-.337-.359-1.008-.395-1.322-.78h-.84c-.358.113-.713.451-1.081.541l-.54-.061c-.252.064-.788.339-1.02.24-.453-.168-.144-.579-.361-.96a1.77,1.77,0,0,1,.06-.541c.276-.048.531.125.721.061.327-.112.474-.44.96-.481a1.624,1.624,0,0,1,.361.481c1.016,0,.755-1.225,1.08-1.922.1-.208.412-.438.481-.66.074-.24-.127-.434,0-.66C234.024,69.1,234.291,69.286,234.751,69.119Zm-4.262,6.243c.02-.06.039-.12.06-.18.37-.068.882.048,1.14-.121l.48.061c.039.1.012.058.06.12-.039.568-1.043,1.334-1.38,1.741C230.393,76.9,230.166,75.772,230.489,75.362ZM233.67,69.3c-.494-.018-.454-.152-.72-.3s-.545-.026-.9-.12c-.571-.151-1.19-.669-1.8-.18l-.12.06a3.022,3.022,0,0,0,1.381,1.2c.217.1.435.045.6.18q.12.21.241.42a1.665,1.665,0,0,1-.181.961c-.182.521-.767.282-1.2.54a.918.918,0,0,1-.54-.12,2.043,2.043,0,0,1,.6-1.2c-.121-.743-.768-.666-1.261-1.02-.358-.258-.311-.73-.48-1.2-.082-.229-.368-.773-.181-1.08a.925.925,0,0,1,.12-.24,3.634,3.634,0,0,0,1.262-.18c.886.005,3.7-.075,4.2.3l.18.059C234.866,68.515,234.131,68.657,233.67,69.3Z" fill="#c1272d" fill-rule="evenodd"/>
      </g>
      <g id="组_15" data-name="组 15">
        <g id="组_14" data-name="组 14">
          <path id="路径_10" data-name="路径 10" d="M159.341,49.924a23.663,23.663,0,0,0-6.568-.876h-1.751a4.2,4.2,0,0,1-2.773.584c-2.484-.546-4.013-1.777-6.859-1.751a3.665,3.665,0,0,1-.73.584c.064,2.873,5.26,5.845,7,7.589a4.264,4.264,0,0,1-2.773,3.794c-.991.637-2.577-.242-3.357-.438a1.59,1.59,0,0,1-.437.292,5.983,5.983,0,0,0,.437,1.751v2.481a16.441,16.441,0,0,1,.439,5.4c-.354,1.687.125,4.266,1.167,4.67.149.118.036.054.292.146q.219-.438.437-.876c2.737-.59,8.3-2.385,9.924.292.718-.144.765-.46,1.168-.875,1.679-1.733.277-2.259.875-4.67.734-2.951.784-5.5,2.919-7.151-.2-1.367-3.15-4.057-5.254-3.357-.462.154-.9.819-1.313,1.022a7.241,7.241,0,0,1-2.481.146,2.624,2.624,0,0,0-.584-.438c.107-1.676,1.445-1.913,2.189-2.919.528-.712.856-1.732,1.314-2.481,2.2-.512,5.834-.585,7.005-2.189h.146A2.653,2.653,0,0,0,159.341,49.924ZM145.915,69.772a1.937,1.937,0,0,1-.293,1.168,3.01,3.01,0,0,1-1.459-.292c-1.247-3.128-.479-7.669.876-10.07h.729a3.88,3.88,0,0,1,.583.875,44.243,44.243,0,0,1-.291,6.13C145.907,68.4,146.378,69.06,145.915,69.772Zm3.5-.584a1.979,1.979,0,0,1-.438,1.46,2.3,2.3,0,0,1-1.021-.292c-.291-1.284-.879-2.97-.292-4.233h1.022c.434.445.882.542,1.021,1.314C149.925,68,149.136,68.614,149.416,69.188Zm.438-4.524a8.193,8.193,0,0,1-1.751.146,2.621,2.621,0,0,0-.584-.437c.035-.738.116-.655.438-1.022h1.751a.892.892,0,0,0,.292.291A3.141,3.141,0,0,1,149.854,64.664Zm1.168-1.459V61.6a4.306,4.306,0,0,1,1.167-1.6c.3.058.281.036.438.146h.292a23.085,23.085,0,0,1-.146,4.962,20.172,20.172,0,0,1,0,2.335c.007.565.351,1.365,0,1.9-.582.882-1.664.2-2.189-.146A27.722,27.722,0,0,1,151.022,63.205Zm-1.314-3.5c.365.177.332.331.584.584a2.189,2.189,0,0,1-.292,1.46c-.049.1-.1.194-.146.292-1.689-.015-2.345-.926-3.21-1.752.1-.544.213-.516.437-.876A5.6,5.6,0,0,1,149.708,59.7Z" fill="#534741" fill-rule="evenodd"/>
          <path id="路径_11" data-name="路径 11" d="M157.881,77.507l-2.189.584c-.423.268-.833.954-1.314,1.167-7.911,3.516-16.142-3.411-19.994-7.005.037-2.9,3.3-4.037,5.255-5.108-.108-2.308-5.714-1.867-7.006-.875a2.687,2.687,0,0,1-.876-.147c.072-1.207,2.748-2.485,3.795-2.772.943-.259,1.525.347,2.335,0,.771-.331,1.346-1.17,2.043-1.605a1.579,1.579,0,0,0-.145-.876c-.187-.508-.445-.509-.731-.876l-1.9-.146c-.992.183-3.142,1.185-4.087.584h-.292q-.074-.729-.146-1.459a43.551,43.551,0,0,0,3.357-4.087c-.229-1.214-1.2-.773-2.043-1.314-.237-.19-.485-.381-.292-.583.2-.988,1.065-1.382,1.751-1.9a38.17,38.17,0,0,0,4.233-4.086,2.788,2.788,0,0,0-.293-1.752c-.5-1.422-2.241-.961-3.356-1.751-1.3-.561-.353-2.731-2.189-3.357-.157-.11-.136-.092-.438-.146a7.631,7.631,0,0,1-2.043,1.314,9.85,9.85,0,0,1-.731,2.334c-2.455-.034-5.754-1.274-7.734,0-.508.187-.508.444-.876.73-.1,2.359.488,4.069,2.044,5.108.465.311,1.047.193,1.6.438.472.208.976.854,1.459,1.022h1.606a9.722,9.722,0,0,1,2.919,1.459,1.579,1.579,0,0,1-.147.876c-.581,1.4-3.9,1.033-5.107,1.9l-.439.146a3.063,3.063,0,0,0,.439,1.9c.6,1.587,3.33,1.256,3.94,2.773.158.138.017.369-.145.584-.485.7-6.555,2.2-8.028,1.9-.881-.182-2.669-.919-3.356-.584-1.168.637.526,2.971.875,3.649,2.138.441,5.086-.459,7.151-1.167.681-.234,2.234-1.225,2.92-.876h.291c-.216,1.475-4.971,4.608-6.275,5.4a10.335,10.335,0,0,0,0,2.919,3.7,3.7,0,0,1,.584.73c1.122-.193,1.4-.916,2.48-1.168a7.608,7.608,0,0,1,2.044,2.481,1.889,1.889,0,0,1,.146,1.022c-1.572,1.569-3.956,4.112-3.94,7.151a9.5,9.5,0,0,1,1.167,1.605c1.977-.211,1.658-1.981,2.335-3.5.43-.966,1.751-2.826,2.773-3.211a31.627,31.627,0,0,1,3.794,2.335,28.314,28.314,0,0,0,7.3,3.356q1.021.075,2.044.147a10.1,10.1,0,0,0,3.794.438,21.716,21.716,0,0,0,8.464-3.795c1.273-.925,2.169-2.476,3.5-3.357v-.292A16.535,16.535,0,0,0,157.881,77.507Zm-25.54-7.735a6.417,6.417,0,0,1-2.188-.584c-.1-.252-.03-.143-.147-.292.114-.554.163-.413.438-.729a4.4,4.4,0,0,1,1.9.146l.438.145A2.062,2.062,0,0,1,132.341,69.772Z" fill="#534741" fill-rule="evenodd"/>
        </g>
        <path id="路径_12" data-name="路径 12" d="M205.06,79.254c-1.2-.266-3.033-.98-4.671-.584-1.318.319-4.321,1.174-5.691.146a1.072,1.072,0,0,1-.438-1.751c.428-1.191,2.808-1.42,3.941-1.9.094-.251.028-.142.146-.291-.023-1.609-2.54-1.864-3.649-2.481-.06-.73-.47-1.526-.146-2.043l.146-.438,3.065-.438c.508-.314.7-1.083,1.167-1.459-.1-1.458-1.266-1.525-1.751-2.481-.221-.435-.055-.963-.292-1.314l-.146-.292a4.152,4.152,0,0,0-3.5,2.773,7.161,7.161,0,0,1-2.335.146,4.292,4.292,0,0,0-.875-.584c.09-1.756,1.112-1.434,1.6-2.189.512-.784.038-1.265,1.022-1.6.692-.429,1.952-.011,2.773,0,2.484.031,4.448.161,5.984-.73.094-.252.027-.143.145-.292-.168-2.152-2.992-1.472-4.962-1.9-4.957-1.07-11.638,2.992-15.324,1.022.119-1.424,1.142-1.849,1.9-2.627a1.576,1.576,0,0,1,1.459.875c1.506.07,2.271-.944,3.648-1.313,2.091-.561,4.9.65,6.568.292,1.215-.26,1.9-1.139,3.064-1.46,1.312-.359,2.264-.1,2.92-1.021a15.969,15.969,0,0,0,1.46-2.773c.441-1.564-.021-2.539.875-3.5-.1-1.983-2.879-3.336-4.524-3.794H196.3c-.809-.227-1.692-.784-2.627-1.021-1.926-.489-3.788-.157-5.546-.73-.844-.275-1.752-.889-2.481-1.168l-1.752-.146a50.611,50.611,0,0,0-6.858-1.459,3.931,3.931,0,0,1-1.752.146,10.667,10.667,0,0,1-1.606,1.022c-.474.346-.642,1.01-1.021,1.458.067,4.121,5.391,6.433,8.318,7.881.569.282,1.387.122,1.9.438h.292c-.119.828-.463.652-.73,1.168q-.146.8-.292,1.6a48.985,48.985,0,0,1-3.357,5.546c-1.085,1.772-2.133,3.6-3.064,5.4-.288.554-.252,1.169-.584,1.751-.265.464-1.006.848-1.313,1.314-.539.816-.758,1.685-1.314,2.48-.95,1.359-2.23,2.616-3.21,3.941-.914,1.235-1.731,2.843-2.92,3.794a3.861,3.861,0,0,0,.585,2.627,1.577,1.577,0,0,0,.875-.145c1.145-.409,2.348-3.444,3.065-4.525,1.971-2.97,3.946-6.088,5.838-9.194.924-1.519,1.421-3.431,2.626-4.67a1.605,1.605,0,0,1,.73-.292c.542.588,1.425,1.908,2.189,2.189,1.223.792,2.708-.954,4.233-.73.149.971-.692,2.035-.293,3.5.31,1.138,1.28,1.63,1.752,2.481a6.478,6.478,0,0,1,.291,3.5l-.437.146c-1.221.463-2.544-2.164-3.941-1.314-1.206.6-.275,3.64.293,4.378a2.738,2.738,0,0,0,3.064.584,2.228,2.228,0,0,1,1.606.437,1.617,1.617,0,0,1-.439,1.168c-2.164.5-8.079.936-9.632-.292a2.714,2.714,0,0,0-1.75.584c.055,2.012,1.234,2.585,2.043,3.794,2.131.076,2.669-.381,4.669-.875,1.349-.333,2.453.051,3.649-.292a13.762,13.762,0,0,1,1.9-.583c.067-.007,2.326.192,2.627.291.1.034.372.415.438.438.5.177,1.9-.581,3.065-.584h3.5a4.44,4.44,0,0,0,2.19.292,18.01,18.01,0,0,0,4.086-1.6A2.3,2.3,0,0,0,205.06,79.254Zm-21.6-27.583c3.715-1.567,7.9-5.823,12.989-3.211a6.411,6.411,0,0,1-.583,5.546c-2.121-.012-6.365-.275-7.59.584-1.614.016-1.811-1.189-2.335-2.189l-2.481-.292Z" fill="#534741" fill-rule="evenodd"/>
      </g>
      <g id="组_16" data-name="组 16">
        <path id="路径_13" data-name="路径 13" d="M131.72,99.872h-1.05L126.7,93.729a3.563,3.563,0,0,1-.236-.456h-.029a8.083,8.083,0,0,1,.039,1.021v5.578h-.839V92.266h1.109l3.859,6.079a6.028,6.028,0,0,1,.31.52h.02a8.822,8.822,0,0,1-.054-1.143V92.266h.839Z" fill="#534741"/>
        <path id="路径_14" data-name="路径 14" d="M143.288,96.16a4.183,4.183,0,0,1,1-2.926,3.45,3.45,0,0,1,2.688-1.1,3.235,3.235,0,0,1,2.531,1.07,3.977,3.977,0,0,1,.959,2.759,4.272,4.272,0,0,1-.969,2.927,3.679,3.679,0,0,1-5.229.029A3.955,3.955,0,0,1,143.288,96.16Zm.879-.078a3.478,3.478,0,0,0,.727,2.266,2.377,2.377,0,0,0,1.944.895,2.518,2.518,0,0,0,2.026-.847,3.419,3.419,0,0,0,.724-2.3,3.571,3.571,0,0,0-.7-2.348,2.428,2.428,0,0,0-1.98-.845,2.458,2.458,0,0,0-1.994.9A3.447,3.447,0,0,0,144.167,96.082Z" fill="#534741"/>
        <path id="路径_15" data-name="路径 15" d="M167.417,99.872h-1l-1.277-2.142a2.7,2.7,0,0,0-.741-.9,1.4,1.4,0,0,0-.78-.214h-.752v3.255h-.834V92.266h2.238a2.448,2.448,0,0,1,1.665.538,1.864,1.864,0,0,1,.619,1.485,2,2,0,0,1-1.684,2.047v.02a1.522,1.522,0,0,1,.518.359,6.754,6.754,0,0,1,.611.872Zm-4.552-6.83v2.8h1.243a1.591,1.591,0,0,0,1.129-.406,1.4,1.4,0,0,0,.437-1.077,1.221,1.221,0,0,0-.4-.968,1.711,1.711,0,0,0-1.159-.348Z" fill="#534741"/>
        <path id="路径_16" data-name="路径 16" d="M177.934,96.16a4.188,4.188,0,0,1,.994-2.926,3.451,3.451,0,0,1,2.688-1.1,3.234,3.234,0,0,1,2.532,1.07,3.973,3.973,0,0,1,.96,2.759,4.278,4.278,0,0,1-.97,2.927,3.679,3.679,0,0,1-5.229.029A3.955,3.955,0,0,1,177.934,96.16Zm.879-.078a3.478,3.478,0,0,0,.727,2.266,2.377,2.377,0,0,0,1.944.895,2.518,2.518,0,0,0,2.026-.847,3.424,3.424,0,0,0,.724-2.3,3.576,3.576,0,0,0-.7-2.348,2.43,2.43,0,0,0-1.981-.845,2.46,2.46,0,0,0-1.994.9A3.447,3.447,0,0,0,178.813,96.082Z" fill="#534741"/>
        <path id="路径_17" data-name="路径 17" d="M196.323,98.555a2.465,2.465,0,0,0,.92.484,3.624,3.624,0,0,0,1.112.194q1.661,0,1.66-1.207a1.081,1.081,0,0,0-.172-.6,1.59,1.59,0,0,0-.464-.46q-.291-.193-1.152-.635a4.513,4.513,0,0,1-1.565-1.105,1.816,1.816,0,0,1-.33-1.065,1.734,1.734,0,0,1,.747-1.469,3.08,3.08,0,0,1,1.876-.549,3.493,3.493,0,0,1,1.616.27v.967a2.974,2.974,0,0,0-1.724-.462,2.077,2.077,0,0,0-1.179.307.98.98,0,0,0-.457.862,1.1,1.1,0,0,0,.16.6,1.485,1.485,0,0,0,.434.439,10.994,10.994,0,0,0,1.071.586,4.97,4.97,0,0,1,1.566,1.081,1.877,1.877,0,0,1-.26,2.684A3.243,3.243,0,0,1,198.2,100a5.254,5.254,0,0,1-1.01-.128,2.37,2.37,0,0,1-.871-.309Z" fill="#534741"/>
        <path id="路径_18" data-name="路径 18" d="M218.139,99.872H217.3V96.381h-3.988v3.491h-.834V92.266h.834v3.358H217.3V92.266h.835Z" fill="#534741"/>
        <path id="路径_19" data-name="路径 19" d="M230.094,99.872V91.834h.815v8.038Z" fill="#534741"/>
      </g>
    </g>
    <g id="组_18" data-name="组 18">
      <path id="路径_20" data-name="路径 20" d="M73.956,55.629c-.723.526-1.879.368-2.71.8A10.448,10.448,0,0,1,69.174,57.7c-.819.233-1.494-.046-2.072.318a17.683,17.683,0,0,0,.318,5.261l.159.478c1.529-.3,5.039-4.029,5.9-5.26.407-.582.524-1.358.957-1.913C74.417,55.876,74.491,55.84,73.956,55.629Z" fill="#c1272d" fill-rule="evenodd"/>
      <path id="路径_21" data-name="路径 21" d="M107.908,65.832a39.764,39.764,0,0,0-1.594-3.986,51.037,51.037,0,0,0-5.1-9.723,15.393,15.393,0,0,0-4.144-3.666q-.4-.479-.8-.956c-1.135-.843-2.351-1.831-3.507-2.551a35.6,35.6,0,0,0-19.606-4.942c-.729.465-1.9.072-2.87.319l-4.782,1.116a50.543,50.543,0,0,0-11.158,6.536c-5.562,4.166-8.644,10.769-11.476,17.693.218.81-.313,2.222-.639,3.507a14.844,14.844,0,0,0,.16,5.9c.472,2.186-.084,4.284.479,6.217,1.658,5.7,4.028,10.9,8.288,14.027,1.231.9,1.944,2.789,3.507,3.348.47.131,1.388-.76,1.913-1.116,2.014-1.367,4.4-2.755,5.738-4.782,2.431.04,3.093.786,4.623,1.435,1.706.723,3.182.929,4.782,1.753,1.049.541,2.054,1.47,3.028,2.072.718.445,1.692.477,2.392.957.37-.036.449-.032.637-.16.172-.145.015.014.159-.159a7.642,7.642,0,0,1-3.506-4.145l.318-3.187c.056-1-.226-2.465-.159-3.188.108-1.166,1.167-2.1.478-3.189v-.318c.537.142.621.839,1.276,1.275-.162.809-.911,1.16-1.435,1.594.121,1.168.849,1.278,1.116,2.073q-.161,2.39-.319,4.781c.475,2.1,1.585,2.973,2.551,4.463,2.265,0,4.724-1.163,6.854-.637,1.2.3,2.416,1.079,3.506,1.434,1.721.562,4.094.33,6.217.319,1.5-1.549,3.635-2.574,4.942-4.3a52.722,52.722,0,0,0,7.97-14.187C108.707,78.855,108.787,68.681,107.908,65.832ZM83.2,82.249c-.261.284-.244.614-.478.957-1.15,1.686-3.924,1.982-6.535,1.753.817-.508,2.309-.265,3.187-.637,1.787-.758,1.56-1.789,2.551-3.188,0-.664-.019-.95-.319-1.275-1.169-3.1-6.565.039-7.811.8-.686.417-1.524.426-2.072.956a2.279,2.279,0,0,1-.638-.159c.048-1.833,1.253-2.313,2.232-3.188,1.093-.978,4.473-5.182,4.622-6.854-.741.06-1.323.391-1.752.158-.584-.235-.462-.523-.8-.956.041-.917.211-.827.638-1.275h.16c-.187.4-.434.68-.16,1.116v.319a1.72,1.72,0,0,0,.956-.16c1.088-.033,1.548.023,2.073.479-.23,3.049-2.582,4.031-3.986,5.9A9.4,9.4,0,0,1,73.637,78.9v.319c1.937-.375,4.261-2.281,7.013-1.275a11.728,11.728,0,0,1,2.232,1.434A10.255,10.255,0,0,1,83.2,82.249Zm.159-16.258c-1.334,1.819-4.511,1.918-6.216,3.188h-.478v-.16a7.236,7.236,0,0,0,4.941-9.883c-.86-2.313-2.009-2.037-3.507-3.347a4.8,4.8,0,0,0-2.072.16c-.277.3.628,1.687.319,2.709a10.729,10.729,0,0,1-1.754,3.507c-1.942,2.1-5.528,2.532-7.651,4.463-.763-.056-.927-.184-1.116-.8-.731-1.072-.007-4.12,0-5.739a6.1,6.1,0,0,1,.159-2.391c.69-1.97,4.8-2.25,6.536-3.347.65,0,.828.016,1.116-.319,1.687.26,4.25.336,5.738.956C82.346,56.229,86.244,62.058,83.36,65.991Z" fill="#c1272d" fill-rule="evenodd"/>
    </g>
  </g>
</svg>
