<svg xmlns="http://www.w3.org/2000/svg" width="89.188" height="293.157" viewBox="0 0 89.188 293.157">
  <g id="title-lg-2" transform="translate(-389.02 -1327.506)">
    <path id="路径_53" data-name="路径 53" d="M13.676,2.7q.281-1.406,1.3-1.16,2.988.773,5.977,1.652.773.7-.527,1.125-.562.176-1.02,1.23l-.773,1.828q-.387.949.352.949h1.477a2.42,2.42,0,0,0,1.547-.562l.387-.316A1.81,1.81,0,0,1,24.5,7.168L26.93,8.539q1.055.738,1.055.879-.07.563-.809.738-.562.141-.914,1.2l-.633,1.969q-.246.844-.07.914.176-.035.914-1.09.844-1.16,1.863-.352l1.723,1.336a4,4,0,0,1,1.02.949q-.07.668-.949.914a1.8,1.8,0,0,0-.984,1.336l-.176.7q-.141.949.633.211a1.3,1.3,0,0,1,1.758-.105L34.945,20.6q.738,1.055-.6,1.441a1.046,1.046,0,0,0-.6,1.09,35.113,35.113,0,0,1-.492,6.188,9.027,9.027,0,0,1-1.406,4.219,4.218,4.218,0,0,1-1.406.879,18.409,18.409,0,0,1-3.727.457q-1.09,0-1.09-1.2.07-2.531-2.672-3.48-1.125-.281-1.125-.633,0-.422,1.055-.422h3.3q.844,0,1.16-1.055a31.2,31.2,0,0,0,.633-6.293.746.746,0,0,0-.844-.844h-16.8a3.021,3.021,0,0,0-1.9.949,35.509,35.509,0,0,1-5.7,4.184q-1.16.668-1.336.492-.246-.281.7-1.23a41.259,41.259,0,0,0,9.527-15.223q.211-.844-.633-.844H4.219q-1.055,0-1.266-.387-.246-.562.7-.562h3.48q.914,0,.387-.352a2.74,2.74,0,0,1-.668-1.617,4.894,4.894,0,0,0-.879-2.812q-1.02-1.125-.809-1.406.246-.281,1.371.035,1.406.387,2.813.914a3.616,3.616,0,0,1,2,1.371,2.689,2.689,0,0,1-.387,3.164q-.738.7.211.7a1.338,1.338,0,0,0,1.336-1.055Q13.184,4.988,13.676,2.7Zm7.453,7.453q.281-.879-.562-.879H18.633a1.635,1.635,0,0,0-1.406,1.055l-1.652,3.023q-.562.879.316.879h2.988q.844,0,1.23-1.055Q20.566,11.668,21.129,10.156Zm2.6,5.941q.246-.914-.562-.914h-7.91a2.1,2.1,0,0,0-1.617,1.055,20.232,20.232,0,0,1-2.32,2.848q-.844.879.035.879H21.8q.844,0,1.16-1.055Zm-3.375,6.047q.246-.316,1.2-.141a9.384,9.384,0,0,1,5.168,2.215,1.808,1.808,0,0,1,.246,2.109q-1.09,2.531-3.023,1.688a3.881,3.881,0,0,1-.879-1.371A6.991,6.991,0,0,0,21.2,23.129Q20.285,22.215,20.355,22.145Zm-5.027.563q.176-.316,1.125,0,1.23.457,2.461,1.02,3.234,1.336,2.391,4.5-1.2,2.25-3.2,1.3a2.509,2.509,0,0,1-1.09-2.039,7.14,7.14,0,0,0-.984-3.516Q15.223,22.918,15.328,22.707Zm-5.133.738q.246-.352,1.23.105,3.8,1.758,3.973,4.254a3.247,3.247,0,0,1-1.125,3.34,4.21,4.21,0,0,1-1.406.492q-.457.141-.914-.422a5.422,5.422,0,0,1-.7-2.6,10.242,10.242,0,0,0-.738-3.867Q10.02,23.691,10.2,23.445ZM7.523,24.781q.246-1.055.492-1.125.316,0,.527,1.09,1.02,4.992-.07,6.75a3.962,3.962,0,0,1-4.254,1.09,1.987,1.987,0,0,1-1.371-1.863q0-1.934,2.988-3.586A4.15,4.15,0,0,0,7.523,24.781ZM7.207,46.844q.246-1.406,1.23-1.2l5.2,1.16a3.981,3.981,0,0,1,1.23.422q.527.738-.633,1.2a2.544,2.544,0,0,0-1.125,1.266,42.732,42.732,0,0,1-3.551,6.047q-.633.809.316,1.02.949.422.949.563a1.969,1.969,0,0,1-.352.492,1.4,1.4,0,0,0-.352,1.125V76.973a1.085,1.085,0,0,1-1.055,1.2l-3.164.281q-1.23.105-1.23-.949V62.383q0-.914-1.055.105l-.562.563q-1.336,1.2-1.617,1.055t.352-1.3A52.726,52.726,0,0,0,7.207,46.844Zm13.641-.035a.9.9,0,0,1,1.02-1.02l5.273.352a1.527,1.527,0,0,1,1.406.668q0,.176-.7.914a1.422,1.422,0,0,0-.844,1.3v7.242q0,.844.316.879.281,0,1.2-1.125.563-.773,1.23-1.547.914-1.16,1.9-.316,1.2.949,2.391,2,1.09.984.7,1.441a2.083,2.083,0,0,1-1.512.457H27.879q-.879,0-.879.844V76.656a1.128,1.128,0,0,1-1.055,1.23l-3.867.527q-1.23.141-1.23-.914V58.938q0-.879-.844-.879H13.781q-1.055,0-1.266-.387-.246-.527.738-.527h6.715q.879,0,.879-.844ZM16,90.281a.936.936,0,0,1,1.02-1.055q1.512.035,3.129.176a8.91,8.91,0,0,1,2.566.281q.668.492-.176.984a1.155,1.155,0,0,0-.668,1.09q0,.914.844.914h4.324a2.481,2.481,0,0,0,1.758-1.055l1.2-1.371a1.276,1.276,0,0,1,1.969-.176l1.793,1.477q1.3,1.125.949,1.582a1.7,1.7,0,0,1-1.406.527H8.684q-.879,0-.879.844v2.18q0,.879.844.879H10.9q.879,0,.879-.844V95.309a.9.9,0,0,1,1.055-1.02q1.23.035,2.461.176.949-.07,1.09.563a1.149,1.149,0,0,1-.457.422q-.352.176-.352,1.09,0,1.02.457,1.02.492,0,1.371-.879a1.379,1.379,0,0,1,2.039-.035q1.266,1.16,2.145.914h1.688q.879,0,.879-.844V95.309a.9.9,0,0,1,1.055-1.02l2.461.141A2.286,2.286,0,0,1,29,94.781q.176.176-.387.6-.527.246-.527,1.2,0,.984.457.984.492,0,1.477-1.055l.316-.352q.844-.914,2.074.035l.7.527q1.125.844.914,1.336a1.64,1.64,0,0,1-1.406.492H28.969q-.879,0-.879.844v8.227a1.128,1.128,0,0,1-1.055,1.23,9.55,9.55,0,0,0-1.371.176q-.844.141.211.773l2.707,1.582q.949.457.914.949a.65.65,0,0,1-.738.527,11.55,11.55,0,0,0-2.812,1.09q-2.883,1.3-5.8,2.461-.809.422.246.457l6.645-.422q.844-.07.316-.949-.809-1.02-.633-1.2.316-.211,1.371.07a26.154,26.154,0,0,1,2.461.914q3.656,1.758,2.566,5.063a2.855,2.855,0,0,1-2.5,1.863,1.559,1.559,0,0,1-1.16-1.055,22.2,22.2,0,0,1-.738-2.742.939.939,0,0,0-1.3-.668q-8.156,2.109-16.312,4.324a1.8,1.8,0,0,0-1.055.6,1.086,1.086,0,0,1-.809.633q-.246-.07-.668-1.2-.6-1.687-1.09-3.41-.387-1.09.7-1.16,2.6-.211,5.309-.316a2.2,2.2,0,0,0,1.2-.387q.492-.387-.562-.562a3,3,0,0,1-1.9-1.687,4.3,4.3,0,0,0-.949-2.461,5.3,5.3,0,0,0-.7-.6q-1.02-.773-.914-.984.176-.246,1.23-.246,1.2.035,2.5.176a1.353,1.353,0,0,0,1.477-.7q.527-1.02-.527-.914l-1.441.211q-1.125.176-1.125-.844v-6.75q0-.844-.211-.773a2.3,2.3,0,0,0-.316,1.23,16.415,16.415,0,0,1-2.285,6.961q-.7,1.055-.879.984a3.566,3.566,0,0,1,.176-1.23,45.666,45.666,0,0,0,.422-7.945q0-1.055,1.055-.949l1.2.211q.844.105.844-.633,0-.773-.844-.773H8.684q-.879,0-.879.844v7.172a23.086,23.086,0,0,1-5.027,14.063q-1.125,1.3-1.477.984-.211-.176.07-1.336a62.974,62.974,0,0,0,1.125-11.6V91.547q0-1.055,1.055-.633,1.23.457,2.461,1.02a4.21,4.21,0,0,0,2.531.738h6.574q.879,0,.879-.844Zm8.156,8.965q0-.7-.773-.7H16.453q-.879,0-.879.844v7.8q0,1.2.457.281l.422-.879q-.176.316-.176-1.125v-4.781a.932.932,0,0,1,1.055-1.055l1.09.035q1.441.176,1.3.387-.738.246-.492,1.2v3.8a1.085,1.085,0,0,1-1.055,1.2l-.6.035q-.844.141.176.773l2.813,1.688q.949.422.387,1.02a9.62,9.62,0,0,0-3.48,1.336q-.844.422-.422.773a2.176,2.176,0,0,1,.773,1.793q-.035.7,1.02-.141,2.074-1.758,4.148-3.8a6.1,6.1,0,0,1,1.09-.949,2.319,2.319,0,0,0,.07-.879v-6.469q0-.844-.141-.844a3.049,3.049,0,0,0-.352,1.16,9.634,9.634,0,0,1-3.164,5.273q-.984.809-1.2.7a7.2,7.2,0,0,0,1.371-3.023,38.518,38.518,0,0,0,.246-4.324q0-1.055,1.055-.914l1.3.211Q24.152,99.844,24.152,99.246Zm4.781,1.16q0-1.125.984-1.02l2.391.281q.6-.07.633.422a1.33,1.33,0,0,1-.422.281q-.387.176-.387.879v4.465q0,1.2.563.141a16.536,16.536,0,0,0,.527-2.32q.211-1.16.422-1.16.211.141.246,1.2a6.925,6.925,0,0,0,.879,2.953q.457.492.035,1.617a1.825,1.825,0,0,1-2.25,1.09H31.148A1.969,1.969,0,0,1,29,108.422a5.538,5.538,0,0,1-.07-1.23Z" transform="translate(443 1326)" fill="#534741"/>
    <path id="路径_52" data-name="路径 52" d="M28.934,13.988a1.087,1.087,0,0,1,1.758-.176q1.547,1.266,3.094,2.637,1.2,1.055.738,1.512a2.083,2.083,0,0,1-1.512.457H2.953q-1.055,0-1.266-.387-.246-.527.738-.527H25.207a2.382,2.382,0,0,0,1.723-1.055Q27.879,15.219,28.934,13.988ZM15.785,43.563q0-1.125.984-1.055l5.2.387a2.81,2.81,0,0,1,1.406.352q.7.668-.527,1.2a1.224,1.224,0,0,0-.738,1.2v1.441q0,.879.844.879h5.027q.949.422,2.074-1.406a1.158,1.158,0,0,1,1.758-.141l3.8,2.883a1.672,1.672,0,0,1,.668,1.23q-.176.984-1.723.738a3.045,3.045,0,0,0-2.6.492l-.562.387q-.879.668-.07,1.371.844.773.422,1.23a1.953,1.953,0,0,1-1.477.457H23.1q-.879,0-.879.844V60.4q0,.879.844.879h.668a2.481,2.481,0,0,0,1.758-1.055l1.2-1.477a1.216,1.216,0,0,1,1.934-.281l2.391,2.039q.914.773.527,1.2a2.025,2.025,0,0,1-1.547.527H23.1q-.879,0-.879.844v5.238q0,.879.844.879H34.348q1.055,0,1.09.316a1.569,1.569,0,0,1-.527.879,7.746,7.746,0,0,0-1.09,3.656A1.044,1.044,0,0,1,32.66,75.1h-10.9q-6.328-.633-9.844-7.312-.387-.738-.949.422A19.277,19.277,0,0,1,4.43,75.273q-1.055.6-1.3.352-.281-.281.352-1.3,3.3-5.66,3.691-14.836.035-1.16,1.266-1.02l4.219.492a3.128,3.128,0,0,1,1.934.422q.176.422-.773,1.266a2.518,2.518,0,0,0-.949,1.688,11.965,11.965,0,0,1-.422,1.758,1.974,1.974,0,0,0,.7,1.863,10.473,10.473,0,0,0,2.32,1.828q.879.457.879-.422V56.078q0-.879-.844-.879H9.563q-1.055,0-1.266-.457-.211-.492-.773-.07a3.9,3.9,0,0,1-3.8.105q-2.6-2.285.105-4.711a11.938,11.938,0,0,1,1.406-.914,4.671,4.671,0,0,0,2.039-2.707q.211-1.055.527-1.09.352,0,.668,1.055l.141.6q.176.949.949.949h5.344q.879,0,.879-.844Zm13.184,6.223q.211-.914-.6-.914H9.773q-.844,0-.809,1.055a6.977,6.977,0,0,1-.457,3.691q-.457.633.457.633H24.188A2.481,2.481,0,0,0,25.945,53.2l1.16-1.406q.914-1.055,1.23-.809.281.281.563-.879Zm1.406,34.25q.773-.984,1.828-.105.879.668,1.758,1.441.949.809.633,1.23a1.828,1.828,0,0,1-1.441.457h-8.3q-.879,0-.879.844v1.723q0,.879.844.879h.844q.844.316,2.25-1.2a1.63,1.63,0,0,1,2.109-.07l2.461,1.617a4.439,4.439,0,0,1,1.02,1.02q-.035.176-.6.563a1.045,1.045,0,0,0-.668,1.055V98.2q0,1.055-.492,1.16-.492.141.6,1.09L34.1,101.93q1.055.914.668,1.371a1.865,1.865,0,0,1-1.477.492h-3.2a1.856,1.856,0,0,0-1.512,1.055q-.914,1.512-1.969,3.023-.562.844.492,1.09a10.4,10.4,0,0,1,3.867,1.9q2.074,2.039.809,4.219-1.512,2.215-3.3,1.512a8.934,8.934,0,0,1-2.812-2.145q-1.055-.809-2.109-1.477a1.861,1.861,0,0,0-2.109.211,20.739,20.739,0,0,1-5.625,2.391,54.583,54.583,0,0,1-12.234,1.441q-1.055,0-1.09-.281,0-.246,1.16-.422,8.3-1.3,13.113-5.1.914-.879.07-1.2-1.617-.562-3.27-.984-.844-.211-1.617.914l-.492.7q-.844,1.3-1.934.984l-3.621-1.055q-1.02-.316-.316-1.371l3.094-4.5q.668-.914-.176-.914H2.848q-1.055,0-1.23-.387-.281-.562.668-.562H9.141a2.1,2.1,0,0,0,1.617-1.055l1.512-2.215q.527-.844-.316-.844H10.23q-.879,0-.879.563t-1.055.738q-1.758.211-3.516.527-1.055.105-1.055-.949V89.73q0-1.055,1.055-.738l2.461.809a6.719,6.719,0,0,0,3.129.7q1.125,0,1.125-.844V87.938q0-.879-.844-.879H3.27q-1.055,0-1.266-.387-.246-.527.738-.527h25Q28.758,86.566,30.375,84.035Zm-11.6,3.9q0-.879-1.02-.879-1.09,0-1.09.844v1.723q0,.879,1.02.879,1.09,0,1.09-.844ZM11.5,92.3q0-.879-1.055-.879-1.09,0-1.09.844V96.9q0,.879,1.055.879,1.09,0,1.09-.844Zm7.277,0q0-.879-1.02-.879-1.09,0-1.09.844V96.9q0,.879,1.02.879,1.09,0,1.09-.844Zm7.734,0q0-.879-.844-.879h-.809q-.879,0-.879.844V96.9q0,.879.844.879h.809q.879,0,.879-.844Zm0,7.172q-.035-.738-.844-.738h-7.98q-1.2,0-.07.352a2.16,2.16,0,0,1,1.863,1.02q-.035.141-.773.563a2.765,2.765,0,0,0-1.477,1.23q-.668.949.105.949h9.809a2.583,2.583,0,0,0,1.793-1.055l1.266-1.477q.668-.773-.527-.633-1.3.141-2.6.387Q26.508,100.137,26.508,99.469ZM21.9,104.742q.563-.949-.211-.949H16.875a2.019,2.019,0,0,0-1.582,1.055q-.633.879-1.16,1.758-.668.984.387,1.09l4.219.281a1.8,1.8,0,0,0,1.617-.914Q21.2,105.9,21.9,104.742Zm-4.816,20.785q.246-1.23,1.125-1.02l5.344,1.23q.633.105.738.527.141.352-.668.738a2.778,2.778,0,0,0-.879.738l-.949,1.512q-.527.844.316.844h4.113a2.481,2.481,0,0,0,1.758-1.055l1.16-1.406a1.268,1.268,0,0,1,1.969-.211l2.109,1.758q1.02.949.668,1.336a1.764,1.764,0,0,1-1.406.492h-11a2.481,2.481,0,0,0-1.758,1.055,40.189,40.189,0,0,1-5.027,4.852,2.009,2.009,0,0,0-.949,1.512v11.18a1.128,1.128,0,0,1-1.055,1.23l-2.461.281Q9,151.262,9,150.207v-2q0-.879-.738-.879-.809,0-.809.844v2.6a1.085,1.085,0,0,1-1.055,1.2l-2.461.281q-1.266.141-1.266-.914V128.48q0-1.055,1.055-.633,1.582.633,3.164,1.371a3.185,3.185,0,0,0,1.371.281,2.712,2.712,0,0,0,1.758-.984,1.629,1.629,0,0,1,2.109-.352l2.918,1.863q.352.527-.668,1.09a1.42,1.42,0,0,0-.633,1.266v2.355q0,1.2.6-.035A36.633,36.633,0,0,0,17.086,125.527ZM9,131.363q0-.914-.738-.914-.809,0-.809.844v14.2q0,.879.738.879.809,0,.809-.844Zm15.926,4.043q1.09-1.125,2.074-.457,1.9,1.2,3.8,2.5.738.422.668.984-.105.773-1.055.738a2.367,2.367,0,0,0-1.512,1.09l-3.8,5.625q-2.461,3.48-2.672,5.273.211,1.125,1.547.844h3.691a2.473,2.473,0,0,0,1.969-1.266l1.336-3.445q.422-1.055.668-1.055.387,0,.387.984v2.32A2.195,2.195,0,0,0,33.5,151.3q1.23.246.984,1.406a9.944,9.944,0,0,1-.984,2.566,3.322,3.322,0,0,1-3.059,1.793H18.352q-4.254-.246-4.148-3.691.246-2.109,2.742-5.625l5.836-8.859q.527-.844-.316-.844H16.559q-1.055,0-1.3-.492-.176-.492.879-.492H22.5A2.8,2.8,0,0,0,24.363,136ZM5.941,166.633q0-1.055,1.02-.984l2.461.211a16.466,16.466,0,0,1,2.742.281q1.09.457-.176,1.23a1.24,1.24,0,0,0-.527,1.16v3.375q0,1.09.7.105.668-1.02,1.688.035l1.02,1.16q.844.844,1.336.844h3.48q.879,0,.879-.844v-6.258a.9.9,0,0,1,1.055-1.02l5.273.422a3.119,3.119,0,0,1,1.2.387q.563.563-.527,1.125a1.427,1.427,0,0,0-.809,1.3v4.008q0,.879.527.879.563,0,1.441-1.055l1.2-1.477q.914-1.16,1.9-.316l2.391,2.039q.914.844.527,1.266a1.953,1.953,0,0,1-1.477.457H16.313q-1.055,0-1.16-.176a4.779,4.779,0,0,1-.984.035H12.34q-.879,0-.879.844v4.008q0,.879,1.09.492l1.688-.633q1.055-.457,1.16-.141.07.352-1.055,1.3l-2,1.617a2.061,2.061,0,0,0-.879,1.547v11.883A3.138,3.138,0,0,1,9.6,198.273a8.5,8.5,0,0,1-3.41.7,1.006,1.006,0,0,1-1.16-1.02,10.416,10.416,0,0,0-.492-2.461,3.98,3.98,0,0,0-1.125-1.371q-1.16-.773-1.125-1.055.035-.211,1.09-.211H5.063q.879,0,.879-.844v-3.867q0-.844-1.055-.035l-.562.492a5.691,5.691,0,0,1-.984,1.266q-.6-.07-.773-.984l-1.125-4.922A.921.921,0,0,1,2.25,182.7q1.371-.176,2.742-.492.949-.176.949-.949V175.7q0-.879-.844-.879H2.953q-1.055,0-1.23-.387-.281-.562.668-.562H5.063q.879,0,.879-.844Zm21.3,10.3q.211-1.125,1.2-.773l5.2,1.9a5.094,5.094,0,0,1,1.336.668q.563.879-.844,1.09a1.857,1.857,0,0,0-1.441,1.16l-6.75,15.117q-.316.844.563.844a2.419,2.419,0,0,0,1.793-1.055l1.371-1.758a1.188,1.188,0,0,1,1.9-.246l2.5,2.109q1.125.949.7,1.406a1.907,1.907,0,0,1-1.512.527H14.906q-1.055,0-1.266-.492t.844-.492h8.121q.844,0,1.09-1.055Q25.418,186.426,27.246,176.934Zm-10.617,0q.246-.105,1.02.949,4.148,6.223,5.063,10.9a16.756,16.756,0,0,1,.211,2.848,3.25,3.25,0,0,1-3.691,3.023,2.859,2.859,0,0,1-2.6-2.426,10.777,10.777,0,0,1,.352-2.988q1.406-6.609-.246-11.215Q16.383,176.969,16.629,176.934ZM7.313,207.563q0-1.125.984-1.09l3.8.281q1.2.281.281.984a.91.91,0,0,0-.562.914q0,.7.6.7.7.352,1.828-1.406a1.269,1.269,0,0,1,1.969-.035q1.723,1.758,2.6,1.441h9.668q.879.422,2.18-1.406a1.39,1.39,0,0,1,2.039-.281l1.055.844q1.055.844.809,1.336-.316.492-1.371.492H28.477a3.021,3.021,0,0,0-1.9.949l-2.145,1.934q-.773.809.07.809h4.535a2.207,2.207,0,0,0,1.512-.6q.6-.527,1.723.176a8.233,8.233,0,0,1,1.969,1.406q.035.211-.387.527-.422.211-.422,1.055v14.766a1.128,1.128,0,0,1-1.055,1.23l-1.512.246q-1.2.176-1.2-.422,0-.773-.844-.773H21.691q-.879,0-.879.457t-1.055.633a11.79,11.79,0,0,0-1.547.246q-1.2.246-1.2-.738v-9.457q.07-1.863-.809.246a5.19,5.19,0,0,0-.352,1.125q-.246,1.125-1.3.281a8.714,8.714,0,0,1-2.285-2.988q-.457-1.02-.457.105v1.652a1.107,1.107,0,0,1-.984,1.23q-1.02.07-.984.316-.035.211-.492.6a1.425,1.425,0,0,0-.7.492q-.141.281.949.281a2.66,2.66,0,0,0,1.934-.844,1.334,1.334,0,0,1,1.9-.105l2.461,1.723q1.441.738.246,1.477-.316.105-.773.914-.773,1.406-1.687,2.813-.668.949.176,1.23a34.178,34.178,0,0,0,4.781.527H33.785q1.055,0,1.09.352a3.441,3.441,0,0,1-.809,1.406,6.668,6.668,0,0,0-.668,2.531,1.044,1.044,0,0,1-1.16,1.055H18.633a15.186,15.186,0,0,1-7.734-2.215,1.762,1.762,0,0,0-2.109.07,21.974,21.974,0,0,1-6.328,2.285q-1.2.246-1.266-.035-.07-.176,1.125-.879a18.805,18.805,0,0,0,4.254-3.762,1.721,1.721,0,0,0,.035-2.109A19.238,19.238,0,0,1,5.73,230.7q-.316-.844-1.16-.035-1.055.949-2.109,1.723t-1.23.7a3.72,3.72,0,0,1,.563-1.23,23.807,23.807,0,0,0,2.531-7.1q.211-.844-.984-.176l-.914.457q-1.09.527-1.2.246t.844-1.23a33.79,33.79,0,0,0,3.41-4.219q.738-1.125.387-1.09-.949.035-1.02-1.336-.176-.809-1.055.352a19.638,19.638,0,0,1-1.547,1.863q-1.23,1.23-1.23.809,1.371-4.676,2.074-8.367.281-1.371,1.336-.914,1.02.387,2.039.879.844.316.844-.668,0-1.02-.844-1.02H2.637q-1.055,0-1.3-.492-.176-.492.879-.492H6.434q.879,0,.879-.844Zm14.8,3.762q.176-.984-.562-.984H12.691q-.879,0-.879.844v3.586q0,1.2.387.07l.879-3.023q.316-1.125,1.547-.562l1.406.633a2.7,2.7,0,0,1,1.23.738.992.992,0,0,0,.492.527l1.406.492a2.652,2.652,0,0,0,1.723.387q.7,0,.914-1.055A14.6,14.6,0,0,1,22.113,211.324Zm-5.1,2.461q0-.738-.316-.7-.246.07-.879.879-.633.773.457,1.512,1.16.984.105,2.566a1.6,1.6,0,0,1-.984.7q-.492.246-.844-.633l-.281-1.2q-.246-.914-1.16.07-.914.879.141,1.758a10.254,10.254,0,0,0,2.777,1.266q.984.176.984-.562ZM7.1,213.223q-.316.07-.879.914-.633.949.07,1.266a3.047,3.047,0,0,1,.738.7q.281.422.281-.7v-1.336Q7.313,213.223,7.1,213.223Zm14.7,2.742q0-.949-.422-.949-.562,0-.562.844v13.887q0,.879.457.879.527,0,.527-.844Zm3.938,0q0-.949-.422-.949-.562,0-.562.844V218.5q0,.879.457.879.527,0,.527-.844Zm3.938,0q0-.949-.422-.949-.562,0-.562.844v13.887q0,.879.457.879.527,0,.527-.844Zm-3.937,5.273q0-.914-.457-.914-.527,0-.527.844v2.672q0,.879.457.879.527,0,.527-.844ZM7.313,222.926q0-.949-1.02-.141-1.02.668,0,.879T7.313,222.926Zm18.422,3.656q0-.879-.457-.879-.527,0-.527.844v3.2q0,.879.457.879.527,0,.527-.844ZM10.2,227.988q.316-.879-.527-.879H8.684a1.99,1.99,0,0,0-1.547.879,1.344,1.344,0,0,0,.105,1.934,4.942,4.942,0,0,0,.633.6q.844.7,1.406-.422Zm5.063,23.6q5.309-1.336,8.824.141,5.766,2.637,4.219,8.367a6.689,6.689,0,0,1-4.957,3.867,18.681,18.681,0,0,1-2.285.422.819.819,0,0,0-.844.914v3.375q0,1.09-.809,1.09-.844,0-.844-1.055v-4.852a1.221,1.221,0,0,1,1.055-1.3,3.481,3.481,0,0,0,2.32-1.477,8.522,8.522,0,0,0,.7-4.219,5.45,5.45,0,0,0-2-4.148,4.141,4.141,0,0,0-4.395.211q-2.285,1.758.07,3.41a3.856,3.856,0,0,1,.633,2.566,2.934,2.934,0,0,1-1.2,2.039q-3.27,1.617-4.852-1.547Q9.281,254.434,15.258,251.586Zm1.512,19.969a3.615,3.615,0,0,1,4.289-.633,3.552,3.552,0,0,1,1.793,2.637,3.364,3.364,0,0,1-.809,2.813,3.652,3.652,0,0,1-3.34,1.266q-3.234-.809-2.953-3.973A3.317,3.317,0,0,1,16.77,271.555Z" transform="translate(388 1343)" fill="#534741"/>
    <line id="直线_1" data-name="直线 1" y2="73" transform="translate(463.5 1455.5)" fill="none" stroke="#534741" stroke-width="1"/>
  </g>
</svg>
