<svg xmlns="http://www.w3.org/2000/svg" width="209.048" height="57.36" viewBox="0 0 209.048 57.36">
  <g id="title-md-3" transform="translate(-86.952 -1856.648)">
    <path id="路径_63" data-name="路径 63" d="M3.914,1.633q0-.727.7-.68a30.81,30.81,0,0,1,3.375.3q.516.422-.258.773a.756.756,0,0,0-.375.75V3.953q0,.563.094.586.117,0,.773-.727a.953.953,0,0,0,.211-.234A.919.919,0,0,1,9.8,3.438l.234.188q.727.539.727-.023V1.82q0-.7.7-.422,1.289.539,2.578,1.148a2.524,2.524,0,0,0,1.055.234h1.945q.609.281,1.406-.937a.941.941,0,0,1,1.313-.3q.938.563,1.875,1.2,1.1.469.258,1.125a1.053,1.053,0,0,0-.375.867v8.461a.752.752,0,0,1-.7.82q-1.148.117-2.32.3-.7.07-.7-.469a.5.5,0,0,0-.562-.562H15q-.586,0-.586.3t-.7.422l-.984.141q-.844.07-.117.328a2.818,2.818,0,0,1,2.063,1.617,2.2,2.2,0,0,1-1.9,2.414q-.586.047-1.055-.727l-.68-1.875a4.785,4.785,0,0,0-.656-.961q-.82-.844-.727-.961a1.059,1.059,0,0,1,.656-.047q.445.07.445-.492V10.8q0-.609-.211-.258A1.764,1.764,0,0,1,9,11.2a1.37,1.37,0,0,1-.961-1.172,11.092,11.092,0,0,0-.3-1.875q-.375-.773-.375.047v5.391a.752.752,0,0,1-.7.82l-1.945.234q-.8.117-.8-.516V11.57q0-.562-.75.047-.8.586-1.594,1.078-.75.4-.844.3t.328-.8A19.375,19.375,0,0,0,3.492,5.758Q3.563,5.2,3,5.2H1.922q-.7,0-.844-.328t.563-.328H3.328q.586,0,.586-.562ZM17.789,4.047q0-.609-.539-.609H15q-.586,0-.586.563V5.453q0,.586.563.586H17.2q.586,0,.586-.562ZM10.758,5.8q0-.609-.539-.609H7.945a.518.518,0,0,0-.586.586.893.893,0,0,0,.7.844A8.231,8.231,0,0,1,10.172,7.7q.586.609.586-.047Zm7.031,1.523q0-.633-.516-.633H15q-.586,0-.586.563V8.781q0,.586.563.586H17.2q.586,0,.586-.562Zm0,3.281q0-.633-.516-.633H15q-.586,0-.586.563v1.5q0,.586.563.586H17.2q.586,0,.586-.562ZM6.258,15.7q0-.75.656-.68,1.242.047,2.555.164a1.445,1.445,0,0,1,.539.141q.609.3-.164.7-.234.094-.234.656v1.547q-.258.984.82.867H15.4a1.362,1.362,0,0,0,.75-.141,2.626,2.626,0,0,0,.492-1.219l.094-.469q.141-.7.352-.7.211.023.281.727A1.819,1.819,0,0,0,18.4,19.023q.586.164.492.961a3.838,3.838,0,0,1-.727,1.875,1.574,1.574,0,0,1-1.055.516H8.3a1.669,1.669,0,0,1-2.039-1.5Zm11.648-.516q.164-.234.82,0A13.675,13.675,0,0,1,22.219,16.8a2.712,2.712,0,0,1,1.008,3.188q-1.242,2.039-2.953.8a1.973,1.973,0,0,1-.727-1.383,5.872,5.872,0,0,0-1.078-3.281Q17.789,15.344,17.906,15.18Zm-14.062,1.1q.188-.75.352-.75.234,0,.422.7A11.01,11.01,0,0,1,4.758,20.5a1.972,1.972,0,0,1-2.273,1.289,1.642,1.642,0,0,1-1.57-1.734A2.5,2.5,0,0,1,2.156,18.3,3.331,3.331,0,0,0,3.844,16.281ZM38.991,1.352q.164-.82.75-.68l3.563.82q.422.07.492.352.094.234-.445.492a1.852,1.852,0,0,0-.586.492l-.633,1.008q-.352.563.211.563h2.742a1.654,1.654,0,0,0,1.172-.7l.773-.937a.845.845,0,0,1,1.313-.141l1.406,1.172q.68.633.445.891a1.176,1.176,0,0,1-.937.328H41.92a1.654,1.654,0,0,0-1.172.7A26.792,26.792,0,0,1,37.4,8.945a1.339,1.339,0,0,0-.633,1.008v7.453a.752.752,0,0,1-.7.82l-1.641.188q-.82.094-.82-.609V16.469q0-.586-.492-.586-.539,0-.539.563V18.18a.723.723,0,0,1-.7.8l-1.641.188q-.844.094-.844-.609V3.32q0-.7.7-.422,1.055.422,2.109.914A2.123,2.123,0,0,0,33.108,4a1.808,1.808,0,0,0,1.172-.656,1.086,1.086,0,0,1,1.406-.234l1.945,1.242q.234.352-.445.727a.946.946,0,0,0-.422.844v1.57q0,.8.4-.023A24.422,24.422,0,0,0,38.991,1.352ZM33.6,5.242q0-.609-.492-.609-.539,0-.539.563v9.469q0,.586.492.586.539,0,.539-.562Zm10.617,2.7q.727-.75,1.383-.3,1.266.8,2.531,1.664.492.281.445.656-.07.516-.7.492a1.578,1.578,0,0,0-1.008.727l-2.531,3.75a9.049,9.049,0,0,0-1.781,3.516q.141.75,1.031.563h2.461a1.649,1.649,0,0,0,1.313-.844l.891-2.3q.281-.7.445-.7.258,0,.258.656v1.547a1.463,1.463,0,0,0,.984,1.172q.82.164.656.938a6.629,6.629,0,0,1-.656,1.711,2.215,2.215,0,0,1-2.039,1.2H39.834Q37,22.211,37.069,19.914a9.107,9.107,0,0,1,1.828-3.75l3.891-5.906q.352-.562-.211-.562H38.639q-.7,0-.867-.328-.117-.328.586-.328H42.6a1.866,1.866,0,0,0,1.242-.7ZM59.161,1.422q0-.7.68-.656l1.641.141a10.977,10.977,0,0,1,1.828.188q.727.3-.117.82a.826.826,0,0,0-.352.773v2.25q0,.727.469.07.445-.68,1.125.023l.68.773q.563.563.891.563h2.32q.586,0,.586-.562V1.633a.6.6,0,0,1,.7-.68l3.516.281a2.079,2.079,0,0,1,.8.258q.375.375-.352.75a.951.951,0,0,0-.539.867V5.781q0,.586.352.586.375,0,.961-.7l.8-.984q.609-.773,1.266-.211L78,5.828q.609.563.352.844a1.3,1.3,0,0,1-.984.3h-11.3q-.7,0-.773-.117a3.186,3.186,0,0,1-.656.023H63.427q-.586,0-.586.563v2.672q0,.586.727.328l1.125-.422q.7-.3.773-.094.047.234-.7.867l-1.336,1.078a1.374,1.374,0,0,0-.586,1.031v7.922A2.092,2.092,0,0,1,61.6,22.516a5.665,5.665,0,0,1-2.273.469.671.671,0,0,1-.773-.68,6.944,6.944,0,0,0-.328-1.641,2.653,2.653,0,0,0-.75-.914q-.773-.516-.75-.7.023-.141.727-.141h1.125q.586,0,.586-.562V15.766q0-.562-.7-.023l-.375.328a3.794,3.794,0,0,1-.656.844q-.4-.047-.516-.656l-.75-3.281a.614.614,0,0,1,.539-.844q.914-.117,1.828-.328.633-.117.633-.633v-3.7q0-.586-.562-.586h-1.43q-.7,0-.82-.258-.187-.375.445-.375h1.781q.586,0,.586-.562Zm14.2,6.867q.141-.75.8-.516L77.63,9.039a3.4,3.4,0,0,1,.891.445q.375.586-.562.727a1.238,1.238,0,0,0-.961.773L72.5,21.063q-.211.563.375.563a1.613,1.613,0,0,0,1.2-.7l.914-1.172a.792.792,0,0,1,1.266-.164l1.664,1.406q.75.633.469.938a1.271,1.271,0,0,1-1.008.352H65.137q-.7,0-.844-.328t.563-.328H70.27q.563,0,.727-.7Q72.145,14.617,73.364,8.289Zm-7.078,0q.164-.07.68.633a21.012,21.012,0,0,1,3.375,7.266,11.17,11.17,0,0,1,.141,1.9A2.166,2.166,0,0,1,68.02,20.1a1.906,1.906,0,0,1-1.734-1.617,7.185,7.185,0,0,1,.234-1.992,13.684,13.684,0,0,0-.164-7.477Q66.122,8.313,66.286,8.289ZM87.675,1.375q0-.75.656-.727l2.531.188q.8.188.188.656a.606.606,0,0,0-.375.609q0,.469.4.469.469.234,1.219-.937A.846.846,0,0,1,93.6,1.609q1.148,1.172,1.734.961h6.445q.586.281,1.453-.937a.926.926,0,0,1,1.359-.187l.7.563q.7.563.539.891-.211.328-.914.328h-3.141a2.014,2.014,0,0,0-1.266.633l-1.43,1.289q-.516.539.047.539h3.023a1.471,1.471,0,0,0,1.008-.4q.4-.352,1.148.117a5.489,5.489,0,0,1,1.313.938q.023.141-.258.352-.281.141-.281.7v9.844a.752.752,0,0,1-.7.82l-1.008.164q-.8.117-.8-.281,0-.516-.562-.516H97.261q-.586,0-.586.3t-.7.422a7.86,7.86,0,0,0-1.031.164q-.8.164-.8-.492v-6.3q.047-1.242-.539.164a3.46,3.46,0,0,0-.234.75q-.164.75-.867.188a5.81,5.81,0,0,1-1.523-1.992q-.3-.68-.3.07v1.1a.738.738,0,0,1-.656.82q-.68.047-.656.211-.023.141-.328.4a.95.95,0,0,0-.469.328q-.094.188.633.188a1.773,1.773,0,0,0,1.289-.562.889.889,0,0,1,1.266-.07l1.641,1.148q.961.492.164.984-.211.07-.516.609-.516.938-1.125,1.875-.445.633.117.82a22.785,22.785,0,0,0,3.188.352h10.1q.7,0,.727.234a2.294,2.294,0,0,1-.539.938,4.445,4.445,0,0,0-.445,1.688.7.7,0,0,1-.773.7h-9.07a10.124,10.124,0,0,1-5.156-1.477,1.174,1.174,0,0,0-1.406.047,14.649,14.649,0,0,1-4.219,1.523q-.8.164-.844-.023-.047-.117.75-.586a12.537,12.537,0,0,0,2.836-2.508,1.147,1.147,0,0,0,.023-1.406A12.825,12.825,0,0,1,86.62,16.8q-.211-.562-.773-.023-.7.633-1.406,1.148t-.82.469A2.48,2.48,0,0,1,84,17.57a15.871,15.871,0,0,0,1.688-4.734q.141-.562-.656-.117l-.609.3q-.727.352-.8.164t.563-.82a22.527,22.527,0,0,0,2.273-2.812q.492-.75.258-.727-.633.023-.68-.891-.117-.539-.7.234A13.092,13.092,0,0,1,84.3,9.414q-.82.82-.82.539.914-3.117,1.383-5.578.188-.914.891-.609.68.258,1.359.586.563.211.563-.445,0-.68-.562-.68H84.558q-.7,0-.867-.328-.117-.328.586-.328h2.813q.586,0,.586-.562Zm9.867,2.508q.117-.656-.375-.656H91.261q-.586,0-.586.563V6.18q0,.8.258.047l.586-2.016q.211-.75,1.031-.375l.938.422a1.8,1.8,0,0,1,.82.492.661.661,0,0,0,.328.352l.938.328a1.768,1.768,0,0,0,1.148.258q.469,0,.609-.7A9.734,9.734,0,0,1,97.542,3.883Zm-3.4,1.641q0-.492-.211-.469-.164.047-.586.586-.422.516.3,1.008.773.656.07,1.711a1.063,1.063,0,0,1-.656.469q-.328.164-.562-.422l-.187-.8q-.164-.609-.773.047-.609.586.094,1.172a6.836,6.836,0,0,0,1.852.844q.656.117.656-.375Zm-6.609-.375q-.211.047-.586.609-.422.633.047.844a2.032,2.032,0,0,1,.492.469q.188.281.188-.469V5.711Q87.675,5.148,87.534,5.148Zm9.8,1.828q0-.633-.281-.633-.375,0-.375.563v9.258q0,.586.3.586.352,0,.352-.562Zm2.625,0q0-.633-.281-.633-.375,0-.375.563V8.664q0,.586.3.586.352,0,.352-.562Zm2.625,0q0-.633-.281-.633-.375,0-.375.563v9.258q0,.586.3.586.352,0,.352-.562Zm-2.625,3.516q0-.609-.3-.609-.352,0-.352.563v1.781q0,.586.3.586.352,0,.352-.562ZM87.675,11.617q0-.633-.68-.094-.68.445,0,.586T87.675,11.617Zm12.281,2.438q0-.586-.3-.586-.352,0-.352.563v2.133q0,.586.3.586.352,0,.352-.562ZM89.6,14.992q.211-.586-.352-.586h-.656a1.326,1.326,0,0,0-1.031.586.9.9,0,0,0,.07,1.289,3.294,3.294,0,0,0,.422.4q.563.469.938-.281Z" transform="translate(122 1856)" fill="#534741"/>
    <path id="路径_64" data-name="路径 64" d="M16.031,1.234a.88.88,0,0,1,1.242-.094q.82.516,1.641,1.1,1.547.727.656,1.359a.848.848,0,0,0-.3.75v4.9a.752.752,0,0,1-.7.82l-2.625.375q-.7.07-.7-.7,0-.8-.562-.8H8.766q-.586,0-.586.609t-.7.727l-2.414.328q-.8.117-.8-.516V1.539q0-.7.7-.492l2.578.844a3.4,3.4,0,0,0,1.1.211h5.883Q15.094,2.359,16.031,1.234Zm-.8,2.133q0-.609-.539-.609H8.766q-.586,0-.586.563V4.633q0,.586.563.586h5.906q.586,0,.586-.562Zm0,3.07q0-.586-.562-.586H8.766q-.586,0-.586.563V7.75q0,.586.563.586h5.906q.586,0,.586-.562Zm4.734,3.375a.811.811,0,0,1,1.289-.187l1.125.914q.773.68.563.984a1.093,1.093,0,0,1-.937.328H14.883q-.586,0-.586.563v1.852q0,.586.563.586h.727a1.588,1.588,0,0,0,1.148-.7q.328-.445.75-.914a.8.8,0,0,1,1.289-.07l1.2,1.031q.75.656.563.984a1.167,1.167,0,0,1-.961.328H14.883q-.586,0-.586.563v1.969q0,.586.563.586H22.57q.727,0,.727.258t-.352.492a3.74,3.74,0,0,0-.773,2.18q0,.82-.7.82H13.336q-3.8-.656-5.719-5.227-.258-.586-.656.141a13.58,13.58,0,0,1-5.016,5.133q-.867.516-.984.328-.07-.117.422-.867a21.5,21.5,0,0,0,2.977-8.7q.094-.727.8-.562,1.711.422,3.492.914a.533.533,0,0,1,.492.4.962.962,0,0,1-.7.563,1.05,1.05,0,0,0-.3.422.934.934,0,0,1-.117.3,1.333,1.333,0,0,0,.164,1.266,3.752,3.752,0,0,0,1.711,1.641q.563.211.563-.352V12.438q0-.586-.562-.586h-7.8q-.7,0-.82-.258-.187-.375.445-.375H18.234a1.588,1.588,0,0,0,1.148-.7ZM48.558,1.375q.8-.891,1.477-.352l1.406,1.148q.68.609.422.938a1.244,1.244,0,0,1-.984.328H44.9a1.186,1.186,0,0,0-.984.7q-.891,1.477-1.9,2.953-.4.563.188.68.586.234.656.375.023.188-.4.516a.827.827,0,0,0-.445.8V21.555a.752.752,0,0,1-.7.82l-2.578.328q-.82.094-.82-.609V12.2q0-.562-.75.023a28.2,28.2,0,0,1-6.586,3.563q-.75.281-.844.07-.164-.3.633-.891a21.852,21.852,0,0,0,7.1-7.547A32.288,32.288,0,0,0,39.23,4q.234-.562-.328-.562H30.675q-.7,0-.867-.328-.117-.328.586-.328H46.8a1.654,1.654,0,0,0,1.172-.7ZM42.98,9.3q.094-.141.8.023a26.94,26.94,0,0,1,5.391,1.664,5.36,5.36,0,0,1,2.508,2.3,2.444,2.444,0,0,1,.188,1.875q-.633,1.523-1.922,1.383-2.016-.141-2.883-2.789a9.063,9.063,0,0,0-3.492-3.891Q42.909,9.438,42.98,9.3ZM75.3,1.328q.68-.773,1.313-.281.469.422,1.008.82.773.633.563.914a1.123,1.123,0,0,1-.961.352H71.78q-.586,0-.586.563v.469q0,.586.563.586h4.383a1.588,1.588,0,0,0,1.148-.7l.516-.609a2.614,2.614,0,0,1,.8.492q.82.586,1.641,1.242,1.078.539.75,1.359a1.258,1.258,0,0,1-1.008.164,1.75,1.75,0,0,0-1.477.3L76.7,8.125q-.7.445-.891.4-.211-.07.094-.961l.516-1.406q.234-.75-.328-.75H71.78q-.586,0-.586.563v4.125a.752.752,0,0,1-.7.82l-2.109.281q-.844.094-.844-.609V5.992q0-.586-.562-.586H62.686q-.562,0-.469.7a2.533,2.533,0,0,1-.07,1.547,2.051,2.051,0,0,1-2.531,1.313,1.507,1.507,0,0,1-1.172-1.758A2.05,2.05,0,0,1,59.85,5.664a2.451,2.451,0,0,0,1.266-1.1q.352-.891.445-.844t.211.492a.667.667,0,0,0,.68.539h4.5q.586,0,.586-.562V3.719q0-.586-.562-.586H61.983q-.7,0-.844-.258-.164-.352.492-.352H73.7Q74.264,2.852,75.3,1.328ZM65.03,6.578a.834.834,0,0,1,1.2-.07q.82.563.727.844-.187.375-.891.375h-2.2q-.7,0-.867-.328-.117-.328.586-.328h.4A1.478,1.478,0,0,0,65.03,6.578Zm8.906,0a.834.834,0,0,1,1.2-.07q.8.563.7.844-.187.375-.891.375h-2.18q-.7,0-.867-.328-.117-.328.586-.328h.4A1.478,1.478,0,0,0,73.936,6.578ZM65.03,9.016a.862.862,0,0,1,1.2-.07q.82.539.727.844-.187.375-.891.375H63.2q-.7,0-.867-.328-.094-.328.609-.328h1.031A1.478,1.478,0,0,0,65.03,9.016Zm9.281,0a.86.86,0,0,1,1.2-.07q1.008.445.7.891-.164.328-.867.328H72.764q-.7,0-.867-.328-.117-.328.586-.328h.773A1.478,1.478,0,0,0,74.311,9.016Zm2.719,1.359a.833.833,0,0,1,1.313-.187l1.172.938q.75.633.539.961a1.093,1.093,0,0,1-.937.352H71.9a2.046,2.046,0,0,0-1.266.609l-.937.8q-.516.492.047.492h4.594A1.986,1.986,0,0,0,75.6,13.68a1.108,1.108,0,0,1,1.43-.258l2.2,1.406q.281.3-.164.609a1.162,1.162,0,0,0-.281.82v4.57a2.337,2.337,0,0,1-1.172,1.734,7.227,7.227,0,0,1-2.414.352.671.671,0,0,1-.773-.68,3.73,3.73,0,0,0-.516-1.758q-.469-.586-.469,0v.891a.723.723,0,0,1-.7.8q-.82.07-1.641.211-.844.094-.844-.609V15.531q0-.586-.656-.586-.68,0-.68.563v6.047a.723.723,0,0,1-.7.8q-.82.07-1.641.211-.82.07-.82-.633v-6.4q0-.586-.562-.586h-.445q-.586,0-.586.563v6.258a.752.752,0,0,1-.7.82l-2.156.328q-.7.07-.7-.633V13.82q0-.7.7-.469,1.289.422,2.578.914a2.557,2.557,0,0,0,.75.07H65.9q.563,0,.727-.7l.141-.609q.117-.586-.445-.586h-6.68q-.7,0-.844-.328t.563-.328H75.3a1.588,1.588,0,0,0,1.148-.7Zm-1.992,5.18q0-.609-.539-.609H74.03q-.586,0-.586.563v3.211q0,.586.563.586h.445q.586,0,.586-.562ZM106.65,1.023q.516-.656,1.219-.07.586.445,1.172.961.633.539.422.82a1.219,1.219,0,0,1-.961.3H102.97q-.586,0-.586.563V4.75q0,.586.563.586h.563q.563.211,1.5-.8a1.086,1.086,0,0,1,1.406-.047l1.641,1.078a2.959,2.959,0,0,1,.68.68q-.023.117-.4.375a.7.7,0,0,0-.445.7v3.141q0,.7-.328.773-.328.094.4.727l1.172.984q.7.609.445.914a1.244,1.244,0,0,1-.984.328h-2.133a1.238,1.238,0,0,0-1.008.7q-.609,1.008-1.312,2.016-.375.563.328.727a6.935,6.935,0,0,1,2.578,1.266,2.131,2.131,0,0,1,.539,2.813q-1.008,1.477-2.2,1.008a5.956,5.956,0,0,1-1.875-1.43q-.7-.539-1.406-.984a1.241,1.241,0,0,0-1.406.141,13.826,13.826,0,0,1-3.75,1.594,36.388,36.388,0,0,1-8.156.961q-.7,0-.727-.187,0-.164.773-.281a18.568,18.568,0,0,0,8.742-3.4q.609-.586.047-.8-1.078-.375-2.18-.656-.562-.141-1.078.609l-.328.469q-.562.867-1.289.656l-2.414-.7q-.68-.211-.211-.914l2.063-3q.445-.609-.117-.609H88.3q-.7,0-.82-.258-.187-.375.445-.375h4.57a1.4,1.4,0,0,0,1.078-.7l1.008-1.477q.352-.562-.211-.562H93.22q-.586,0-.586.375t-.7.492q-1.172.141-2.344.352-.7.07-.7-.633V4.82q0-.7.7-.492l1.641.539a4.479,4.479,0,0,0,2.086.469q.75,0,.75-.562V3.625q0-.586-.562-.586H88.58q-.7,0-.844-.258-.164-.352.492-.352h16.664Q105.572,2.711,106.65,1.023Zm-7.734,2.6q0-.586-.68-.586-.727,0-.727.563V4.75q0,.586.68.586.727,0,.727-.562ZM94.064,6.531q0-.586-.7-.586-.727,0-.727.563V9.6q0,.586.7.586.727,0,.727-.562Zm4.852,0q0-.586-.68-.586-.727,0-.727.563V9.6q0,.586.68.586.727,0,.727-.562Zm5.156,0q0-.586-.562-.586h-.539q-.586,0-.586.563V9.6q0,.586.563.586h.539q.586,0,.586-.562Zm0,4.781q-.023-.492-.562-.492h-5.32q-.8,0-.047.234a1.44,1.44,0,0,1,1.242.68q-.023.094-.516.375a1.843,1.843,0,0,0-.984.82q-.445.633.07.633h6.539a1.722,1.722,0,0,0,1.2-.7l.844-.984q.445-.516-.352-.422-.867.094-1.734.258Q104.072,11.758,104.072,11.313ZM101,14.828q.375-.633-.141-.633H97.65a1.346,1.346,0,0,0-1.055.7q-.422.586-.773,1.172-.445.656.258.727l2.813.188a1.2,1.2,0,0,0,1.078-.609Q100.533,15.6,101,14.828Zm20.456-13.2a.864.864,0,0,1,1.336-.164l.984.8q.563.422.563-.328t.7-.516q.82.258,1.641.586a2.985,2.985,0,0,0,1.477.328h4.828a1.829,1.829,0,0,0,1.219-.656,1.008,1.008,0,0,1,1.359-.117l1.688,1.078q1.031.492.3.984a.821.821,0,0,0-.3.727V13a.752.752,0,0,1-.7.82l-2.109.281q-.82.094-.82-.539,0-.68-.609-.68-.633,0-.633.563v2.531q0,.586.7.586a1.612,1.612,0,0,0,1.266-.7l.563-.7q.7-.82,1.289-.3.7.539,1.406,1.148.656.563.445.867a1.093,1.093,0,0,1-.937.328h-4.148q-.586,0-.586.563v3.352q0,.586.563.586h.656q.68.281,1.734-1.406.727-.867,1.453-.281L138,21.063q.75.656.516.984a1.167,1.167,0,0,1-.961.328H122.348q-.7,0-.867-.328-.117-.352.586-.352h6.281q.586,0,.586-.562V17.781q0-.586-.562-.586h-3.3q-.7,0-.82-.258-.187-.375.445-.375h3.656q.586,0,.586-.562V13.469q0-.586-.539-.586-.586,0-.586.633a.758.758,0,0,1-.7.8l-1.969.328q-.8.117-.8-.516V3.461q0-.609-.187-.3-.187.281-.867.281h-1.008q-.586,0-.586.563V8.594q0,.75.539.047.516-.773,1.266-.023.75.8.609,1.148-.141.3-.844.3h-.984q-.586,0-.586.563v4.148q0,.563.7.469l1.617-.328q.7-.117.7.047,0,.258-.773.914-2.344,1.828-4.687,3.727a3.122,3.122,0,0,0-.8.75q-.234.656-.75.68a3.206,3.206,0,0,1-.609-1.453l-.7-2.367a.625.625,0,0,1,.492-.891l.7-.141a.665.665,0,0,0,.563-.7V10.656q0-.586-.68-.586-.7,0-.844-.258-.164-.375.469-.375h.469q.586,0,.586-.562V4.023q0-.586-.727-.586-.75,0-.914-.328-.117-.328.586-.328h2.836a1.588,1.588,0,0,0,1.148-.7Zm7.477,1.945q0-.633-.516-.633-.609,0-.609.563v3.3q0,.586.539.586.586,0,.586-.562Zm4.688,0q0-.633-.586-.633-.656,0-.656.563v3.3q0,.586.609.586.633,0,.633-.562Zm-4.687,5.039q0-.609-.539-.609-.586,0-.586.563v3.094q0,.586.539.586.586,0,.586-.562Zm4.688,0q0-.609-.586-.609-.656,0-.656.563v3.094q0,.586.609.586.633,0,.633-.562Zm20.222-7.336q0-.75.68-.7l3.492.281a.809.809,0,0,1,.773.375q.023.188-.469.539a.9.9,0,0,0-.539.844V5.383q0,.586.563.586h2.836q.633.3,1.547-1.172a.95.95,0,0,1,1.313-.258L166.078,5.8q1.055.4.445,1.1a1.684,1.684,0,0,0-.609,1.1V21.672a.723.723,0,0,1-.7.8l-2.6.281q-.7.07-.7-.633v-.656q0-.586-.562-.586H150.586q-.586,0-.586.75a.748.748,0,0,1-.7.844l-2.391.281q-.75.117-.75-.586V4.914q0-.7.7-.422l2.578,1.125a2.028,2.028,0,0,0,1.336.352h2.484q.586,0,.586-.562Zm0,5.93q0-.609-.539-.609h-2.719q-.586,0-.586.563v4.781q0,.586.563.586h2.7q.586,0,.586-.562Zm8.063,0q0-.609-.539-.609h-3q-.586,0-.586.563v4.781q0,.586.563.586h2.977q.586,0,.586-.562Zm-8.062,6.563q0-.609-.539-.609h-2.719q-.586,0-.586.563v5.906q0,.586.563.586h2.7q.586,0,.586-.562Zm8.063,0q0-.609-.539-.609h-3q-.586,0-.586.563v5.906q0,.586.563.586h2.977q.586,0,.586-.562ZM177.464,1.281q.141-.75.8-.633l2.555.469a2.828,2.828,0,0,1,1.055.281q.445.469-.141.75a2.364,2.364,0,0,0-.914.633q-.937,1.031-1.969,1.969-.609.586-.047.586h.961a1.775,1.775,0,0,0,1.2-.633.959.959,0,0,1,1.336-.164q.82.516,1.641,1.1,1.055.539.141,1.1-.141.07-.141.609v2.32q0,.539.211-.094a59.158,59.158,0,0,0,1.125-8.18q.094-.867.844-.7,1.781.445,3.563.8a.942.942,0,0,1,.75.469q0,.188-.445.516a1.283,1.283,0,0,0-.75.867l-.445,1.125q-.3.75.258.75h1.781q.563.258,1.5-.891a1.173,1.173,0,0,1,1.57-.211l2.18,1.523q.422.586-.258.891a.739.739,0,0,0-.516.727,84.544,84.544,0,0,1-.492,9.609,12.658,12.658,0,0,1-1.055,4.688,2.2,2.2,0,0,1-1.289,1.031,10.921,10.921,0,0,1-2.344.422q-.727,0-.727-.844l-.141-.937a2.315,2.315,0,0,0-1.828-1.781q-.75-.187-.75-.445,0-.281.7-.281H190.1q.563,0,.7-.7a76.449,76.449,0,0,0,.75-11.578q0-.586-.562-.586h-2.227a1.09,1.09,0,0,0-.937.7,17.236,17.236,0,0,1-.914,1.641.711.711,0,0,0,.234,1.125A4.927,4.927,0,0,1,189.652,13a2.119,2.119,0,0,1-.867,2.18,1.715,1.715,0,0,1-1.875.117q-.82-1.008-.586-3.68a9,9,0,0,0-.234-1.266q-.187-.586-.727.141l-.891,1.219a1.81,1.81,0,0,0-.539,1.172v7.43a.752.752,0,0,1-.7.82q-1.055.094-2.133.281-.7.07-.7-.633V19.094q0-.586-.562-.586h-1.219q-.586,0-.586.563v1.641a.782.782,0,0,1-.7.844q-.961.117-1.945.3-.8.117-.8-.516V4.914q0-.7.7-.492l1.008.328q.563.211.68-.539Q177.183,2.758,177.464,1.281Zm2.93,5.25q0-.586-.562-.586h-1.219q-.586,0-.586.563V10.75q0,.586.563.586h1.219q.586,0,.586-.562Zm0,6q0-.586-.562-.586h-1.219q-.586,0-.586.563v4.758q0,.586.563.586h1.219q.586,0,.586-.562Z" transform="translate(86 1891)" fill="#534741"/>
    <line id="直线_8" data-name="直线 8" x1="51" transform="translate(233.5 1869.5)" fill="none" stroke="#534741" stroke-width="1"/>
    <g id="椭圆_4" data-name="椭圆 4" transform="translate(288 1906)" fill="none" stroke="#534741" stroke-width="1">
      <circle cx="4" cy="4" r="4" stroke="none"/>
      <circle cx="4" cy="4" r="3.5" fill="none"/>
    </g>
  </g>
</svg>
