<svg xmlns="http://www.w3.org/2000/svg" width="89.188" height="293.157" viewBox="0 0 89.188 293.157">
  <g id="title-lg-1" transform="translate(-883.02 -807.506)">
    <path id="路径_51" data-name="路径 51" d="M13.676,2.7q.281-1.406,1.3-1.16,2.988.773,5.977,1.652.773.7-.527,1.125-.562.176-1.02,1.23l-.773,1.828q-.387.949.352.949h1.477a2.42,2.42,0,0,0,1.547-.562l.387-.316A1.81,1.81,0,0,1,24.5,7.168L26.93,8.539q1.055.738,1.055.879-.07.563-.809.738-.562.141-.914,1.2l-.633,1.969q-.246.844-.07.914.176-.035.914-1.09.844-1.16,1.863-.352l1.723,1.336a4,4,0,0,1,1.02.949q-.07.668-.949.914a1.8,1.8,0,0,0-.984,1.336l-.176.7q-.141.949.633.211a1.3,1.3,0,0,1,1.758-.105L34.945,20.6q.738,1.055-.6,1.441a1.046,1.046,0,0,0-.6,1.09,35.113,35.113,0,0,1-.492,6.188,9.027,9.027,0,0,1-1.406,4.219,4.218,4.218,0,0,1-1.406.879,18.409,18.409,0,0,1-3.727.457q-1.09,0-1.09-1.2.07-2.531-2.672-3.48-1.125-.281-1.125-.633,0-.422,1.055-.422h3.3q.844,0,1.16-1.055a31.2,31.2,0,0,0,.633-6.293.746.746,0,0,0-.844-.844h-16.8a3.021,3.021,0,0,0-1.9.949,35.509,35.509,0,0,1-5.7,4.184q-1.16.668-1.336.492-.246-.281.7-1.23a41.259,41.259,0,0,0,9.527-15.223q.211-.844-.633-.844H4.219q-1.055,0-1.266-.387-.246-.562.7-.562h3.48q.914,0,.387-.352a2.74,2.74,0,0,1-.668-1.617,4.894,4.894,0,0,0-.879-2.812q-1.02-1.125-.809-1.406.246-.281,1.371.035,1.406.387,2.813.914a3.616,3.616,0,0,1,2,1.371,2.689,2.689,0,0,1-.387,3.164q-.738.7.211.7a1.338,1.338,0,0,0,1.336-1.055Q13.184,4.988,13.676,2.7Zm7.453,7.453q.281-.879-.562-.879H18.633a1.635,1.635,0,0,0-1.406,1.055l-1.652,3.023q-.562.879.316.879h2.988q.844,0,1.23-1.055Q20.566,11.668,21.129,10.156Zm2.6,5.941q.246-.914-.562-.914h-7.91a2.1,2.1,0,0,0-1.617,1.055,20.232,20.232,0,0,1-2.32,2.848q-.844.879.035.879H21.8q.844,0,1.16-1.055Zm-3.375,6.047q.246-.316,1.2-.141a9.384,9.384,0,0,1,5.168,2.215,1.808,1.808,0,0,1,.246,2.109q-1.09,2.531-3.023,1.688a3.881,3.881,0,0,1-.879-1.371A6.991,6.991,0,0,0,21.2,23.129Q20.285,22.215,20.355,22.145Zm-5.027.563q.176-.316,1.125,0,1.23.457,2.461,1.02,3.234,1.336,2.391,4.5-1.2,2.25-3.2,1.3a2.509,2.509,0,0,1-1.09-2.039,7.14,7.14,0,0,0-.984-3.516Q15.223,22.918,15.328,22.707Zm-5.133.738q.246-.352,1.23.105,3.8,1.758,3.973,4.254a3.247,3.247,0,0,1-1.125,3.34,4.21,4.21,0,0,1-1.406.492q-.457.141-.914-.422a5.422,5.422,0,0,1-.7-2.6,10.242,10.242,0,0,0-.738-3.867Q10.02,23.691,10.2,23.445ZM7.523,24.781q.246-1.055.492-1.125.316,0,.527,1.09,1.02,4.992-.07,6.75a3.962,3.962,0,0,1-4.254,1.09,1.987,1.987,0,0,1-1.371-1.863q0-1.934,2.988-3.586A4.15,4.15,0,0,0,7.523,24.781ZM7.207,46.844q.246-1.406,1.23-1.2l5.2,1.16a3.981,3.981,0,0,1,1.23.422q.527.738-.633,1.2a2.544,2.544,0,0,0-1.125,1.266,42.732,42.732,0,0,1-3.551,6.047q-.633.809.316,1.02.949.422.949.563a1.969,1.969,0,0,1-.352.492,1.4,1.4,0,0,0-.352,1.125V76.973a1.085,1.085,0,0,1-1.055,1.2l-3.164.281q-1.23.105-1.23-.949V62.383q0-.914-1.055.105l-.562.563q-1.336,1.2-1.617,1.055t.352-1.3A52.726,52.726,0,0,0,7.207,46.844Zm13.641-.035a.9.9,0,0,1,1.02-1.02l5.273.352a1.527,1.527,0,0,1,1.406.668q0,.176-.7.914a1.422,1.422,0,0,0-.844,1.3v7.242q0,.844.316.879.281,0,1.2-1.125.563-.773,1.23-1.547.914-1.16,1.9-.316,1.2.949,2.391,2,1.09.984.7,1.441a2.083,2.083,0,0,1-1.512.457H27.879q-.879,0-.879.844V76.656a1.128,1.128,0,0,1-1.055,1.23l-3.867.527q-1.23.141-1.23-.914V58.938q0-.879-.844-.879H13.781q-1.055,0-1.266-.387-.246-.527.738-.527h6.715q.879,0,.879-.844ZM16,90.281a.936.936,0,0,1,1.02-1.055q1.512.035,3.129.176a8.91,8.91,0,0,1,2.566.281q.668.492-.176.984a1.155,1.155,0,0,0-.668,1.09q0,.914.844.914h4.324a2.481,2.481,0,0,0,1.758-1.055l1.2-1.371a1.276,1.276,0,0,1,1.969-.176l1.793,1.477q1.3,1.125.949,1.582a1.7,1.7,0,0,1-1.406.527H8.684q-.879,0-.879.844v2.18q0,.879.844.879H10.9q.879,0,.879-.844V95.309a.9.9,0,0,1,1.055-1.02q1.23.035,2.461.176.949-.07,1.09.563a1.149,1.149,0,0,1-.457.422q-.352.176-.352,1.09,0,1.02.457,1.02.492,0,1.371-.879a1.379,1.379,0,0,1,2.039-.035q1.266,1.16,2.145.914h1.688q.879,0,.879-.844V95.309a.9.9,0,0,1,1.055-1.02l2.461.141A2.286,2.286,0,0,1,29,94.781q.176.176-.387.6-.527.246-.527,1.2,0,.984.457.984.492,0,1.477-1.055l.316-.352q.844-.914,2.074.035l.7.527q1.125.844.914,1.336a1.64,1.64,0,0,1-1.406.492H28.969q-.879,0-.879.844v8.227a1.128,1.128,0,0,1-1.055,1.23,9.55,9.55,0,0,0-1.371.176q-.844.141.211.773l2.707,1.582q.949.457.914.949a.65.65,0,0,1-.738.527,11.55,11.55,0,0,0-2.812,1.09q-2.883,1.3-5.8,2.461-.809.422.246.457l6.645-.422q.844-.07.316-.949-.809-1.02-.633-1.2.316-.211,1.371.07a26.154,26.154,0,0,1,2.461.914q3.656,1.758,2.566,5.063a2.855,2.855,0,0,1-2.5,1.863,1.559,1.559,0,0,1-1.16-1.055,22.2,22.2,0,0,1-.738-2.742.939.939,0,0,0-1.3-.668q-8.156,2.109-16.312,4.324a1.8,1.8,0,0,0-1.055.6,1.086,1.086,0,0,1-.809.633q-.246-.07-.668-1.2-.6-1.687-1.09-3.41-.387-1.09.7-1.16,2.6-.211,5.309-.316a2.2,2.2,0,0,0,1.2-.387q.492-.387-.562-.562a3,3,0,0,1-1.9-1.687,4.3,4.3,0,0,0-.949-2.461,5.3,5.3,0,0,0-.7-.6q-1.02-.773-.914-.984.176-.246,1.23-.246,1.2.035,2.5.176a1.353,1.353,0,0,0,1.477-.7q.527-1.02-.527-.914l-1.441.211q-1.125.176-1.125-.844v-6.75q0-.844-.211-.773a2.3,2.3,0,0,0-.316,1.23,16.415,16.415,0,0,1-2.285,6.961q-.7,1.055-.879.984a3.566,3.566,0,0,1,.176-1.23,45.666,45.666,0,0,0,.422-7.945q0-1.055,1.055-.949l1.2.211q.844.105.844-.633,0-.773-.844-.773H8.684q-.879,0-.879.844v7.172a23.086,23.086,0,0,1-5.027,14.063q-1.125,1.3-1.477.984-.211-.176.07-1.336a62.974,62.974,0,0,0,1.125-11.6V91.547q0-1.055,1.055-.633,1.23.457,2.461,1.02a4.21,4.21,0,0,0,2.531.738h6.574q.879,0,.879-.844Zm8.156,8.965q0-.7-.773-.7H16.453q-.879,0-.879.844v7.8q0,1.2.457.281l.422-.879q-.176.316-.176-1.125v-4.781a.932.932,0,0,1,1.055-1.055l1.09.035q1.441.176,1.3.387-.738.246-.492,1.2v3.8a1.085,1.085,0,0,1-1.055,1.2l-.6.035q-.844.141.176.773l2.813,1.688q.949.422.387,1.02a9.62,9.62,0,0,0-3.48,1.336q-.844.422-.422.773a2.176,2.176,0,0,1,.773,1.793q-.035.7,1.02-.141,2.074-1.758,4.148-3.8a6.1,6.1,0,0,1,1.09-.949,2.319,2.319,0,0,0,.07-.879v-6.469q0-.844-.141-.844a3.049,3.049,0,0,0-.352,1.16,9.634,9.634,0,0,1-3.164,5.273q-.984.809-1.2.7a7.2,7.2,0,0,0,1.371-3.023,38.518,38.518,0,0,0,.246-4.324q0-1.055,1.055-.914l1.3.211Q24.152,99.844,24.152,99.246Zm4.781,1.16q0-1.125.984-1.02l2.391.281q.6-.07.633.422a1.33,1.33,0,0,1-.422.281q-.387.176-.387.879v4.465q0,1.2.563.141a16.536,16.536,0,0,0,.527-2.32q.211-1.16.422-1.16.211.141.246,1.2a6.925,6.925,0,0,0,.879,2.953q.457.492.035,1.617a1.825,1.825,0,0,1-2.25,1.09H31.148A1.969,1.969,0,0,1,29,108.422a5.538,5.538,0,0,1-.07-1.23Z" transform="translate(937 806)" fill="#534741"/>
    <path id="路径_50" data-name="路径 50" d="M29.461,2.035a1.451,1.451,0,0,1,1.969-.352l2.145,1.371q1.828.738.457,1.652a1.424,1.424,0,0,0-.527,1.23V7.063a1.128,1.128,0,0,1-1.055,1.23q-1.406.105-2.812.316-1.055.105-1.055-.281,0-.457-1.055-.457A.979.979,0,0,0,26.438,9a3.275,3.275,0,0,0,.141,1.336,2.744,2.744,0,0,0,1.02.105h2.988a1.426,1.426,0,0,0,1.266-1.125q.281-.668.527-.668.387,0,.422.563a.98.98,0,0,0,1.16.914q1.336.176,1.055,1.266a2.99,2.99,0,0,1-2.777,2.25h-7.1l4.043.457a.848.848,0,0,1,.773.563q-.035.211-.633.668a1.136,1.136,0,0,0-.633,1.055q0,.738.141.809a5.429,5.429,0,0,0,1.16-1.125,1.3,1.3,0,0,1,1.969-.316l.7.563q1.055.879.809,1.336-.316.492-1.371.492H29.566q-.879,0-.879.844v2.145q0,.844.352.879.352,0,1.3-1.055l.281-.352a1.328,1.328,0,0,1,2-.141l.7.563q1.266,1.02.984,1.441-.281.457-1.3.457H17.895q-1.09,0-.211.633L19.9,24.816a5.186,5.186,0,0,1,1.09.949q-.07.387-.809.492a2.516,2.516,0,0,0-1.02.352,15.98,15.98,0,0,1-5.555,2.039q-1.055.211.105.316l.527.035H27.457q.844,0,.281-1.055a11.683,11.683,0,0,0-3.129-3.41q-1.09-.879-.914-1.2.211-.246,1.266-.105a29.648,29.648,0,0,1,5.273,1.16q3.129,1.3,1.758,3.762-.457.844.387.844h1.688q1.055,0,1.09.352a3.552,3.552,0,0,1-.738,1.406,7,7,0,0,0-.457,2.18q-.035,1.16-1.02,1.16H15.961a9.994,9.994,0,0,1-6.68-4.535q-.668-1.09-1.406-.07-1.441,2-2.777,4.113-.387,1.055-.6,1.125-.422.246-.844-.492L1.828,30.371Q1.3,29.316,2.355,29l1.055-.281q1.125-.316,1.125-1.16V19.895q0-.879-.844-.879H2.813q-1.055,0-1.3-.492-.176-.492.879-.492H3.445a2.689,2.689,0,0,0,1.828-1.055,1.567,1.567,0,0,1,2.039-.387l2.461,1.477q.949.738.914.914l-.6.527a1.273,1.273,0,0,0-.527,1.09v6.363q.352,2,1.969,1.758-.07-.141,1.2-1.23a9.608,9.608,0,0,0,2.531-3.48q.422-1.09-.422-1.09H11.25q-1.055,0-1.266-.387Q9.738,22,10.723,22h3.059q.879,0,.879-.844V19.016q0-.879-.844-.879H12.551q-1.055,0-1.266-.387-.316-.562.668-.562h1.828q.879,0,.879-.844V14.762a.9.9,0,0,1,1.055-1.02l3.867.281q1.3.316,1.371.6,0,.211-.562.668a1.126,1.126,0,0,0-.7,1.055.746.746,0,0,0,.844.844h2.25q.879,0,.879-.844V14.551q0-.844-.527-.984a1.4,1.4,0,0,1-1.02-.809q-.141-.211-1.266.422l-.562.176H11.672a1.5,1.5,0,0,1-1.371-1.2V3.09q0-1.055,1.055-.773a6.013,6.013,0,0,1,1.055.316,5.336,5.336,0,0,0,3.164.457,2.663,2.663,0,0,0,1.793-.949,1.468,1.468,0,0,1,2-.281l1.688,1.02q.914.563.914-.176,0-.809,1.055-.527l2.461.809a3.835,3.835,0,0,0,1.125.105h1.02A2.689,2.689,0,0,0,29.461,2.035ZM2.707,3.266q.141-.281,1.2-.281,3.691-.035,5.414,1.477a2.4,2.4,0,0,1-.105,3.516A2.385,2.385,0,0,1,6.4,8.5,2.491,2.491,0,0,1,4.852,6.676,3,3,0,0,0,3.9,4.566Q2.566,3.512,2.707,3.266ZM16.488,5.023q0-.914-.879-.914-.984,0-.984.844v.773q0,.879.914.879.949,0,.949-.844Zm12.094,0q0-.914-1.02-.914-1.125,0-1.125.844V6.078q0,.879,1.055.879,1.09,0,1.09-.844Zm-6.609.563q0-1.055-.281-.809a1.231,1.231,0,0,0-.457,1.09v.914a1.128,1.128,0,0,1-1.055,1.23l-2.461.281q-1.23.141-1.23-.246,0-.457-.914-.457-.949,0-.949,1.125A5.5,5.5,0,0,0,14.7,9.98a1.737,1.737,0,0,0,1.02.176q1.547.035,3.2-.07a3.72,3.72,0,0,0,.949-.914q.281-.668.527-.668t.316.387q-.035.7.773.879.492.035.492-.809Zm-20,3.867q.211-.281,1.16-.281A12.432,12.432,0,0,1,7.348,9.8q2.883,1.477,1.582,3.8a2.546,2.546,0,0,1-3.34,1.055,2.435,2.435,0,0,1-1.441-1.863,2.98,2.98,0,0,0-1.02-2.109Q1.828,9.664,1.969,9.453Zm21.691,9.6q0-.914-.809-.914H20.566q-.879,0-.879.844v2.145q0,.879.844.879h2.25q.879,0,.879-.844ZM4.816,43.633a.868.868,0,0,1,1.055-.984l3.867.316a5.45,5.45,0,0,1,1.547.316q.422.527-.527,1.09a1.255,1.255,0,0,0-.633,1.2v3.551q0,1.09.773.141.668-.984,1.2-.457.6.6.6-.281V44.09q0-1.055,1.055-.738l2.461.879a5.342,5.342,0,0,0,1.652.316h9.563a3.068,3.068,0,0,0,1.9-.914,1.538,1.538,0,0,1,2-.07l1.16.773a4.715,4.715,0,0,1,1.863,1.406,2.089,2.089,0,0,1-.492.563,1.183,1.183,0,0,0-.492,1.125v3.586a1.128,1.128,0,0,1-1.055,1.23l-.668.105q-.844.211.105.949a4.582,4.582,0,0,0,.7.527q.914.738.633,1.16-.316.527-1.371.527h-5.8q-.879,0-.879.844V57.73q0,.879.844.879h2.953q.914.422,2.109-1.406,1.02-1.125,2-.352a12.265,12.265,0,0,1,1.125.879q1.125.879.809,1.336-.316.492-1.371.492H28.828q-.809,0,.141.281a4.033,4.033,0,0,1,2.25.738q.141.457-.7.773a4.73,4.73,0,0,0-1.2.738l-2.109,1.371q-1.055.773.141.773A2.613,2.613,0,0,0,29.32,63.18l.281-.352a1.269,1.269,0,0,1,1.969-.035l.7.563q1.055.879.773,1.336-.281.492-1.336.492H26.086q-.879,0-.879.844V68q0,.879.844.879h2.6q.914.457,2.391-1.723a1.315,1.315,0,0,1,2-.176l1.09.844q1.336,1.09.984,1.512a1.55,1.55,0,0,1-1.336.527h-7.7q-.879,0-.879.844v3.445a1.085,1.085,0,0,1-1.055,1.2q-1.828.141-3.656.422-1.2.141-1.2-.809V70.738q0-.879-.844-.879H12.094q-1.055,0-1.266-.492t.844-.492h6.75q.879,0,.879-.844V66.063q0-.879-.844-.879H14.344q-1.055,0-1.266-.387-.246-.562.7-.562h2.566q.879,0,.422-1.09A4.55,4.55,0,0,0,15.82,60.4a2.11,2.11,0,0,0-1.582-.844H12.8q-1.055,0-1.23-.316-.176-.352-.809.176a1.911,1.911,0,0,0-.633,1.441V72.672a3.193,3.193,0,0,1-1.758,2.566,7.043,7.043,0,0,1-3.023.6,1.045,1.045,0,0,1-1.2-1.02,4.674,4.674,0,0,0-1.512-3.48Q1.3,70.563,1.3,70.281,1.336,70,2.391,70H3.938q.879,0,.879-.844v-3.8q0-.914-.809.035-.352,1.055-.984.844a3.2,3.2,0,0,1-.6-1.3l-.984-4.219q-.316-1.336.809-1.441L3.973,59a.948.948,0,0,0,.844-1.02V52.7q0-.879-.844-.879H2.637q-1.055,0-1.23-.387-.246-.562.7-.562H3.938q.879,0,.879-.844Zm13.922,2.742q0-.879-.633-.879-.668,0-.668.844v3.832q0,.879.633.879.668,0,.668-.844Zm4.781,0q0-.879-.7-.879-.738,0-.738.844v3.832q0,.879.7.879.738,0,.738-.844Zm4.781,0q0-.879-.668-.879-.738,0-.738.844v3.832q0,.879.668.879.738,0,.738-.844ZM12.691,52.7q0-.879-.844-.879H11q-.879,0-.879.844v3.938q0,.844,1.055.527l1.055-.352q1.09-.457,1.2-.105.07.352-.773,1.125-.914.809-.035.809h6.223q.879,0,.879-.844V56.395q0-.879-.844-.879H14.625q-1.055,0-1.3-.492-.176-.492.879-.492h4.641q.879,0,.879-.844v-.844q0-.879-1.125-.879-1.16,0-1.16.387,0,.422-1.055.633l-2.461.352Q12.691,53.512,12.691,52.7ZM28.3,52.387q0-.422-.809-.422H25.91q-.879,0-.879.844v.844q0,.879.844.879h1.406a2.523,2.523,0,0,0,1.758-.984q.844-.914-.035-.844Q28.3,52.809,28.3,52.387Zm-2.988,8.332q.457-1.16-.387-1.16H18.914q-1.2,0-.07.422,2.988.949,2.074,3.164-.668,1.09.176,1.09h1.969q.844,0,1.266-1.055ZM26.93,84.668q1.09-1.09,2.074-.352l3.9,2.813q1.758.914,1.02,1.969a3.8,3.8,0,0,1-1.16.105,3.289,3.289,0,0,0-2.355.7q-3.727,1.863-7.453,3.867-.668.352-.6.668.035.563-.738.879a.976.976,0,0,0-.527.984V113.18a2.749,2.749,0,0,1-1.477,2.988,15.757,15.757,0,0,1-5.133.7,1.128,1.128,0,0,1-1.23-1.055,5.852,5.852,0,0,0-2.566-4.254Q9.6,111,9.6,110.719q.035-.281,1.09-.281h3.234q.879,0,.879-.844V94.547a.932.932,0,0,1,1.055-1.055q1.371.035,2.742.176a2.282,2.282,0,0,0,1.723-.949q2.039-2.391,4.184-4.781.773-.879-.105-.879H4.078q-1.055,0-1.266-.387-.246-.527.738-.527H24.609Q25.418,86.6,26.93,84.668ZM5.309,125.492q.211-1.2,1.2-.949l5.238,1.2q.949.176.633.914a4.068,4.068,0,0,1-.879.527,2.882,2.882,0,0,0-.773,1.266,33.192,33.192,0,0,1-3.129,6.082q-.527.773.668.984a7.055,7.055,0,0,1,1.02.246q.281.422-.246.7-.352.246-.352,1.09v18.668a1.044,1.044,0,0,1-1.055,1.16q-1.406.07-2.848.246-1.125.105-1.125-.914V140.855q0-.914-.914.141l-.316.352q-.914.914-1.09.809-.211-.176.211-1.23a53.359,53.359,0,0,0,3.129-11.215Zm17.473-.07q.141-1.125,1.16-.879,2.566.527,5.238,1.2a.848.848,0,0,1,.773.563q-.035.211-1.055.879a1.064,1.064,0,0,0-.422.527q-.914,2-2,4.113-.492.879.352.879h.844a2.382,2.382,0,0,0,1.723-1.055l1.9-2.32q.141-.035,1.2.844l1.758,1.512q1.16,1.02.844,1.477a1.384,1.384,0,0,1-1.2.527q-.844,0-1.02,1.055A56.808,56.808,0,0,1,30.41,146.3a1.376,1.376,0,0,0,.352,1.617,24.786,24.786,0,0,0,3.27,2.215q1.125.633,1.125.984,0,.387-1.055,1.266a7.534,7.534,0,0,0-2.074,4.57q-.105,1.23-1.23.105a28.18,28.18,0,0,1-3.3-3.937q-.562-.879-1.617.105a23.222,23.222,0,0,1-7.488,4.043q-1.371.492-1.477.176-.176-.281.738-1.055a14.943,14.943,0,0,0,1.969-1.617q.879-.879-.176-.773l-1.371.176q-1.055.141-1.055-.457,0-.633-.844-.633h-.844q-.879,0-.879,1.02a1.174,1.174,0,0,1-1.055,1.266l-2.215.352q-1.2.176-1.2-.773V140.328q0-1.055,1.055-.738l1.055.352q1.125.387,1.125-.492v-5.555q0-.879-.844-.879H10.934q-1.055,0-1.266-.492t.844-.492H12.34q.879,0,.879-.844v-5.7a.868.868,0,0,1,1.055-.984q1.934.105,3.867.352,1.16-.035,1.055.773l-.6.422q-.457.246-.457,1.09v4.008q-.246,1.828,1.23-.422.879-1.055,1.758-.387t1.055-.387Zm-1.441,8.789q.281-1.2-.492-1.2H19.02q-.879,0-.879.844v4.887q0,.844.352.633a.583.583,0,0,1,.738-.035q.527.352.773-.457Q20.742,136.566,21.34,134.211Zm5.66.422q.105-.949-.7-.949a2.212,2.212,0,0,0-1.687,1.055.739.739,0,0,1-.211.316,2.129,2.129,0,0,0-.457,1.688,22.694,22.694,0,0,0,1.617,4.605q.457.949.668-.176Q26.754,138.043,27,134.633Zm-4.078,3.8q-.176-1.2-1.09-.141l-.738.809q-.809.844.281,1.547a7.319,7.319,0,0,1,1.266.949q.352.387-.387.773a1.051,1.051,0,0,0-.457,1.02v8.227q0,.914.844-.211a15.466,15.466,0,0,0,2.039-3.832,1.251,1.251,0,0,0-.07-.7A70.661,70.661,0,0,1,22.922,138.43Zm-5.906,4.008q0-.879-.844-.879h-.844q-.879,0-.879.844v8.859q0,.879.844.879h.844q.879,0,.879-.844Zm-11.074,24.2q0-1.055,1.02-.984l2.461.211a16.466,16.466,0,0,1,2.742.281q1.09.457-.176,1.23a1.24,1.24,0,0,0-.527,1.16v3.375q0,1.09.7.105.668-1.02,1.688.035l1.02,1.16q.844.844,1.336.844h3.48q.879,0,.879-.844v-6.258a.9.9,0,0,1,1.055-1.02l5.273.422a3.119,3.119,0,0,1,1.2.387q.563.563-.527,1.125a1.427,1.427,0,0,0-.809,1.3v4.008q0,.879.527.879.563,0,1.441-1.055l1.2-1.477q.914-1.16,1.9-.316l2.391,2.039q.914.844.527,1.266a1.953,1.953,0,0,1-1.477.457H16.313q-1.055,0-1.16-.176a4.779,4.779,0,0,1-.984.035H12.34q-.879,0-.879.844v4.008q0,.879,1.09.492l1.688-.633q1.055-.457,1.16-.141.07.352-1.055,1.3l-2,1.617a2.061,2.061,0,0,0-.879,1.547v11.883A3.138,3.138,0,0,1,9.6,198.273a8.5,8.5,0,0,1-3.41.7,1.006,1.006,0,0,1-1.16-1.02,10.416,10.416,0,0,0-.492-2.461,3.98,3.98,0,0,0-1.125-1.371q-1.16-.773-1.125-1.055.035-.211,1.09-.211H5.063q.879,0,.879-.844v-3.867q0-.844-1.055-.035l-.562.492a5.691,5.691,0,0,1-.984,1.266q-.6-.07-.773-.984l-1.125-4.922A.921.921,0,0,1,2.25,182.7q1.371-.176,2.742-.492.949-.176.949-.949V175.7q0-.879-.844-.879H2.953q-1.055,0-1.23-.387-.281-.562.668-.562H5.063q.879,0,.879-.844Zm21.3,10.3q.211-1.125,1.2-.773l5.2,1.9a5.094,5.094,0,0,1,1.336.668q.563.879-.844,1.09a1.857,1.857,0,0,0-1.441,1.16l-6.75,15.117q-.316.844.563.844a2.419,2.419,0,0,0,1.793-1.055l1.371-1.758a1.188,1.188,0,0,1,1.9-.246l2.5,2.109q1.125.949.7,1.406a1.907,1.907,0,0,1-1.512.527H14.906q-1.055,0-1.266-.492t.844-.492h8.121q.844,0,1.09-1.055Q25.418,186.426,27.246,176.934Zm-10.617,0q.246-.105,1.02.949,4.148,6.223,5.063,10.9a16.756,16.756,0,0,1,.211,2.848,3.25,3.25,0,0,1-3.691,3.023,2.859,2.859,0,0,1-2.6-2.426,10.777,10.777,0,0,1,.352-2.988q1.406-6.609-.246-11.215Q16.383,176.969,16.629,176.934ZM7.313,207.563q0-1.125.984-1.09l3.8.281q1.2.281.281.984a.91.91,0,0,0-.562.914q0,.7.6.7.7.352,1.828-1.406a1.269,1.269,0,0,1,1.969-.035q1.723,1.758,2.6,1.441h9.668q.879.422,2.18-1.406a1.39,1.39,0,0,1,2.039-.281l1.055.844q1.055.844.809,1.336-.316.492-1.371.492H28.477a3.021,3.021,0,0,0-1.9.949l-2.145,1.934q-.773.809.07.809h4.535a2.207,2.207,0,0,0,1.512-.6q.6-.527,1.723.176a8.233,8.233,0,0,1,1.969,1.406q.035.211-.387.527-.422.211-.422,1.055v14.766a1.128,1.128,0,0,1-1.055,1.23l-1.512.246q-1.2.176-1.2-.422,0-.773-.844-.773H21.691q-.879,0-.879.457t-1.055.633a11.79,11.79,0,0,0-1.547.246q-1.2.246-1.2-.738v-9.457q.07-1.863-.809.246a5.19,5.19,0,0,0-.352,1.125q-.246,1.125-1.3.281a8.714,8.714,0,0,1-2.285-2.988q-.457-1.02-.457.105v1.652a1.107,1.107,0,0,1-.984,1.23q-1.02.07-.984.316-.035.211-.492.6a1.425,1.425,0,0,0-.7.492q-.141.281.949.281a2.66,2.66,0,0,0,1.934-.844,1.334,1.334,0,0,1,1.9-.105l2.461,1.723q1.441.738.246,1.477-.316.105-.773.914-.773,1.406-1.687,2.813-.668.949.176,1.23a34.178,34.178,0,0,0,4.781.527H33.785q1.055,0,1.09.352a3.441,3.441,0,0,1-.809,1.406,6.668,6.668,0,0,0-.668,2.531,1.044,1.044,0,0,1-1.16,1.055H18.633a15.186,15.186,0,0,1-7.734-2.215,1.762,1.762,0,0,0-2.109.07,21.974,21.974,0,0,1-6.328,2.285q-1.2.246-1.266-.035-.07-.176,1.125-.879a18.805,18.805,0,0,0,4.254-3.762,1.721,1.721,0,0,0,.035-2.109A19.238,19.238,0,0,1,5.73,230.7q-.316-.844-1.16-.035-1.055.949-2.109,1.723t-1.23.7a3.72,3.72,0,0,1,.563-1.23,23.807,23.807,0,0,0,2.531-7.1q.211-.844-.984-.176l-.914.457q-1.09.527-1.2.246t.844-1.23a33.79,33.79,0,0,0,3.41-4.219q.738-1.125.387-1.09-.949.035-1.02-1.336-.176-.809-1.055.352a19.638,19.638,0,0,1-1.547,1.863q-1.23,1.23-1.23.809,1.371-4.676,2.074-8.367.281-1.371,1.336-.914,1.02.387,2.039.879.844.316.844-.668,0-1.02-.844-1.02H2.637q-1.055,0-1.3-.492-.176-.492.879-.492H6.434q.879,0,.879-.844Zm14.8,3.762q.176-.984-.562-.984H12.691q-.879,0-.879.844v3.586q0,1.2.387.07l.879-3.023q.316-1.125,1.547-.562l1.406.633a2.7,2.7,0,0,1,1.23.738.992.992,0,0,0,.492.527l1.406.492a2.652,2.652,0,0,0,1.723.387q.7,0,.914-1.055A14.6,14.6,0,0,1,22.113,211.324Zm-5.1,2.461q0-.738-.316-.7-.246.07-.879.879-.633.773.457,1.512,1.16.984.105,2.566a1.6,1.6,0,0,1-.984.7q-.492.246-.844-.633l-.281-1.2q-.246-.914-1.16.07-.914.879.141,1.758a10.254,10.254,0,0,0,2.777,1.266q.984.176.984-.562ZM7.1,213.223q-.316.07-.879.914-.633.949.07,1.266a3.047,3.047,0,0,1,.738.7q.281.422.281-.7v-1.336Q7.313,213.223,7.1,213.223Zm14.7,2.742q0-.949-.422-.949-.562,0-.562.844v13.887q0,.879.457.879.527,0,.527-.844Zm3.938,0q0-.949-.422-.949-.562,0-.562.844V218.5q0,.879.457.879.527,0,.527-.844Zm3.938,0q0-.949-.422-.949-.562,0-.562.844v13.887q0,.879.457.879.527,0,.527-.844Zm-3.937,5.273q0-.914-.457-.914-.527,0-.527.844v2.672q0,.879.457.879.527,0,.527-.844ZM7.313,222.926q0-.949-1.02-.141-1.02.668,0,.879T7.313,222.926Zm18.422,3.656q0-.879-.457-.879-.527,0-.527.844v3.2q0,.879.457.879.527,0,.527-.844ZM10.2,227.988q.316-.879-.527-.879H8.684a1.99,1.99,0,0,0-1.547.879,1.344,1.344,0,0,0,.105,1.934,4.942,4.942,0,0,0,.633.6q.844.7,1.406-.422Zm5.063,23.6q5.309-1.336,8.824.141,5.766,2.637,4.219,8.367a6.689,6.689,0,0,1-4.957,3.867,18.681,18.681,0,0,1-2.285.422.819.819,0,0,0-.844.914v3.375q0,1.09-.809,1.09-.844,0-.844-1.055v-4.852a1.221,1.221,0,0,1,1.055-1.3,3.481,3.481,0,0,0,2.32-1.477,8.522,8.522,0,0,0,.7-4.219,5.45,5.45,0,0,0-2-4.148,4.141,4.141,0,0,0-4.395.211q-2.285,1.758.07,3.41a3.856,3.856,0,0,1,.633,2.566,2.934,2.934,0,0,1-1.2,2.039q-3.27,1.617-4.852-1.547Q9.281,254.434,15.258,251.586Zm1.512,19.969a3.615,3.615,0,0,1,4.289-.633,3.552,3.552,0,0,1,1.793,2.637,3.364,3.364,0,0,1-.809,2.813,3.652,3.652,0,0,1-3.34,1.266q-3.234-.809-2.953-3.973A3.317,3.317,0,0,1,16.77,271.555Z" transform="translate(882 823)" fill="#534741"/>
    <line id="直线_1" data-name="直线 1" y2="73" transform="translate(957.5 935.5)" fill="none" stroke="#534741" stroke-width="1"/>
  </g>
</svg>
