<svg xmlns="http://www.w3.org/2000/svg" width="190.794" height="57.523" viewBox="0 0 190.794 57.523">
  <g id="title-md-2" transform="translate(-92.092 -1173.484)">
    <path id="路径_61" data-name="路径 61" d="M9.117,1.469Q9.3.531,9.984.7q1.992.516,3.984,1.1.516.469-.352.75-.375.117-.68.82l-.516,1.219q-.258.633.234.633h.984a1.614,1.614,0,0,0,1.031-.375l.258-.211a1.207,1.207,0,0,1,1.406-.187l1.617.914q.7.492.7.586-.047.375-.539.492-.375.094-.609.8l-.422,1.313q-.164.563-.047.609.117-.023.609-.727.563-.773,1.242-.234l1.148.891a2.667,2.667,0,0,1,.68.633q-.047.445-.633.609a1.2,1.2,0,0,0-.656.891l-.117.469q-.094.633.422.141a.865.865,0,0,1,1.172-.07L23.3,13.4q.492.7-.4.961a.7.7,0,0,0-.4.727,23.409,23.409,0,0,1-.328,4.125,6.018,6.018,0,0,1-.937,2.813,2.812,2.812,0,0,1-.937.586,12.273,12.273,0,0,1-2.484.3q-.727,0-.727-.8A2.271,2.271,0,0,0,15.3,19.8q-.75-.187-.75-.422,0-.281.7-.281h2.2q.563,0,.773-.7a20.8,20.8,0,0,0,.422-4.2.5.5,0,0,0-.562-.562H6.891a2.014,2.014,0,0,0-1.266.633,23.673,23.673,0,0,1-3.8,2.789q-.773.445-.891.328-.164-.187.469-.82A27.506,27.506,0,0,0,7.758,6.414q.141-.562-.422-.562H2.813q-.7,0-.844-.258-.164-.375.469-.375h2.32q.609,0,.258-.234A1.827,1.827,0,0,1,4.57,3.906a3.263,3.263,0,0,0-.586-1.875q-.68-.75-.539-.937.164-.187.914.023.938.258,1.875.609a2.411,2.411,0,0,1,1.336.914A1.793,1.793,0,0,1,7.313,4.75q-.492.469.141.469a.892.892,0,0,0,.891-.7Q8.789,2.992,9.117,1.469Zm4.969,4.969q.188-.586-.375-.586H12.422a1.09,1.09,0,0,0-.937.7l-1.1,2.016q-.375.586.211.586h1.992q.563,0,.82-.7Q13.711,7.445,14.086,6.438ZM15.82,10.4q.164-.609-.375-.609H10.172a1.4,1.4,0,0,0-1.078.7,13.488,13.488,0,0,1-1.547,1.9q-.562.586.023.586h6.961q.563,0,.773-.7ZM13.57,14.43q.164-.211.8-.094a6.256,6.256,0,0,1,3.445,1.477,1.206,1.206,0,0,1,.164,1.406q-.727,1.688-2.016,1.125a2.587,2.587,0,0,1-.586-.914,4.661,4.661,0,0,0-1.242-2.344Q13.523,14.477,13.57,14.43Zm-3.352.375q.117-.211.75,0,.82.3,1.641.68a2.311,2.311,0,0,1,1.594,3q-.8,1.5-2.133.867a1.673,1.673,0,0,1-.727-1.359,4.76,4.76,0,0,0-.656-2.344Q10.148,14.945,10.219,14.8ZM6.8,15.3q.164-.234.82.07,2.531,1.172,2.648,2.836a2.165,2.165,0,0,1-.75,2.227,2.807,2.807,0,0,1-.937.328q-.3.094-.609-.281A3.615,3.615,0,0,1,7.5,18.742a6.828,6.828,0,0,0-.492-2.578Q6.68,15.461,6.8,15.3Zm-1.781.891q.164-.7.328-.75.211,0,.352.727.68,3.328-.047,4.5a2.641,2.641,0,0,1-2.836.727A1.325,1.325,0,0,1,1.9,20.148q0-1.289,1.992-2.391A2.767,2.767,0,0,0,5.016,16.188ZM32.4,1.563q.164-.937.82-.8l3.469.773a2.654,2.654,0,0,1,.82.281q.352.492-.422.8a1.7,1.7,0,0,0-.75.844,28.488,28.488,0,0,1-2.367,4.031q-.422.539.211.68.633.281.633.375a1.312,1.312,0,0,1-.234.328.934.934,0,0,0-.234.75V21.648a.723.723,0,0,1-.7.8l-2.109.188q-.82.07-.82-.633V11.922q0-.609-.7.07l-.375.375q-.891.8-1.078.7T28.8,12.2A35.15,35.15,0,0,0,32.4,1.563ZM41.5,1.539a.6.6,0,0,1,.68-.68l3.516.234a1.018,1.018,0,0,1,.938.445q0,.117-.469.609a.948.948,0,0,0-.562.867V7.844q0,.563.211.586.188,0,.8-.75.375-.516.82-1.031.609-.773,1.266-.211.8.633,1.594,1.336.727.656.469.961a1.388,1.388,0,0,1-1.008.3H46.186q-.586,0-.586.563V21.438a.752.752,0,0,1-.7.82l-2.578.352Q41.5,22.7,41.5,22V9.625q0-.586-.562-.586H36.787q-.7,0-.844-.258-.164-.352.492-.352h4.477q.586,0,.586-.562Zm24.366-.352a.624.624,0,0,1,.68-.7Q67.552.508,68.63.6a5.94,5.94,0,0,1,1.711.188q.445.328-.117.656a.77.77,0,0,0-.445.727q0,.609.563.609h2.883a1.654,1.654,0,0,0,1.172-.7l.8-.914A.851.851,0,0,1,76.5,1.047l1.2.984q.867.75.633,1.055a1.133,1.133,0,0,1-.937.352H60.989q-.586,0-.586.563V5.453q0,.586.563.586h1.5q.586,0,.586-.562V4.539a.6.6,0,0,1,.7-.68q.82.023,1.641.117.633-.047.727.375a.766.766,0,0,1-.3.281q-.234.117-.234.727,0,.68.3.68.328,0,.914-.586a.919.919,0,0,1,1.359-.023q.844.773,1.43.609h1.125q.586,0,.586-.562V4.539a.6.6,0,0,1,.7-.68l1.641.094a1.524,1.524,0,0,1,.891.234q.117.117-.258.4-.352.164-.352.8,0,.656.3.656.328,0,.984-.7l.211-.234q.563-.609,1.383.023l.469.352q.75.563.609.891a1.093,1.093,0,0,1-.937.328H74.512q-.586,0-.586.563v5.484a.752.752,0,0,1-.7.82,6.367,6.367,0,0,0-.914.117q-.562.094.141.516l1.8,1.055q.633.3.609.633a.433.433,0,0,1-.492.352,7.7,7.7,0,0,0-1.875.727q-1.922.867-3.867,1.641-.539.281.164.3l4.43-.281q.563-.047.211-.633-.539-.68-.422-.8.211-.141.914.047a17.436,17.436,0,0,1,1.641.609Q78,19.023,77.278,21.227a1.9,1.9,0,0,1-1.664,1.242,1.039,1.039,0,0,1-.773-.7,14.8,14.8,0,0,1-.492-1.828.626.626,0,0,0-.867-.445Q68.044,20.9,62.606,22.375a1.2,1.2,0,0,0-.7.4.724.724,0,0,1-.539.422q-.164-.047-.445-.8-.4-1.125-.727-2.273-.258-.727.469-.773,1.734-.141,3.539-.211a1.466,1.466,0,0,0,.8-.258q.328-.258-.375-.375a2,2,0,0,1-1.266-1.125,2.87,2.87,0,0,0-.633-1.641,3.534,3.534,0,0,0-.469-.4q-.68-.516-.609-.656.117-.164.82-.164.8.023,1.664.117a.9.9,0,0,0,.984-.469q.352-.68-.352-.609L63.8,13.7q-.75.117-.75-.562v-4.5q0-.562-.141-.516a1.532,1.532,0,0,0-.211.82,10.943,10.943,0,0,1-1.523,4.641q-.469.7-.586.656a2.377,2.377,0,0,1,.117-.82,30.444,30.444,0,0,0,.281-5.3q0-.7.7-.633l.8.141q.563.07.563-.422,0-.516-.562-.516h-1.5q-.586,0-.586.563v4.781a15.391,15.391,0,0,1-3.352,9.375q-.75.867-.984.656-.141-.117.047-.891a41.983,41.983,0,0,0,.75-7.734V2.031q0-.7.7-.422.82.3,1.641.68a2.807,2.807,0,0,0,1.688.492h4.383q.586,0,.586-.562ZM71.3,7.164q0-.469-.516-.469H66.169q-.586,0-.586.563v5.2q0,.8.3.188l.281-.586q-.117.211-.117-.75V8.125a.621.621,0,0,1,.7-.7l.727.023q.961.117.867.258-.492.164-.328.8v2.531a.723.723,0,0,1-.7.8l-.4.023q-.562.094.117.516l1.875,1.125q.633.281.258.68a6.413,6.413,0,0,0-2.32.891q-.562.281-.281.516a1.451,1.451,0,0,1,.516,1.2q-.023.469.68-.094,1.383-1.172,2.766-2.531a4.07,4.07,0,0,1,.727-.633,1.546,1.546,0,0,0,.047-.586V8.617q0-.562-.094-.562a2.033,2.033,0,0,0-.234.773,6.422,6.422,0,0,1-2.109,3.516q-.656.539-.8.469a4.8,4.8,0,0,0,.914-2.016,25.679,25.679,0,0,0,.164-2.883q0-.7.7-.609l.867.141Q71.3,7.563,71.3,7.164Zm3.188.773q0-.75.656-.68l1.594.188q.4-.047.422.281a.887.887,0,0,1-.281.188q-.258.117-.258.586v2.977q0,.8.375.094a11.024,11.024,0,0,0,.352-1.547q.141-.773.281-.773.141.094.164.8a4.617,4.617,0,0,0,.586,1.969q.3.328.023,1.078a1.217,1.217,0,0,1-1.5.727h-.937a1.313,1.313,0,0,1-1.43-.539,3.692,3.692,0,0,1-.047-.82Z" transform="translate(122 1173)" fill="#534741"/>
    <path id="路径_62" data-name="路径 62" d="M19.289,8.992a.725.725,0,0,1,1.172-.117q1.031.844,2.063,1.758.8.7.492,1.008a1.388,1.388,0,0,1-1.008.3H1.969q-.7,0-.844-.258-.164-.352.492-.352H16.8a1.588,1.588,0,0,0,1.148-.7Q18.586,9.813,19.289,8.992ZM39.323,1.375q0-.75.656-.7L43.448.93a1.873,1.873,0,0,1,.938.234q.469.445-.352.8a.816.816,0,0,0-.492.8v.961q0,.586.563.586h3.352q.633.281,1.383-.937a.772.772,0,0,1,1.172-.094L52.542,5.2a1.115,1.115,0,0,1,.445.82q-.117.656-1.148.492a2.03,2.03,0,0,0-1.734.328l-.375.258q-.586.445-.047.914.563.516.281.82a1.3,1.3,0,0,1-.984.3H44.2q-.586,0-.586.563V12.6q0,.586.563.586h.445a1.654,1.654,0,0,0,1.172-.7l.8-.984a.811.811,0,0,1,1.289-.187l1.594,1.359q.609.516.352.8a1.35,1.35,0,0,1-1.031.352H44.2q-.586,0-.586.563v3.492q0,.586.563.586H51.7q.7,0,.727.211a1.046,1.046,0,0,1-.352.586,5.164,5.164,0,0,0-.727,2.438.7.7,0,0,1-.773.7H43.308q-4.219-.422-6.562-4.875-.258-.492-.633.281a12.851,12.851,0,0,1-4.359,4.711q-.7.4-.867.234-.187-.187.234-.867a21.314,21.314,0,0,0,2.461-9.891q.023-.773.844-.68l2.813.328a2.085,2.085,0,0,1,1.289.281q.117.281-.516.844a1.679,1.679,0,0,0-.633,1.125,7.977,7.977,0,0,1-.281,1.172,1.316,1.316,0,0,0,.469,1.242,6.982,6.982,0,0,0,1.547,1.219q.586.3.586-.281V9.719q0-.586-.562-.586H35.175q-.7,0-.844-.3-.141-.328-.516-.047a2.6,2.6,0,0,1-2.531.07q-1.734-1.523.07-3.141a7.958,7.958,0,0,1,.937-.609,3.114,3.114,0,0,0,1.359-1.8q.141-.7.352-.727.234,0,.445.7l.094.4q.117.633.633.633h3.563q.586,0,.586-.562Zm8.789,4.148q.141-.609-.4-.609h-12.4q-.562,0-.539.7a4.651,4.651,0,0,1-.3,2.461q-.3.422.3.422H44.925A1.654,1.654,0,0,0,46.1,7.8l.773-.937q.609-.7.82-.539.188.188.375-.586Zm29.737-4.5q.516-.656,1.219-.07.586.445,1.172.961.633.539.422.82a1.219,1.219,0,0,1-.961.3H74.17q-.586,0-.586.563V4.75q0,.586.563.586h.563q.563.211,1.5-.8a1.086,1.086,0,0,1,1.406-.047L79.256,5.57a2.959,2.959,0,0,1,.68.68q-.023.117-.4.375a.7.7,0,0,0-.445.7v3.141q0,.7-.328.773-.328.094.4.727l1.172.984q.7.609.445.914a1.244,1.244,0,0,1-.984.328H77.662a1.238,1.238,0,0,0-1.008.7q-.609,1.008-1.312,2.016-.375.563.328.727a6.935,6.935,0,0,1,2.578,1.266,2.131,2.131,0,0,1,.539,2.813q-1.008,1.477-2.2,1.008a5.956,5.956,0,0,1-1.875-1.43q-.7-.539-1.406-.984a1.241,1.241,0,0,0-1.406.141,13.826,13.826,0,0,1-3.75,1.594,36.388,36.388,0,0,1-8.156.961q-.7,0-.727-.187,0-.164.773-.281a18.568,18.568,0,0,0,8.742-3.4q.609-.586.047-.8-1.078-.375-2.18-.656-.562-.141-1.078.609l-.328.469q-.562.867-1.289.656l-2.414-.7q-.68-.211-.211-.914l2.063-3q.445-.609-.117-.609H59.5q-.7,0-.82-.258-.187-.375.445-.375h4.57a1.4,1.4,0,0,0,1.078-.7l1.008-1.477q.352-.562-.211-.562H64.42q-.586,0-.586.375t-.7.492q-1.172.141-2.344.352-.7.07-.7-.633V4.82q0-.7.7-.492l1.641.539a4.479,4.479,0,0,0,2.086.469q.75,0,.75-.562V3.625q0-.586-.562-.586H59.78q-.7,0-.844-.258-.164-.352.492-.352H76.092Q76.772,2.711,77.85,1.023Zm-7.734,2.6q0-.586-.68-.586-.727,0-.727.563V4.75q0,.586.68.586.727,0,.727-.562ZM65.264,6.531q0-.586-.7-.586-.727,0-.727.563V9.6q0,.586.7.586.727,0,.727-.562Zm4.852,0q0-.586-.68-.586-.727,0-.727.563V9.6q0,.586.68.586.727,0,.727-.562Zm5.156,0q0-.586-.562-.586H74.17q-.586,0-.586.563V9.6q0,.586.563.586h.539q.586,0,.586-.562Zm0,4.781q-.023-.492-.562-.492h-5.32q-.8,0-.047.234a1.44,1.44,0,0,1,1.242.68q-.023.094-.516.375a1.843,1.843,0,0,0-.984.82q-.445.633.07.633h6.539a1.722,1.722,0,0,0,1.2-.7l.844-.984q.445-.516-.352-.422-.867.094-1.734.258Q75.272,11.758,75.272,11.313ZM72.2,14.828q.375-.633-.141-.633H68.85a1.346,1.346,0,0,0-1.055.7q-.422.586-.773,1.172-.445.656.258.727l2.813.188a1.2,1.2,0,0,0,1.078-.609Q71.733,15.6,72.2,14.828ZM97.791,1.352q.164-.82.75-.68l3.563.82q.422.07.492.352.094.234-.445.492a1.852,1.852,0,0,0-.586.492l-.633,1.008q-.352.563.211.563h2.742a1.654,1.654,0,0,0,1.172-.7l.773-.937a.845.845,0,0,1,1.313-.141l1.406,1.172q.68.633.445.891a1.176,1.176,0,0,1-.937.328H100.72a1.654,1.654,0,0,0-1.172.7A26.792,26.792,0,0,1,96.2,8.945a1.339,1.339,0,0,0-.633,1.008v7.453a.752.752,0,0,1-.7.82l-1.641.188q-.82.094-.82-.609V16.469q0-.586-.492-.586-.539,0-.539.563V18.18a.723.723,0,0,1-.7.8l-1.641.188q-.844.094-.844-.609V3.32q0-.7.7-.422,1.055.422,2.109.914A2.123,2.123,0,0,0,91.908,4a1.808,1.808,0,0,0,1.172-.656,1.086,1.086,0,0,1,1.406-.234l1.945,1.242q.234.352-.445.727a.946.946,0,0,0-.422.844v1.57q0,.8.4-.023A24.422,24.422,0,0,0,97.791,1.352ZM92.4,5.242q0-.609-.492-.609-.539,0-.539.563v9.469q0,.586.492.586.539,0,.539-.562Zm10.617,2.7q.727-.75,1.383-.3,1.266.8,2.531,1.664.492.281.445.656-.07.516-.7.492a1.578,1.578,0,0,0-1.008.727l-2.531,3.75a9.049,9.049,0,0,0-1.781,3.516q.141.75,1.031.563h2.461a1.649,1.649,0,0,0,1.313-.844l.891-2.3q.281-.7.445-.7.258,0,.258.656v1.547a1.463,1.463,0,0,0,.984,1.172q.82.164.656.938a6.629,6.629,0,0,1-.656,1.711,2.215,2.215,0,0,1-2.039,1.2H98.634q-2.836-.164-2.766-2.461a9.107,9.107,0,0,1,1.828-3.75l3.891-5.906q.352-.562-.211-.562H97.439q-.7,0-.867-.328-.117-.328.586-.328H101.4a1.866,1.866,0,0,0,1.242-.7Zm16.144-6.516q0-.7.68-.656l1.641.141a10.977,10.977,0,0,1,1.828.188q.727.3-.117.82a.826.826,0,0,0-.352.773v2.25q0,.727.469.07.445-.68,1.125.023l.68.773q.563.563.891.563h2.32q.586,0,.586-.562V1.633a.6.6,0,0,1,.7-.68l3.516.281a2.079,2.079,0,0,1,.8.258q.375.375-.352.75a.951.951,0,0,0-.539.867V5.781q0,.586.352.586.375,0,.961-.7l.8-.984q.609-.773,1.266-.211L138,5.828q.609.563.352.844a1.3,1.3,0,0,1-.984.3h-11.3q-.7,0-.773-.117a3.186,3.186,0,0,1-.656.023h-1.219q-.586,0-.586.563v2.672q0,.586.727.328l1.125-.422q.7-.3.773-.094.047.234-.7.867l-1.336,1.078a1.374,1.374,0,0,0-.586,1.031v7.922a2.092,2.092,0,0,1-1.242,1.688,5.665,5.665,0,0,1-2.273.469.671.671,0,0,1-.773-.68,6.944,6.944,0,0,0-.328-1.641,2.653,2.653,0,0,0-.75-.914q-.773-.516-.75-.7.023-.141.727-.141h1.125q.586,0,.586-.562V15.766q0-.562-.7-.023l-.375.328a3.794,3.794,0,0,1-.656.844q-.4-.047-.516-.656l-.75-3.281a.614.614,0,0,1,.539-.844q.914-.117,1.828-.328.633-.117.633-.633v-3.7q0-.586-.562-.586h-1.43q-.7,0-.82-.258-.187-.375.445-.375h1.781q.586,0,.586-.562Zm14.2,6.867q.141-.75.8-.516l3.469,1.266a3.4,3.4,0,0,1,.891.445q.375.586-.562.727a1.238,1.238,0,0,0-.961.773l-4.5,10.078q-.211.563.375.563a1.613,1.613,0,0,0,1.2-.7l.914-1.172a.792.792,0,0,1,1.266-.164l1.664,1.406q.75.633.469.938a1.271,1.271,0,0,1-1.008.352H125.137q-.7,0-.844-.328t.563-.328h5.414q.563,0,.727-.7Q132.145,14.617,133.364,8.289Zm-7.078,0q.164-.07.68.633a21.012,21.012,0,0,1,3.375,7.266,11.17,11.17,0,0,1,.141,1.9A2.166,2.166,0,0,1,128.02,20.1a1.906,1.906,0,0,1-1.734-1.617,7.185,7.185,0,0,1,.234-1.992,13.684,13.684,0,0,0-.164-7.477Q126.122,8.313,126.286,8.289Zm22.589-6.914q0-.75.656-.727l2.531.188q.8.188.188.656a.606.606,0,0,0-.375.609q0,.469.4.469.469.234,1.219-.937a.846.846,0,0,1,1.313-.023q1.148,1.172,1.734.961h6.445q.586.281,1.453-.937a.926.926,0,0,1,1.359-.187l.7.563q.7.563.539.891-.211.328-.914.328h-3.141a2.014,2.014,0,0,0-1.266.633l-1.43,1.289q-.516.539.047.539h3.023a1.471,1.471,0,0,0,1.008-.4q.4-.352,1.148.117a5.489,5.489,0,0,1,1.313.938q.023.141-.258.352-.281.141-.281.7v9.844a.752.752,0,0,1-.7.82l-1.008.164q-.8.117-.8-.281,0-.516-.562-.516h-4.758q-.586,0-.586.3t-.7.422a7.86,7.86,0,0,0-1.031.164q-.8.164-.8-.492v-6.3q.047-1.242-.539.164a3.46,3.46,0,0,0-.234.75q-.164.75-.867.188a5.81,5.81,0,0,1-1.523-1.992q-.3-.68-.3.07v1.1a.738.738,0,0,1-.656.82q-.68.047-.656.211-.023.141-.328.4a.95.95,0,0,0-.469.328q-.094.188.633.188a1.773,1.773,0,0,0,1.289-.562.889.889,0,0,1,1.266-.07l1.641,1.148q.961.492.164.984-.211.07-.516.609-.516.938-1.125,1.875-.445.633.117.82a22.785,22.785,0,0,0,3.188.352h10.1q.7,0,.727.234a2.294,2.294,0,0,1-.539.938,4.445,4.445,0,0,0-.445,1.688.7.7,0,0,1-.773.7h-9.07a10.124,10.124,0,0,1-5.156-1.477,1.174,1.174,0,0,0-1.406.047,14.649,14.649,0,0,1-4.219,1.523q-.8.164-.844-.023-.047-.117.75-.586a12.537,12.537,0,0,0,2.836-2.508,1.147,1.147,0,0,0,.023-1.406,12.825,12.825,0,0,1-.586-1.242q-.211-.562-.773-.023-.7.633-1.406,1.148t-.82.469a2.48,2.48,0,0,1,.375-.82,15.871,15.871,0,0,0,1.688-4.734q.141-.562-.656-.117l-.609.3q-.727.352-.8.164t.563-.82a22.527,22.527,0,0,0,2.273-2.812q.492-.75.258-.727-.633.023-.68-.891-.117-.539-.7.234A13.092,13.092,0,0,1,145.5,9.414q-.82.82-.82.539.914-3.117,1.383-5.578.188-.914.891-.609.68.258,1.359.586.563.211.563-.445,0-.68-.562-.68h-2.555q-.7,0-.867-.328-.117-.328.586-.328h2.813q.586,0,.586-.562Zm9.867,2.508q.117-.656-.375-.656h-5.906q-.586,0-.586.563V6.18q0,.8.258.047l.586-2.016q.211-.75,1.031-.375l.938.422a1.8,1.8,0,0,1,.82.492.661.661,0,0,0,.328.352l.938.328a1.768,1.768,0,0,0,1.148.258q.469,0,.609-.7A9.734,9.734,0,0,1,158.742,3.883Zm-3.4,1.641q0-.492-.211-.469-.164.047-.586.586-.422.516.3,1.008.773.656.07,1.711a1.063,1.063,0,0,1-.656.469q-.328.164-.562-.422l-.187-.8q-.164-.609-.773.047-.609.586.094,1.172a6.836,6.836,0,0,0,1.852.844q.656.117.656-.375Zm-6.609-.375q-.211.047-.586.609-.422.633.047.844a2.032,2.032,0,0,1,.492.469q.188.281.188-.469V5.711Q148.875,5.148,148.734,5.148Zm9.8,1.828q0-.633-.281-.633-.375,0-.375.563v9.258q0,.586.3.586.352,0,.352-.562Zm2.625,0q0-.633-.281-.633-.375,0-.375.563V8.664q0,.586.3.586.352,0,.352-.562Zm2.625,0q0-.633-.281-.633-.375,0-.375.563v9.258q0,.586.3.586.352,0,.352-.562Zm-2.625,3.516q0-.609-.3-.609-.352,0-.352.563v1.781q0,.586.3.586.352,0,.352-.562Zm-12.281,1.125q0-.633-.68-.094-.68.445,0,.586T148.875,11.617Zm12.281,2.438q0-.586-.3-.586-.352,0-.352.563v2.133q0,.586.3.586.352,0,.352-.562Zm-10.359.938q.211-.586-.352-.586h-.656a1.326,1.326,0,0,0-1.031.586.9.9,0,0,0,.07,1.289,3.294,3.294,0,0,0,.422.4q.563.469.938-.281Zm32.175-11.6a9.291,9.291,0,0,1,5.883.094q3.844,1.758,2.813,5.578a4.459,4.459,0,0,1-3.3,2.578,12.454,12.454,0,0,1-1.523.281.546.546,0,0,0-.562.609v2.25q0,.727-.539.727-.562,0-.562-.7V11.57a.814.814,0,0,1,.7-.867,2.321,2.321,0,0,0,1.547-.984,5.681,5.681,0,0,0,.469-2.812,3.633,3.633,0,0,0-1.336-2.766,2.761,2.761,0,0,0-2.93.141q-1.523,1.172.047,2.273a2.571,2.571,0,0,1,.422,1.711,1.956,1.956,0,0,1-.8,1.359,2.128,2.128,0,0,1-3.234-1.031Q178.988,5.289,182.972,3.391ZM183.98,16.7a2.41,2.41,0,0,1,2.859-.422,2.368,2.368,0,0,1,1.2,1.758,2.243,2.243,0,0,1-.539,1.875,2.435,2.435,0,0,1-2.227.844,2.284,2.284,0,0,1-1.969-2.648A2.211,2.211,0,0,1,183.98,16.7Z" transform="translate(91 1208)" fill="#534741"/>
    <line id="直线_7" data-name="直线 7" x1="51" transform="translate(206.5 1186.5)" fill="none" stroke="#534741" stroke-width="1"/>
  </g>
</svg>
