<svg xmlns="http://www.w3.org/2000/svg" width="60.805" height="233.384" viewBox="0 0 60.805 233.384">
  <g id="title-lg-4" transform="translate(-831.68 -2930.616)">
    <path id="路径_57" data-name="路径 57" d="M9.094,1.375q.469-.844,1.125-.75l3.492.563a1.385,1.385,0,0,1,1.359.68,2.841,2.841,0,0,1-.727.563.635.635,0,0,0,0,1.125,20.693,20.693,0,0,0,8.438,3.469q.7.188.7.422,0,.258-.7.773a5.793,5.793,0,0,0-1.547,3.094q-.164.7-.867.352a21.8,21.8,0,0,1-2.18-1.312q-.539-.375-.7-.211-.094.141-.8.141H7.547q-.7,0-.844-.328t.563-.328H12.8a1.588,1.588,0,0,0,1.148-.7l.516-.656A.921.921,0,0,0,14.438,7a16.6,16.6,0,0,1-1.406-2.273q-.3-.562-.891.047A21.4,21.4,0,0,1,1.617,11.547q-.68.211-.773.094t.656-.727A28.526,28.526,0,0,0,9.094,1.375Zm7.242,11.156a1.235,1.235,0,0,1,1.477-.164l2.555,1.547q1.2.656.258,1.148l-.937.3a.724.724,0,0,0-.422.258l-3.727,6.563a1.041,1.041,0,0,1-1.125.609q-1.641-.328-3.281-.586-.7-.141-.328-.82,1.875-3.258,3.82-6.539Q15,14.2,14.508,14.2H3.984q-.7,0-.82-.258-.187-.375.445-.375H14.367a1.68,1.68,0,0,0,1.031-.352Q15.867,12.836,16.336,12.531Zm2.016,19.844q.656-.844,1.336-.281l1.148.938q.844.727.656,1.055a1,1,0,0,1-.891.352H13.969q-.562,0-.609.7-.047,2.391-.258,5.18-.023.656.445.656h4.313a1.654,1.654,0,0,0,1.172-.7l.8-.914a.839.839,0,0,1,1.313-.094l1.2.984q.844.727.586,1.055a1.134,1.134,0,0,1-.937.328H13.594q-.586,0-.258.727a10.31,10.31,0,0,0,4.852,4.523,24.837,24.837,0,0,0,4.477,1.594q.727.211.727.445,0,.281-.7.867a5.262,5.262,0,0,0-1.359,3.047q-.07.773-.844.4a15.529,15.529,0,0,1-5.367-4.242,17.619,17.619,0,0,1-2.2-4.969q-.234-.609-.4.281a10.888,10.888,0,0,1-1.383,3.609,10.451,10.451,0,0,1-3.516,3.328,20.922,20.922,0,0,1-5.883,2.391q-.727.211-.82-.07t.773-.75a12.875,12.875,0,0,0,6.281-6.937,20.842,20.842,0,0,0,.7-3.656q.07-.586-.492-.586H1.922q-.7,0-.844-.328t.563-.328H8.2q.563,0,.656-.7.164-2.625.211-5.25,0-.586-.562-.586H3.047q-.7,0-.844-.328t.563-.328h13.9a1.524,1.524,0,0,0,1.125-.7Zm-2.32,30.859a.88.88,0,0,1,1.242-.094q.82.516,1.641,1.1,1.547.727.656,1.359a.848.848,0,0,0-.3.75v4.9a.752.752,0,0,1-.7.82l-2.625.375q-.7.07-.7-.7,0-.8-.562-.8H8.766q-.586,0-.586.609t-.7.727l-2.414.328q-.8.117-.8-.516V63.539q0-.7.7-.492l2.578.844a3.4,3.4,0,0,0,1.1.211h5.883Q15.094,64.359,16.031,63.234Zm-.8,2.133q0-.609-.539-.609H8.766q-.586,0-.586.563v1.313q0,.586.563.586h5.906q.586,0,.586-.562Zm0,3.07q0-.586-.562-.586H8.766q-.586,0-.586.563V69.75q0,.586.563.586h5.906q.586,0,.586-.562Zm4.734,3.375a.811.811,0,0,1,1.289-.187l1.125.914q.773.68.563.984a1.093,1.093,0,0,1-.937.328H14.883q-.586,0-.586.563v1.852q0,.586.563.586h.727a1.588,1.588,0,0,0,1.148-.7q.328-.445.75-.914a.8.8,0,0,1,1.289-.07l1.2,1.031q.75.656.563.984a1.167,1.167,0,0,1-.961.328H14.883q-.586,0-.586.563v1.969q0,.586.563.586H22.57q.727,0,.727.258t-.352.492a3.74,3.74,0,0,0-.773,2.18q0,.82-.7.82H13.336q-3.8-.656-5.719-5.227-.258-.586-.656.141a13.58,13.58,0,0,1-5.016,5.133q-.867.516-.984.328-.07-.117.422-.867a21.5,21.5,0,0,0,2.977-8.7q.094-.727.8-.562,1.711.422,3.492.914a.533.533,0,0,1,.492.4.962.962,0,0,1-.7.563,1.05,1.05,0,0,0-.3.422.934.934,0,0,1-.117.3,1.333,1.333,0,0,0,.164,1.266,3.752,3.752,0,0,0,1.711,1.641q.563.211.563-.352V74.438q0-.586-.562-.586h-7.8q-.7,0-.82-.258-.187-.375.445-.375H18.234a1.588,1.588,0,0,0,1.148-.7ZM3.7,94.4q.117-.867.8-.727l2.531.586q.633.164.633-.047,0-.3.82.047l1.875.82a2.028,2.028,0,0,0,1.336.352h6.094q.656.281,1.313-.937a.919.919,0,0,1,1.289-.234q.938.539,1.875,1.148.82.352.164.914a1.27,1.27,0,0,0-.445.938v17.648a.723.723,0,0,1-.7.8l-2.133.234a.578.578,0,0,1-.7-.656v-.562q0-.586-.562-.586H11.625q-.586,0-.586.68a.752.752,0,0,1-.7.82l-1.922.281q-.75.117-.75-.586V96.32q0-.75-.352.094A41.963,41.963,0,0,1,5.461,100.3q-.352.586.375.7a1.936,1.936,0,0,1,.773.281q0,.117-.211.328-.234.164-.234.727v12.563a.723.723,0,0,1-.7.8l-1.969.211q-.8.094-.8-.539V105.016q0-.562-.586.094l-.187.234q-.727.82-.891.7-.117-.094.188-.867A43.722,43.722,0,0,0,3.7,94.4Zm14.742,2.227q0-.586-.562-.586H11.625q-.586,0-.586.563v16.336q0,.586.563.586h6.258q.586,0,.586-.562V101.43q0-.516-.609-.516H16.5q-.586,0-.586.563v1.641q0,.563.211.445.164-.164.914.328l.563.375q.7.492.4.773a.912.912,0,0,0-.328.8v5.039a.752.752,0,0,1-.7.82,6.367,6.367,0,0,0-.914.117q-.7.07-.7-.7,0-.8-.656-.8-.68,0-.68.563v.563a.752.752,0,0,1-.7.82l-.914.141q-.7.07-.7-.633v-7.734q0-.7.7-.422.8.328.8-.211v-1.9q0-.586-.562-.586h-.4q-.7,0-.844-.258-.164-.352.492-.352h.727q.586,0,.586-.562v-2.2a.6.6,0,0,1,.7-.68L15.539,97a2.236,2.236,0,0,1,1.008.258q.047.164-.281.422a.77.77,0,0,0-.352.75v1.336q0,.773.469.07l.188-.3q.539-.82,1.2-.164.68.68.68.094Zm-3.094,8.859a.559.559,0,0,0-.633-.633q-.7,0-.7.563v3.656q0,.586.656.586.68,0,.68-.562Z" transform="translate(869 2930)" fill="#534741"/>
    <line id="直线_1" data-name="直线 1" y2="52" transform="translate(881.5 3052.5)" fill="none" stroke="#534741" stroke-width="1"/>
    <path id="路径_56" data-name="路径 56" d="M11.391,1.352q.164-.82.75-.68l3.563.82q.422.07.492.352.094.234-.445.492a1.852,1.852,0,0,0-.586.492l-.633,1.008q-.352.563.211.563h2.742a1.654,1.654,0,0,0,1.172-.7l.773-.937a.845.845,0,0,1,1.313-.141l1.406,1.172q.68.633.445.891a1.176,1.176,0,0,1-.937.328H14.32a1.654,1.654,0,0,0-1.172.7A26.792,26.792,0,0,1,9.8,8.945a1.339,1.339,0,0,0-.633,1.008v7.453a.752.752,0,0,1-.7.82l-1.641.188Q6,18.508,6,17.8V16.469q0-.586-.492-.586-.539,0-.539.563V18.18a.723.723,0,0,1-.7.8l-1.641.188q-.844.094-.844-.609V3.32q0-.7.7-.422,1.055.422,2.109.914A2.123,2.123,0,0,0,5.508,4,1.808,1.808,0,0,0,6.68,3.344a1.086,1.086,0,0,1,1.406-.234l1.945,1.242q.234.352-.445.727a.946.946,0,0,0-.422.844v1.57q0,.8.4-.023A24.422,24.422,0,0,0,11.391,1.352ZM6,5.242q0-.609-.492-.609-.539,0-.539.563v9.469q0,.586.492.586Q6,15.25,6,14.688Zm10.617,2.7q.727-.75,1.383-.3,1.266.8,2.531,1.664.492.281.445.656-.07.516-.7.492a1.578,1.578,0,0,0-1.008.727l-2.531,3.75a9.049,9.049,0,0,0-1.781,3.516q.141.75,1.031.563h2.461a1.649,1.649,0,0,0,1.313-.844l.891-2.3q.281-.7.445-.7.258,0,.258.656v1.547a1.463,1.463,0,0,0,.984,1.172q.82.164.656.938a6.629,6.629,0,0,1-.656,1.711,2.215,2.215,0,0,1-2.039,1.2H12.234Q9.4,22.211,9.469,19.914a9.107,9.107,0,0,1,1.828-3.75l3.891-5.906q.352-.562-.211-.562H11.039q-.7,0-.867-.328-.117-.328.586-.328H15a1.866,1.866,0,0,0,1.242-.7ZM3.961,32.422q0-.7.68-.656l1.641.141a10.977,10.977,0,0,1,1.828.188q.727.3-.117.82a.826.826,0,0,0-.352.773v2.25q0,.727.469.07.445-.68,1.125.023l.68.773q.563.563.891.563h2.32q.586,0,.586-.562V32.633a.6.6,0,0,1,.7-.68l3.516.281a2.079,2.079,0,0,1,.8.258q.375.375-.352.75a.951.951,0,0,0-.539.867v2.672q0,.586.352.586.375,0,.961-.7l.8-.984q.609-.773,1.266-.211L22.8,36.828q.609.563.352.844a1.3,1.3,0,0,1-.984.3h-11.3q-.7,0-.773-.117a3.186,3.186,0,0,1-.656.023H8.227q-.586,0-.586.563v2.672q0,.586.727.328l1.125-.422q.7-.3.773-.094.047.234-.7.867L8.227,42.875a1.374,1.374,0,0,0-.586,1.031v7.922A2.092,2.092,0,0,1,6.4,53.516a5.665,5.665,0,0,1-2.273.469.671.671,0,0,1-.773-.68,6.944,6.944,0,0,0-.328-1.641,2.653,2.653,0,0,0-.75-.914q-.773-.516-.75-.7.023-.141.727-.141H3.375q.586,0,.586-.562V46.766q0-.562-.7-.023l-.375.328a3.794,3.794,0,0,1-.656.844q-.4-.047-.516-.656l-.75-3.281a.614.614,0,0,1,.539-.844q.914-.117,1.828-.328.633-.117.633-.633v-3.7q0-.586-.562-.586H1.969q-.7,0-.82-.258-.187-.375.445-.375H3.375q.586,0,.586-.562Zm14.2,6.867q.141-.75.8-.516l3.469,1.266a3.4,3.4,0,0,1,.891.445q.375.586-.562.727a1.238,1.238,0,0,0-.961.773L17.3,52.063q-.211.563.375.563a1.613,1.613,0,0,0,1.2-.7l.914-1.172a.792.792,0,0,1,1.266-.164l1.664,1.406q.75.633.469.938a1.271,1.271,0,0,1-1.008.352H9.938q-.7,0-.844-.328t.563-.328H15.07q.563,0,.727-.7Q16.945,45.617,18.164,39.289Zm-7.078,0q.164-.07.68.633a21.012,21.012,0,0,1,3.375,7.266,11.17,11.17,0,0,1,.141,1.9A2.166,2.166,0,0,1,12.82,51.1a1.906,1.906,0,0,1-1.734-1.617,7.185,7.185,0,0,1,.234-1.992,13.684,13.684,0,0,0-.164-7.477Q10.922,39.313,11.086,39.289ZM4.875,63.375q0-.75.656-.727l2.531.188q.8.188.188.656a.606.606,0,0,0-.375.609q0,.469.4.469.469.234,1.219-.937a.846.846,0,0,1,1.313-.023q1.148,1.172,1.734.961h6.445q.586.281,1.453-.937a.926.926,0,0,1,1.359-.187l.7.563q.7.563.539.891-.211.328-.914.328H18.984a2.014,2.014,0,0,0-1.266.633l-1.43,1.289q-.516.539.047.539h3.023a1.471,1.471,0,0,0,1.008-.4q.4-.352,1.148.117a5.489,5.489,0,0,1,1.313.938q.023.141-.258.352-.281.141-.281.7v9.844a.752.752,0,0,1-.7.82l-1.008.164q-.8.117-.8-.281,0-.516-.562-.516H14.461q-.586,0-.586.3t-.7.422a7.86,7.86,0,0,0-1.031.164q-.8.164-.8-.492v-6.3q.047-1.242-.539.164a3.46,3.46,0,0,0-.234.75q-.164.75-.867.188A5.81,5.81,0,0,1,8.18,72.633q-.3-.68-.3.07v1.1a.738.738,0,0,1-.656.82q-.68.047-.656.211-.023.141-.328.4a.95.95,0,0,0-.469.328q-.094.188.633.188a1.773,1.773,0,0,0,1.289-.562.889.889,0,0,1,1.266-.07l1.641,1.148q.961.492.164.984-.211.07-.516.609-.516.938-1.125,1.875-.445.633.117.82a22.785,22.785,0,0,0,3.188.352h10.1q.7,0,.727.234a2.294,2.294,0,0,1-.539.938,4.445,4.445,0,0,0-.445,1.688.7.7,0,0,1-.773.7h-9.07a10.124,10.124,0,0,1-5.156-1.477,1.174,1.174,0,0,0-1.406.047,14.649,14.649,0,0,1-4.219,1.523q-.8.164-.844-.023-.047-.117.75-.586a12.537,12.537,0,0,0,2.836-2.508,1.147,1.147,0,0,0,.023-1.406A12.825,12.825,0,0,1,3.82,78.8q-.211-.562-.773-.023-.7.633-1.406,1.148t-.82.469a2.48,2.48,0,0,1,.375-.82,15.871,15.871,0,0,0,1.688-4.734q.141-.562-.656-.117l-.609.3q-.727.352-.8.164t.563-.82a22.527,22.527,0,0,0,2.273-2.812q.492-.75.258-.727-.633.023-.68-.891-.117-.539-.7.234A13.092,13.092,0,0,1,1.5,71.414q-.82.82-.82.539.914-3.117,1.383-5.578.188-.914.891-.609.68.258,1.359.586.563.211.563-.445,0-.68-.562-.68H1.758q-.7,0-.867-.328-.117-.328.586-.328H4.289q.586,0,.586-.562Zm9.867,2.508q.117-.656-.375-.656H8.461q-.586,0-.586.563V68.18q0,.8.258.047l.586-2.016q.211-.75,1.031-.375l.938.422a1.8,1.8,0,0,1,.82.492.661.661,0,0,0,.328.352l.938.328a1.768,1.768,0,0,0,1.148.258q.469,0,.609-.7A9.734,9.734,0,0,1,14.742,65.883Zm-3.4,1.641q0-.492-.211-.469-.164.047-.586.586-.422.516.3,1.008.773.656.07,1.711a1.063,1.063,0,0,1-.656.469q-.328.164-.562-.422l-.187-.8q-.164-.609-.773.047-.609.586.094,1.172a6.836,6.836,0,0,0,1.852.844q.656.117.656-.375Zm-6.609-.375q-.211.047-.586.609-.422.633.047.844a2.032,2.032,0,0,1,.492.469q.188.281.188-.469v-.891Q4.875,67.148,4.734,67.148Zm9.8,1.828q0-.633-.281-.633-.375,0-.375.563v9.258q0,.586.3.586.352,0,.352-.562Zm2.625,0q0-.633-.281-.633-.375,0-.375.563v1.758q0,.586.3.586.352,0,.352-.562Zm2.625,0q0-.633-.281-.633-.375,0-.375.563v9.258q0,.586.3.586.352,0,.352-.562Zm-2.625,3.516q0-.609-.3-.609-.352,0-.352.563v1.781q0,.586.3.586.352,0,.352-.562ZM4.875,73.617q0-.633-.68-.094-.68.445,0,.586T4.875,73.617Zm12.281,2.438q0-.586-.3-.586-.352,0-.352.563v2.133q0,.586.3.586.352,0,.352-.562ZM6.8,76.992q.211-.586-.352-.586H5.789a1.326,1.326,0,0,0-1.031.586.9.9,0,0,0,.07,1.289,3.294,3.294,0,0,0,.422.4q.563.469.938-.281ZM4.664,94.281q.141-.75.8-.633l2.555.469A2.828,2.828,0,0,1,9.07,94.4q.445.469-.141.75a2.364,2.364,0,0,0-.914.633q-.937,1.031-1.969,1.969-.609.586-.047.586h.961a1.775,1.775,0,0,0,1.2-.633.959.959,0,0,1,1.336-.164q.82.516,1.641,1.1,1.055.539.141,1.1-.141.07-.141.609v2.32q0,.539.211-.094a59.158,59.158,0,0,0,1.125-8.18q.094-.867.844-.7,1.781.445,3.563.8a.942.942,0,0,1,.75.469q0,.188-.445.516a1.283,1.283,0,0,0-.75.867l-.445,1.125q-.3.75.258.75h1.781q.563.258,1.5-.891a1.173,1.173,0,0,1,1.57-.211l2.18,1.523q.422.586-.258.891a.739.739,0,0,0-.516.727,84.544,84.544,0,0,1-.492,9.609,12.658,12.658,0,0,1-1.055,4.688,2.2,2.2,0,0,1-1.289,1.031,10.921,10.921,0,0,1-2.344.422q-.727,0-.727-.844l-.141-.937a2.315,2.315,0,0,0-1.828-1.781q-.75-.187-.75-.445,0-.281.7-.281H17.3q.563,0,.7-.7a76.449,76.449,0,0,0,.75-11.578q0-.586-.562-.586H15.961a1.09,1.09,0,0,0-.937.7,17.236,17.236,0,0,1-.914,1.641.711.711,0,0,0,.234,1.125A4.927,4.927,0,0,1,16.852,106a2.119,2.119,0,0,1-.867,2.18,1.715,1.715,0,0,1-1.875.117q-.82-1.008-.586-3.68a9,9,0,0,0-.234-1.266q-.187-.586-.727.141l-.891,1.219a1.81,1.81,0,0,0-.539,1.172v7.43a.752.752,0,0,1-.7.82q-1.055.094-2.133.281-.7.07-.7-.633v-1.687q0-.586-.562-.586H5.813q-.586,0-.586.563v1.641a.782.782,0,0,1-.7.844q-.961.117-1.945.3-.8.117-.8-.516V97.914q0-.7.7-.492l1.008.328q.563.211.68-.539Q4.383,95.758,4.664,94.281Zm2.93,5.25q0-.586-.562-.586H5.813q-.586,0-.586.563v4.242q0,.586.563.586H7.008q.586,0,.586-.562Zm0,6q0-.586-.562-.586H5.813q-.586,0-.586.563v4.758q0,.586.563.586H7.008q.586,0,.586-.562ZM18.539,125.3a1.021,1.021,0,0,1,1.406-.234q1.289.867,2.578,1.8a1.074,1.074,0,0,1,.563.7q.023.7-.867.492a1.872,1.872,0,0,0-1.1.328L18.3,130.273q-.75.492-.07.563.7.234.727.375,0,.141-.445.516a.928.928,0,0,0-.492.82v1.617q0,.563.234.586.234-.023.82-.727.375-.492.82-.984a.809.809,0,0,1,1.289-.117l1.406,1.172q.773.656.516.961a1.271,1.271,0,0,1-1.008.352H18.609q-.586,0-.586.563v8.719a2.263,2.263,0,0,1-1.148,1.758,7.153,7.153,0,0,1-2.508.563.791.791,0,0,1-.891-.7,2.9,2.9,0,0,0-1.289-2.461q-.891-.445-.891-.656.023-.187.727-.187h1.5q.586,0,.586-.562v-6.445q0-.586-.562-.586H11.438q-.562,0-.7.7a19.277,19.277,0,0,1-1.125,3.867q-.234.563.4,1.266a3.016,3.016,0,0,1,.727,3.094q-.82,1.523-2.18.82A2.891,2.891,0,0,1,7.406,144.1q-.234-.516-.984.117A15.449,15.449,0,0,1,1.9,146.633q-.82.281-.937.07-.07-.141.656-.656a12.365,12.365,0,0,0,4.008-4.664,1.2,1.2,0,0,0-.281-1.266q-.562-.609-.68.164-.094.656-.867.539l-2.016-.234a.669.669,0,0,1-.656-.891q.633-4.125,1.336-8.25.07-.562-.586-.562-.68,0-.8-.258-.187-.375.445-.375h.586q.563,0,.7-.7.3-2.109.68-4.219a.61.61,0,0,1,.82-.562l2.813.586a3.186,3.186,0,0,1,.773.4q.023.422-.516.586a1.153,1.153,0,0,0-.539.867q-.234,1.242-.4,2.484-.07.563.469.563.609.281,1.43-.937a.958.958,0,0,1,1.359-.258q.938.656,1.875,1.383.82.375.141.938a1.148,1.148,0,0,0-.492.961l-.187,1.852q-.047.563.516.563h1.969q.586,0,.586-.562v-2.93a.6.6,0,0,1,.7-.68l.656.047q.609.094.891-.609.469-1.242,1.031-2.508.258-.656-.234-.656H11.742q-.7,0-.844-.328t.563-.328h5.625a1.621,1.621,0,0,0,1.125-.562ZM7.594,131.469q.023-.586-.656-.586a.77.77,0,0,0-.82.7l-1.2,6.891a2.163,2.163,0,0,0,.8.3q.727.258.914-.445A35.621,35.621,0,0,0,7.594,131.469Zm-4.687,25.07q0-.7.68-.422L7.1,157.664a2.115,2.115,0,0,0,.82.117h7.922q.656.281,1.617-1.219.633-.75,1.313-.328,1.266.75,2.531,1.57.984.469.094,1.148a1.245,1.245,0,0,0-.516.984v16.8a.723.723,0,0,1-.7.8q-1.406.117-2.836.3-.75.07-.75-.609v-1.641q0-.586-.562-.586H7.617q-.586,0-.586.563v.984a.752.752,0,0,1-.7.82L3.75,177.7q-.844.094-.844-.609Zm13.688,2.508q0-.609-.539-.609H7.617q-.586,0-.586.563v6.258q0,.586.563.586h8.414q.586,0,.586-.562Zm0,8.086q0-.633-.516-.633H7.617q-.586,0-.586.563v6.75q0,.586.563.586h8.414q.586,0,.586-.562Zm-.656,20.148q.727-.727,1.406-.281,1.617,1.078,3.3,2.32.727,1.172-.773,1.055a2.2,2.2,0,0,0-1.148.281q-1.852,1.1-3.727,2.273-.68.4-.539.422.82.188.047.844a.865.865,0,0,0-.375.8v1.43q0,.586.563.586h3.258a1.654,1.654,0,0,0,1.172-.7l.8-.984a.8.8,0,0,1,1.289-.164l1.594,1.336q.609.516.352.82a1.271,1.271,0,0,1-1.008.352h-7.43q-.586,0-.586.563v8.367a1.829,1.829,0,0,1-1.008,1.969,9.091,9.091,0,0,1-3.047.445.782.782,0,0,1-.844-.7,4.089,4.089,0,0,0-2.414-3.094q-.844-.328-.82-.516.023-.164.727-.164H9.445q.586,0,.586-.562V198.25q0-.586-.562-.586H1.852q-.7,0-.867-.328-.117-.328.586-.328H9.445q.586,0,.586-.562v-2.719a.621.621,0,0,1,.7-.7l1.125.094a1.138,1.138,0,0,0,1.031-.586q.8-1.477,1.688-2.953.352-.633-.164-.633H4.383q-.7,0-.844-.258-.164-.352.492-.352H14.344Q14.906,188.641,15.938,187.281Z" transform="translate(831 2942)" fill="#534741"/>
    <g id="椭圆_1" data-name="椭圆 1" transform="translate(848 3157)" fill="none" stroke="#534741" stroke-width="1">
      <circle cx="3.5" cy="3.5" r="3.5" stroke="none"/>
      <circle cx="3.5" cy="3.5" r="3" fill="none"/>
    </g>
  </g>
</svg>
