<svg xmlns="http://www.w3.org/2000/svg" width="190.895" height="57.501" viewBox="0 0 190.895 57.501"><defs><style>.a{fill:#534741;}.b{fill:none;stroke:#534741;}</style></defs><g transform="translate(-91.991 -490.484)"><path class="a" d="M9.117,1.469Q9.3.531,9.984.7q1.992.516,3.984,1.1.516.469-.352.75-.375.117-.68.82l-.516,1.219q-.258.633.234.633h.984a1.614,1.614,0,0,0,1.031-.375l.258-.211a1.207,1.207,0,0,1,1.406-.187l1.617.914q.7.492.7.586-.047.375-.539.492-.375.094-.609.8l-.422,1.313q-.164.563-.047.609.117-.023.609-.727.563-.773,1.242-.234l1.148.891a2.667,2.667,0,0,1,.68.633q-.047.445-.633.609a1.2,1.2,0,0,0-.656.891l-.117.469q-.094.633.422.141a.865.865,0,0,1,1.172-.07L23.3,13.4q.492.7-.4.961a.7.7,0,0,0-.4.727,23.409,23.409,0,0,1-.328,4.125,6.018,6.018,0,0,1-.937,2.813,2.812,2.812,0,0,1-.937.586,12.273,12.273,0,0,1-2.484.3q-.727,0-.727-.8A2.271,2.271,0,0,0,15.3,19.8q-.75-.187-.75-.422,0-.281.7-.281h2.2q.563,0,.773-.7a20.8,20.8,0,0,0,.422-4.2.5.5,0,0,0-.562-.562H6.891a2.014,2.014,0,0,0-1.266.633,23.673,23.673,0,0,1-3.8,2.789q-.773.445-.891.328-.164-.187.469-.82A27.506,27.506,0,0,0,7.758,6.414q.141-.562-.422-.562H2.813q-.7,0-.844-.258-.164-.375.469-.375h2.32q.609,0,.258-.234A1.827,1.827,0,0,1,4.57,3.906a3.263,3.263,0,0,0-.586-1.875q-.68-.75-.539-.937.164-.187.914.023.938.258,1.875.609a2.411,2.411,0,0,1,1.336.914A1.793,1.793,0,0,1,7.313,4.75q-.492.469.141.469a.892.892,0,0,0,.891-.7Q8.789,2.992,9.117,1.469Zm4.969,4.969q.188-.586-.375-.586H12.422a1.09,1.09,0,0,0-.937.7l-1.1,2.016q-.375.586.211.586h1.992q.563,0,.82-.7Q13.711,7.445,14.086,6.438ZM15.82,10.4q.164-.609-.375-.609H10.172a1.4,1.4,0,0,0-1.078.7,13.488,13.488,0,0,1-1.547,1.9q-.562.586.023.586h6.961q.563,0,.773-.7ZM13.57,14.43q.164-.211.8-.094a6.256,6.256,0,0,1,3.445,1.477,1.206,1.206,0,0,1,.164,1.406q-.727,1.688-2.016,1.125a2.587,2.587,0,0,1-.586-.914,4.661,4.661,0,0,0-1.242-2.344Q13.523,14.477,13.57,14.43Zm-3.352.375q.117-.211.75,0,.82.3,1.641.68a2.311,2.311,0,0,1,1.594,3q-.8,1.5-2.133.867a1.673,1.673,0,0,1-.727-1.359,4.76,4.76,0,0,0-.656-2.344Q10.148,14.945,10.219,14.8ZM6.8,15.3q.164-.234.82.07,2.531,1.172,2.648,2.836a2.165,2.165,0,0,1-.75,2.227,2.807,2.807,0,0,1-.937.328q-.3.094-.609-.281A3.615,3.615,0,0,1,7.5,18.742a6.828,6.828,0,0,0-.492-2.578Q6.68,15.461,6.8,15.3Zm-1.781.891q.164-.7.328-.75.211,0,.352.727.68,3.328-.047,4.5a2.641,2.641,0,0,1-2.836.727A1.325,1.325,0,0,1,1.9,20.148q0-1.289,1.992-2.391A2.767,2.767,0,0,0,5.016,16.188ZM32.4,1.563q.164-.937.82-.8l3.469.773a2.654,2.654,0,0,1,.82.281q.352.492-.422.8a1.7,1.7,0,0,0-.75.844,28.488,28.488,0,0,1-2.367,4.031q-.422.539.211.68.633.281.633.375a1.312,1.312,0,0,1-.234.328.934.934,0,0,0-.234.75V21.648a.723.723,0,0,1-.7.8l-2.109.188q-.82.07-.82-.633V11.922q0-.609-.7.07l-.375.375q-.891.8-1.078.7T28.8,12.2A35.15,35.15,0,0,0,32.4,1.563ZM41.5,1.539a.6.6,0,0,1,.68-.68l3.516.234a1.018,1.018,0,0,1,.938.445q0,.117-.469.609a.948.948,0,0,0-.562.867V7.844q0,.563.211.586.188,0,.8-.75.375-.516.82-1.031.609-.773,1.266-.211.8.633,1.594,1.336.727.656.469.961a1.388,1.388,0,0,1-1.008.3H46.186q-.586,0-.586.563V21.438a.752.752,0,0,1-.7.82l-2.578.352Q41.5,22.7,41.5,22V9.625q0-.586-.562-.586H36.787q-.7,0-.844-.258-.164-.352.492-.352h4.477q.586,0,.586-.562Zm24.366-.352a.624.624,0,0,1,.68-.7Q67.552.508,68.63.6a5.94,5.94,0,0,1,1.711.188q.445.328-.117.656a.77.77,0,0,0-.445.727q0,.609.563.609h2.883a1.654,1.654,0,0,0,1.172-.7l.8-.914A.851.851,0,0,1,76.5,1.047l1.2.984q.867.75.633,1.055a1.133,1.133,0,0,1-.937.352H60.989q-.586,0-.586.563V5.453q0,.586.563.586h1.5q.586,0,.586-.562V4.539a.6.6,0,0,1,.7-.68q.82.023,1.641.117.633-.047.727.375a.766.766,0,0,1-.3.281q-.234.117-.234.727,0,.68.3.68.328,0,.914-.586a.919.919,0,0,1,1.359-.023q.844.773,1.43.609h1.125q.586,0,.586-.562V4.539a.6.6,0,0,1,.7-.68l1.641.094a1.524,1.524,0,0,1,.891.234q.117.117-.258.4-.352.164-.352.8,0,.656.3.656.328,0,.984-.7l.211-.234q.563-.609,1.383.023l.469.352q.75.563.609.891a1.093,1.093,0,0,1-.937.328H74.512q-.586,0-.586.563v5.484a.752.752,0,0,1-.7.82,6.367,6.367,0,0,0-.914.117q-.562.094.141.516l1.8,1.055q.633.3.609.633a.433.433,0,0,1-.492.352,7.7,7.7,0,0,0-1.875.727q-1.922.867-3.867,1.641-.539.281.164.3l4.43-.281q.563-.047.211-.633-.539-.68-.422-.8.211-.141.914.047a17.436,17.436,0,0,1,1.641.609Q78,19.023,77.278,21.227a1.9,1.9,0,0,1-1.664,1.242,1.039,1.039,0,0,1-.773-.7,14.8,14.8,0,0,1-.492-1.828.626.626,0,0,0-.867-.445Q68.044,20.9,62.606,22.375a1.2,1.2,0,0,0-.7.4.724.724,0,0,1-.539.422q-.164-.047-.445-.8-.4-1.125-.727-2.273-.258-.727.469-.773,1.734-.141,3.539-.211a1.466,1.466,0,0,0,.8-.258q.328-.258-.375-.375a2,2,0,0,1-1.266-1.125,2.87,2.87,0,0,0-.633-1.641,3.534,3.534,0,0,0-.469-.4q-.68-.516-.609-.656.117-.164.82-.164.8.023,1.664.117a.9.9,0,0,0,.984-.469q.352-.68-.352-.609L63.8,13.7q-.75.117-.75-.562v-4.5q0-.562-.141-.516a1.532,1.532,0,0,0-.211.82,10.943,10.943,0,0,1-1.523,4.641q-.469.7-.586.656a2.377,2.377,0,0,1,.117-.82,30.444,30.444,0,0,0,.281-5.3q0-.7.7-.633l.8.141q.563.07.563-.422,0-.516-.562-.516h-1.5q-.586,0-.586.563v4.781a15.391,15.391,0,0,1-3.352,9.375q-.75.867-.984.656-.141-.117.047-.891a41.983,41.983,0,0,0,.75-7.734V2.031q0-.7.7-.422.82.3,1.641.68a2.807,2.807,0,0,0,1.688.492h4.383q.586,0,.586-.562ZM71.3,7.164q0-.469-.516-.469H66.169q-.586,0-.586.563v5.2q0,.8.3.188l.281-.586q-.117.211-.117-.75V8.125a.621.621,0,0,1,.7-.7l.727.023q.961.117.867.258-.492.164-.328.8v2.531a.723.723,0,0,1-.7.8l-.4.023q-.562.094.117.516l1.875,1.125q.633.281.258.68a6.413,6.413,0,0,0-2.32.891q-.562.281-.281.516a1.451,1.451,0,0,1,.516,1.2q-.023.469.68-.094,1.383-1.172,2.766-2.531a4.07,4.07,0,0,1,.727-.633,1.546,1.546,0,0,0,.047-.586V8.617q0-.562-.094-.562a2.033,2.033,0,0,0-.234.773,6.422,6.422,0,0,1-2.109,3.516q-.656.539-.8.469a4.8,4.8,0,0,0,.914-2.016,25.679,25.679,0,0,0,.164-2.883q0-.7.7-.609l.867.141Q71.3,7.563,71.3,7.164Zm3.188.773q0-.75.656-.68l1.594.188q.4-.047.422.281a.887.887,0,0,1-.281.188q-.258.117-.258.586v2.977q0,.8.375.094a11.024,11.024,0,0,0,.352-1.547q.141-.773.281-.773.141.094.164.8a4.617,4.617,0,0,0,.586,1.969q.3.328.023,1.078a1.217,1.217,0,0,1-1.5.727h-.937a1.313,1.313,0,0,1-1.43-.539,3.692,3.692,0,0,1-.047-.82Z" transform="translate(122 490)"/><path class="a" d="M19.641,1.023A.967.967,0,0,1,20.953.789l1.43.914q1.219.492.3,1.1a.949.949,0,0,0-.352.82v.75a.752.752,0,0,1-.7.82q-.937.07-1.875.211-.7.07-.7-.187,0-.3-.7-.3a.653.653,0,0,0-.727.75,2.184,2.184,0,0,0,.094.891,1.829,1.829,0,0,0,.68.07h1.992a.951.951,0,0,0,.844-.75q.188-.445.352-.445.258,0,.281.375a.654.654,0,0,0,.773.609q.891.117.7.844a1.993,1.993,0,0,1-1.852,1.5H16.758l2.7.3a.565.565,0,0,1,.516.375q-.023.141-.422.445a.757.757,0,0,0-.422.7q0,.492.094.539a3.619,3.619,0,0,0,.773-.75.869.869,0,0,1,1.313-.211l.469.375q.7.586.539.891-.211.328-.914.328H19.711q-.586,0-.586.563v1.43q0,.563.234.586.234,0,.867-.7l.188-.234A.886.886,0,0,1,21.75,13.3l.469.375q.844.68.656.961-.187.3-.867.3H11.93q-.727,0-.141.422l1.477.844a3.457,3.457,0,0,1,.727.633q-.047.258-.539.328a1.677,1.677,0,0,0-.68.234,10.653,10.653,0,0,1-3.7,1.359q-.7.141.07.211L9.492,19H18.3q.563,0,.188-.7a7.789,7.789,0,0,0-2.086-2.273q-.727-.586-.609-.8.141-.164.844-.07a19.765,19.765,0,0,1,3.516.773q2.086.867,1.172,2.508-.3.563.258.563h1.125q.7,0,.727.234a2.368,2.368,0,0,1-.492.938,4.67,4.67,0,0,0-.3,1.453q-.023.773-.68.773H10.641a6.663,6.663,0,0,1-4.453-3.023q-.445-.727-.937-.047Q4.289,20.664,3.4,22.07q-.258.7-.4.75-.281.164-.562-.328L1.219,19.914q-.352-.7.352-.914l.7-.187q.75-.211.75-.773V12.93q0-.586-.562-.586H1.875q-.7,0-.867-.328-.117-.328.586-.328h.7a1.793,1.793,0,0,0,1.219-.7,1.045,1.045,0,0,1,1.359-.258l1.641.984q.633.492.609.609l-.4.352a.848.848,0,0,0-.352.727v4.242q.234,1.336,1.313,1.172-.047-.094.8-.82a6.406,6.406,0,0,0,1.688-2.32q.281-.727-.281-.727H7.5q-.7,0-.844-.258-.164-.352.492-.352H9.188q.586,0,.586-.562v-1.43q0-.586-.562-.586H8.367q-.7,0-.844-.258-.211-.375.445-.375H9.188q.586,0,.586-.562V9.508a.6.6,0,0,1,.7-.68l2.578.188q.867.211.914.4,0,.141-.375.445a.751.751,0,0,0-.469.7.5.5,0,0,0,.563.563h1.5q.586,0,.586-.562v-1.2q0-.562-.352-.656a.936.936,0,0,1-.68-.539q-.094-.141-.844.281l-.375.117H7.781a1,1,0,0,1-.914-.8V1.727q0-.7.7-.516a4.008,4.008,0,0,1,.7.211,3.557,3.557,0,0,0,2.109.3,1.775,1.775,0,0,0,1.2-.633A.979.979,0,0,1,12.914.906l1.125.68q.609.375.609-.117,0-.539.7-.352l1.641.539a2.557,2.557,0,0,0,.75.07h.68A1.793,1.793,0,0,0,19.641,1.023ZM1.8,1.844q.094-.187.8-.187a5.3,5.3,0,0,1,3.609.984,1.6,1.6,0,0,1-.07,2.344,1.59,1.59,0,0,1-1.875.352A1.661,1.661,0,0,1,3.234,4.117,2,2,0,0,0,2.6,2.711Q1.711,2.008,1.8,1.844Zm9.188,1.172q0-.609-.586-.609-.656,0-.656.563v.516q0,.586.609.586.633,0,.633-.562Zm8.063,0q0-.609-.68-.609-.75,0-.75.563v.75q0,.586.7.586.727,0,.727-.562Zm-4.406.375q0-.7-.187-.539a.821.821,0,0,0-.3.727v.609a.752.752,0,0,1-.7.82L11.813,5.2q-.82.094-.82-.164,0-.3-.609-.3-.633,0-.633.75A3.665,3.665,0,0,0,9.8,6.32a1.158,1.158,0,0,0,.68.117q1.031.023,2.133-.047a2.48,2.48,0,0,0,.633-.609q.188-.445.352-.445t.211.258q-.023.469.516.586.328.023.328-.539ZM1.313,5.969q.141-.187.773-.187A8.288,8.288,0,0,1,4.9,6.2q1.922.984,1.055,2.531a1.7,1.7,0,0,1-2.227.7A1.623,1.623,0,0,1,2.766,8.2a1.987,1.987,0,0,0-.68-1.406Q1.219,6.109,1.313,5.969Zm14.461,6.4q0-.609-.539-.609H13.711q-.586,0-.586.563v1.43q0,.586.563.586h1.5q.586,0,.586-.562ZM32.011,1.422a.578.578,0,0,1,.7-.656l2.578.211a3.634,3.634,0,0,1,1.031.211q.281.352-.352.727a.836.836,0,0,0-.422.8V5.078q0,.727.516.094.445-.656.8-.3.4.4.4-.187V1.727q0-.7.7-.492L39.6,1.82a3.561,3.561,0,0,0,1.1.211h6.375a2.046,2.046,0,0,0,1.266-.609,1.025,1.025,0,0,1,1.336-.047l.773.516a3.143,3.143,0,0,1,1.242.938,1.393,1.393,0,0,1-.328.375.789.789,0,0,0-.328.75V6.344a.752.752,0,0,1-.7.82l-.445.07q-.562.141.07.633a3.055,3.055,0,0,0,.469.352q.609.492.422.773-.211.352-.914.352H46.073q-.586,0-.586.563v.914q0,.586.563.586h1.969q.609.281,1.406-.937.68-.75,1.336-.234a8.177,8.177,0,0,1,.75.586q.75.586.539.891-.211.328-.914.328H48.019q-.539,0,.094.188a2.689,2.689,0,0,1,1.5.492q.094.3-.469.516a3.153,3.153,0,0,0-.8.492l-1.406.914q-.7.516.094.516a1.742,1.742,0,0,0,1.313-.7l.188-.234a.846.846,0,0,1,1.313-.023l.469.375q.7.586.516.891-.187.328-.891.328h-3.75q-.586,0-.586.563v1.313q0,.586.563.586H47.9q.609.3,1.594-1.148a.877.877,0,0,1,1.336-.117l.727.563q.891.727.656,1.008a1.033,1.033,0,0,1-.891.352H46.191q-.586,0-.586.563v2.3a.723.723,0,0,1-.7.8q-1.219.094-2.437.281-.8.094-.8-.539V19.492q0-.586-.562-.586H36.862q-.7,0-.844-.328t.563-.328h4.5q.586,0,.586-.562V16.375q0-.586-.562-.586H38.362q-.7,0-.844-.258-.164-.375.469-.375H39.7q.586,0,.281-.727a3.034,3.034,0,0,0-.633-1.828,1.407,1.407,0,0,0-1.055-.562h-.961q-.7,0-.82-.211-.117-.234-.539.117a1.274,1.274,0,0,0-.422.961v7.875a2.129,2.129,0,0,1-1.172,1.711,4.7,4.7,0,0,1-2.016.4.7.7,0,0,1-.8-.68,3.116,3.116,0,0,0-1.008-2.32q-.891-.516-.891-.7.023-.187.727-.187h1.031q.586,0,.586-.562V15.906q0-.609-.539.023-.234.7-.656.563a2.132,2.132,0,0,1-.4-.867l-.656-2.812q-.211-.891.539-.961l1.148-.187a.632.632,0,0,0,.562-.68V7.469q0-.586-.562-.586h-.891q-.7,0-.82-.258-.164-.375.469-.375h1.219q.586,0,.586-.562ZM41.292,3.25q0-.586-.422-.586-.445,0-.445.563V5.781q0,.586.422.586.445,0,.445-.562Zm3.188,0q0-.586-.469-.586-.492,0-.492.563V5.781q0,.586.469.586.492,0,.492-.562Zm3.188,0q0-.586-.445-.586-.492,0-.492.563V5.781q0,.586.445.586.492,0,.492-.562ZM37.261,7.469q0-.586-.562-.586h-.562q-.586,0-.586.563V10.07q0,.563.7.352l.7-.234q.727-.3.8-.07.047.234-.516.75-.609.539-.023.539h4.148q.586,0,.586-.562V9.93q0-.586-.562-.586H38.55q-.7,0-.867-.328-.117-.328.586-.328h3.094q.586,0,.586-.562V7.563q0-.586-.75-.586-.773,0-.773.258,0,.281-.7.422l-1.641.234Q37.261,8.008,37.261,7.469Zm10.406-.211q0-.281-.539-.281H46.073q-.586,0-.586.563V8.1q0,.586.563.586h.938a1.682,1.682,0,0,0,1.172-.656q.563-.609-.023-.562Q47.667,7.539,47.667,7.258Zm-1.992,5.555q.3-.773-.258-.773H41.409q-.8,0-.047.281,1.992.633,1.383,2.109-.445.727.117.727h1.313q.563,0,.844-.7ZM75.553,1.445q.727-.727,1.383-.234l2.6,1.875q1.172.609.68,1.313a2.533,2.533,0,0,1-.773.07,2.193,2.193,0,0,0-1.57.469Q75.389,6.18,72.9,7.516q-.445.234-.4.445.023.375-.492.586a.651.651,0,0,0-.352.656v11.25a1.833,1.833,0,0,1-.984,1.992,10.5,10.5,0,0,1-3.422.469.752.752,0,0,1-.82-.7,3.9,3.9,0,0,0-1.711-2.836Q64,19,64,18.813q.023-.187.727-.187h2.156q.586,0,.586-.562V8.031a.621.621,0,0,1,.7-.7q.914.023,1.828.117a1.522,1.522,0,0,0,1.148-.633q1.359-1.594,2.789-3.187.516-.586-.07-.586H60.319q-.7,0-.844-.258-.164-.352.492-.352H74.006Q74.545,2.734,75.553,1.445Zm14.386-.117q.141-.8.8-.633l3.492.8q.633.117.422.609a2.712,2.712,0,0,1-.586.352,1.921,1.921,0,0,0-.516.844,22.128,22.128,0,0,1-2.086,4.055q-.352.516.445.656a4.7,4.7,0,0,1,.68.164q.188.281-.164.469-.234.164-.234.727V21.813a.7.7,0,0,1-.7.773q-.937.047-1.9.164-.75.07-.75-.609V11.57q0-.609-.609.094l-.211.234q-.609.609-.727.539-.141-.117.141-.82a35.573,35.573,0,0,0,2.086-7.477Zm11.648-.047q.094-.75.773-.586,1.711.352,3.492.8a.565.565,0,0,1,.516.375q-.023.141-.7.586a.71.71,0,0,0-.281.352q-.609,1.336-1.336,2.742-.328.586.234.586h.563a1.588,1.588,0,0,0,1.148-.7l1.266-1.547q.094-.023.8.563l1.172,1.008q.773.68.563.984a.923.923,0,0,1-.8.352q-.562,0-.68.7a37.872,37.872,0,0,1-1.641,7.711.917.917,0,0,0,.234,1.078,16.524,16.524,0,0,0,2.18,1.477q.75.422.75.656,0,.258-.7.844a5.023,5.023,0,0,0-1.383,3.047q-.07.82-.82.07a18.786,18.786,0,0,1-2.2-2.625q-.375-.586-1.078.07a15.481,15.481,0,0,1-4.992,2.7q-.914.328-.984.117-.117-.187.492-.7a9.962,9.962,0,0,0,1.313-1.078q.586-.586-.117-.516l-.914.117q-.7.094-.7-.3,0-.422-.562-.422h-.562q-.586,0-.586.68a.782.782,0,0,1-.7.844l-1.477.234q-.8.117-.8-.516v-9.75q0-.7.7-.492l.7.234q.75.258.75-.328V6.93q0-.586-.562-.586h-.961q-.7,0-.844-.328t.563-.328h1.219q.586,0,.586-.562v-3.8a.578.578,0,0,1,.7-.656q1.289.07,2.578.234.773-.023.7.516l-.4.281q-.3.164-.3.727V5.1q-.164,1.219.82-.281.586-.7,1.172-.258t.7-.258Zm-.961,5.859q.188-.8-.328-.8H99.08q-.586,0-.586.563v3.258q0,.563.234.422a.389.389,0,0,1,.492-.023q.352.234.516-.3Q100.228,8.711,100.627,7.141Zm3.773.281q.07-.633-.469-.633a1.475,1.475,0,0,0-1.125.7.493.493,0,0,1-.141.211,1.42,1.42,0,0,0-.3,1.125,15.13,15.13,0,0,0,1.078,3.07q.3.633.445-.117Q104.236,9.7,104.4,7.422Zm-2.719,2.531q-.117-.8-.727-.094l-.492.539q-.539.563.188,1.031a4.879,4.879,0,0,1,.844.633q.234.258-.258.516a.7.7,0,0,0-.3.68v5.484q0,.609.563-.141a10.31,10.31,0,0,0,1.359-2.555.834.834,0,0,0-.047-.469A47.108,47.108,0,0,1,101.681,9.953Zm-3.937,2.672q0-.586-.562-.586h-.562q-.586,0-.586.563v5.906q0,.586.563.586h.563q.586,0,.586-.562Zm21.417-11.2q0-.7.68-.656l1.641.141a10.977,10.977,0,0,1,1.828.188q.727.3-.117.82a.826.826,0,0,0-.352.773v2.25q0,.727.469.07.445-.68,1.125.023l.68.773q.563.563.891.563h2.32q.586,0,.586-.562V1.633a.6.6,0,0,1,.7-.68l3.516.281a2.079,2.079,0,0,1,.8.258q.375.375-.352.75a.951.951,0,0,0-.539.867V5.781q0,.586.352.586.375,0,.961-.7l.8-.984q.609-.773,1.266-.211L138,5.828q.609.563.352.844a1.3,1.3,0,0,1-.984.3h-11.3q-.7,0-.773-.117a3.186,3.186,0,0,1-.656.023h-1.219q-.586,0-.586.563v2.672q0,.586.727.328l1.125-.422q.7-.3.773-.094.047.234-.7.867l-1.336,1.078a1.374,1.374,0,0,0-.586,1.031v7.922a2.092,2.092,0,0,1-1.242,1.688,5.665,5.665,0,0,1-2.273.469.671.671,0,0,1-.773-.68,6.944,6.944,0,0,0-.328-1.641,2.653,2.653,0,0,0-.75-.914q-.773-.516-.75-.7.023-.141.727-.141h1.125q.586,0,.586-.562V15.766q0-.562-.7-.023l-.375.328a3.794,3.794,0,0,1-.656.844q-.4-.047-.516-.656l-.75-3.281a.614.614,0,0,1,.539-.844q.914-.117,1.828-.328.633-.117.633-.633v-3.7q0-.586-.562-.586h-1.43q-.7,0-.82-.258-.187-.375.445-.375h1.781q.586,0,.586-.562Zm14.2,6.867q.141-.75.8-.516l3.469,1.266a3.4,3.4,0,0,1,.891.445q.375.586-.562.727a1.238,1.238,0,0,0-.961.773l-4.5,10.078q-.211.563.375.563a1.613,1.613,0,0,0,1.2-.7l.914-1.172a.792.792,0,0,1,1.266-.164l1.664,1.406q.75.633.469.938a1.271,1.271,0,0,1-1.008.352H125.137q-.7,0-.844-.328t.563-.328h5.414q.563,0,.727-.7Q132.145,14.617,133.364,8.289Zm-7.078,0q.164-.07.68.633a21.012,21.012,0,0,1,3.375,7.266,11.17,11.17,0,0,1,.141,1.9A2.166,2.166,0,0,1,128.02,20.1a1.906,1.906,0,0,1-1.734-1.617,7.185,7.185,0,0,1,.234-1.992,13.684,13.684,0,0,0-.164-7.477Q126.122,8.313,126.286,8.289Zm22.589-6.914q0-.75.656-.727l2.531.188q.8.188.188.656a.606.606,0,0,0-.375.609q0,.469.4.469.469.234,1.219-.937a.846.846,0,0,1,1.313-.023q1.148,1.172,1.734.961h6.445q.586.281,1.453-.937a.926.926,0,0,1,1.359-.187l.7.563q.7.563.539.891-.211.328-.914.328h-3.141a2.014,2.014,0,0,0-1.266.633l-1.43,1.289q-.516.539.047.539h3.023a1.471,1.471,0,0,0,1.008-.4q.4-.352,1.148.117a5.489,5.489,0,0,1,1.313.938q.023.141-.258.352-.281.141-.281.7v9.844a.752.752,0,0,1-.7.82l-1.008.164q-.8.117-.8-.281,0-.516-.562-.516h-4.758q-.586,0-.586.3t-.7.422a7.86,7.86,0,0,0-1.031.164q-.8.164-.8-.492v-6.3q.047-1.242-.539.164a3.46,3.46,0,0,0-.234.75q-.164.75-.867.188a5.81,5.81,0,0,1-1.523-1.992q-.3-.68-.3.07v1.1a.738.738,0,0,1-.656.82q-.68.047-.656.211-.023.141-.328.4a.95.95,0,0,0-.469.328q-.094.188.633.188a1.773,1.773,0,0,0,1.289-.562.889.889,0,0,1,1.266-.07l1.641,1.148q.961.492.164.984-.211.07-.516.609-.516.938-1.125,1.875-.445.633.117.82a22.785,22.785,0,0,0,3.188.352h10.1q.7,0,.727.234a2.294,2.294,0,0,1-.539.938,4.445,4.445,0,0,0-.445,1.688.7.7,0,0,1-.773.7h-9.07a10.124,10.124,0,0,1-5.156-1.477,1.174,1.174,0,0,0-1.406.047,14.649,14.649,0,0,1-4.219,1.523q-.8.164-.844-.023-.047-.117.75-.586a12.537,12.537,0,0,0,2.836-2.508,1.147,1.147,0,0,0,.023-1.406,12.825,12.825,0,0,1-.586-1.242q-.211-.562-.773-.023-.7.633-1.406,1.148t-.82.469a2.48,2.48,0,0,1,.375-.82,15.871,15.871,0,0,0,1.688-4.734q.141-.562-.656-.117l-.609.3q-.727.352-.8.164t.563-.82a22.527,22.527,0,0,0,2.273-2.812q.492-.75.258-.727-.633.023-.68-.891-.117-.539-.7.234A13.092,13.092,0,0,1,145.5,9.414q-.82.82-.82.539.914-3.117,1.383-5.578.188-.914.891-.609.68.258,1.359.586.563.211.563-.445,0-.68-.562-.68h-2.555q-.7,0-.867-.328-.117-.328.586-.328h2.813q.586,0,.586-.562Zm9.867,2.508q.117-.656-.375-.656h-5.906q-.586,0-.586.563V6.18q0,.8.258.047l.586-2.016q.211-.75,1.031-.375l.938.422a1.8,1.8,0,0,1,.82.492.661.661,0,0,0,.328.352l.938.328a1.768,1.768,0,0,0,1.148.258q.469,0,.609-.7A9.734,9.734,0,0,1,158.742,3.883Zm-3.4,1.641q0-.492-.211-.469-.164.047-.586.586-.422.516.3,1.008.773.656.07,1.711a1.063,1.063,0,0,1-.656.469q-.328.164-.562-.422l-.187-.8q-.164-.609-.773.047-.609.586.094,1.172a6.836,6.836,0,0,0,1.852.844q.656.117.656-.375Zm-6.609-.375q-.211.047-.586.609-.422.633.047.844a2.032,2.032,0,0,1,.492.469q.188.281.188-.469V5.711Q148.875,5.148,148.734,5.148Zm9.8,1.828q0-.633-.281-.633-.375,0-.375.563v9.258q0,.586.3.586.352,0,.352-.562Zm2.625,0q0-.633-.281-.633-.375,0-.375.563V8.664q0,.586.3.586.352,0,.352-.562Zm2.625,0q0-.633-.281-.633-.375,0-.375.563v9.258q0,.586.3.586.352,0,.352-.562Zm-2.625,3.516q0-.609-.3-.609-.352,0-.352.563v1.781q0,.586.3.586.352,0,.352-.562Zm-12.281,1.125q0-.633-.68-.094-.68.445,0,.586T148.875,11.617Zm12.281,2.438q0-.586-.3-.586-.352,0-.352.563v2.133q0,.586.3.586.352,0,.352-.562Zm-10.359.938q.211-.586-.352-.586h-.656a1.326,1.326,0,0,0-1.031.586.9.9,0,0,0,.07,1.289,3.294,3.294,0,0,0,.422.4q.563.469.938-.281Zm32.175-11.6a9.291,9.291,0,0,1,5.883.094q3.844,1.758,2.813,5.578a4.459,4.459,0,0,1-3.3,2.578,12.454,12.454,0,0,1-1.523.281.546.546,0,0,0-.562.609v2.25q0,.727-.539.727-.562,0-.562-.7V11.57a.814.814,0,0,1,.7-.867,2.321,2.321,0,0,0,1.547-.984,5.681,5.681,0,0,0,.469-2.812,3.633,3.633,0,0,0-1.336-2.766,2.761,2.761,0,0,0-2.93.141q-1.523,1.172.047,2.273a2.571,2.571,0,0,1,.422,1.711,1.956,1.956,0,0,1-.8,1.359,2.128,2.128,0,0,1-3.234-1.031Q178.988,5.289,182.972,3.391ZM183.98,16.7a2.41,2.41,0,0,1,2.859-.422,2.368,2.368,0,0,1,1.2,1.758,2.243,2.243,0,0,1-.539,1.875,2.435,2.435,0,0,1-2.227.844,2.284,2.284,0,0,1-1.969-2.648A2.211,2.211,0,0,1,183.98,16.7Z" transform="translate(91 525)"/><line class="b" x1="51" transform="translate(206.5 503.5)"/></g></svg>