<svg xmlns="http://www.w3.org/2000/svg" width="87.891" height="329.075" viewBox="0 0 87.891 329.075">
  <g id="title-lg-3" transform="translate(-483.251 -1881.925)">
    <path id="路径_55" data-name="路径 55" d="M5.871,2.949q0-1.09,1.055-1.02a46.215,46.215,0,0,1,5.063.457q.773.633-.387,1.16a1.134,1.134,0,0,0-.562,1.125V6.43q0,.844.141.879.176,0,1.16-1.09a1.429,1.429,0,0,0,.316-.352A1.378,1.378,0,0,1,14.7,5.656l.352.281q1.09.809,1.09-.035V3.23q0-1.055,1.055-.633,1.934.809,3.867,1.723a3.787,3.787,0,0,0,1.582.352h2.918q.914.422,2.109-1.406a1.412,1.412,0,0,1,1.969-.457q1.406.844,2.813,1.793,1.652.7.387,1.688a1.58,1.58,0,0,0-.562,1.3V20.281a1.128,1.128,0,0,1-1.055,1.23q-1.723.176-3.48.457-1.055.105-1.055-.7a.746.746,0,0,0-.844-.844H22.5q-.879,0-.879.457t-1.055.633l-1.477.211q-1.266.105-.176.492a4.227,4.227,0,0,1,3.094,2.426,3.3,3.3,0,0,1-2.848,3.621q-.879.07-1.582-1.09l-1.02-2.812a7.177,7.177,0,0,0-.984-1.441q-1.23-1.266-1.09-1.441a1.589,1.589,0,0,1,.984-.07q.668.105.668-.738V16.7q0-.914-.316-.387a2.646,2.646,0,0,1-2.32.984,2.055,2.055,0,0,1-1.441-1.758,16.638,16.638,0,0,0-.457-2.812q-.562-1.16-.562.07v8.086a1.128,1.128,0,0,1-1.055,1.23l-2.918.352q-1.2.176-1.2-.773V17.855q0-.844-1.125.07-1.2.879-2.391,1.617-1.125.6-1.266.457t.492-1.2A29.062,29.062,0,0,0,5.238,9.137q.105-.844-.738-.844H2.883q-1.055,0-1.266-.492t.844-.492H4.992q.879,0,.879-.844ZM26.684,6.57q0-.914-.809-.914H22.5q-.879,0-.879.844V8.68q0,.879.844.879H25.8q.879,0,.879-.844ZM16.137,9.207q0-.914-.809-.914h-3.41a.777.777,0,0,0-.879.879,1.339,1.339,0,0,0,1.055,1.266,12.347,12.347,0,0,1,3.164,1.617q.879.914.879-.07Zm10.547,2.285q0-.949-.773-.949H22.5q-.879,0-.879.844v2.285q0,.879.844.879H25.8q.879,0,.879-.844Zm0,4.922q0-.949-.773-.949H22.5q-.879,0-.879.844v2.25q0,.879.844.879H25.8q.879,0,.879-.844Zm-17.3,7.629q0-1.125.984-1.02,1.863.07,3.832.246a2.168,2.168,0,0,1,.809.211q.914.457-.246,1.055-.352.141-.352.984v2.32q-.387,1.477,1.23,1.3H23.1a2.043,2.043,0,0,0,1.125-.211,3.939,3.939,0,0,0,.738-1.828l.141-.7q.211-1.055.527-1.055.316.035.422,1.09a2.728,2.728,0,0,0,1.547,2.6q.879.246.738,1.441a5.756,5.756,0,0,1-1.09,2.813,2.36,2.36,0,0,1-1.582.773H12.445q-2.461.352-3.059-2.25Zm17.473-.773q.246-.352,1.23,0A20.513,20.513,0,0,1,33.328,25.7q2.5,2.18,1.512,4.781-1.863,3.059-4.43,1.2A2.96,2.96,0,0,1,29.32,29.6,8.808,8.808,0,0,0,27.7,24.676Q26.684,23.516,26.859,23.27ZM5.766,24.922q.281-1.125.527-1.125.352,0,.633,1.055a16.516,16.516,0,0,1,.211,6.4,2.958,2.958,0,0,1-3.41,1.934q-2.391-.457-2.355-2.6a3.757,3.757,0,0,1,1.863-2.637A5,5,0,0,0,5.766,24.922Zm11.32,21.605q.246-1.23,1.125-1.02l5.344,1.23q.633.105.738.527.141.352-.668.738a2.778,2.778,0,0,0-.879.738L21.8,50.254q-.527.844.316.844h4.113a2.481,2.481,0,0,0,1.758-1.055l1.16-1.406a1.268,1.268,0,0,1,1.969-.211l2.109,1.758q1.02.949.668,1.336a1.764,1.764,0,0,1-1.406.492h-11a2.481,2.481,0,0,0-1.758,1.055A40.189,40.189,0,0,1,14.7,57.918a2.009,2.009,0,0,0-.949,1.512v11.18a1.128,1.128,0,0,1-1.055,1.23l-2.461.281Q9,72.262,9,71.207v-2q0-.879-.738-.879-.809,0-.809.844v2.6a1.085,1.085,0,0,1-1.055,1.2l-2.461.281q-1.266.141-1.266-.914V49.48q0-1.055,1.055-.633,1.582.633,3.164,1.371a3.185,3.185,0,0,0,1.371.281,2.712,2.712,0,0,0,1.758-.984,1.629,1.629,0,0,1,2.109-.352l2.918,1.863q.352.527-.668,1.09a1.42,1.42,0,0,0-.633,1.266v2.355q0,1.2.6-.035A36.633,36.633,0,0,0,17.086,46.527ZM9,52.363q0-.914-.738-.914-.809,0-.809.844V66.5q0,.879.738.879.809,0,.809-.844Zm15.926,4.043q1.09-1.125,2.074-.457,1.9,1.2,3.8,2.5.738.422.668.984-.105.773-1.055.738a2.367,2.367,0,0,0-1.512,1.09l-3.8,5.625q-2.461,3.48-2.672,5.273.211,1.125,1.547.844h3.691a2.473,2.473,0,0,0,1.969-1.266l1.336-3.445q.422-1.055.668-1.055.387,0,.387.984v2.32A2.195,2.195,0,0,0,33.5,72.3q1.23.246.984,1.406A9.944,9.944,0,0,1,33.5,76.27a3.322,3.322,0,0,1-3.059,1.793H18.352Q14.1,77.816,14.2,74.371q.246-2.109,2.742-5.625l5.836-8.859q.527-.844-.316-.844H16.559q-1.055,0-1.3-.492-.176-.492.879-.492H22.5A2.8,2.8,0,0,0,24.363,57ZM5.941,90.633q0-1.055,1.02-.984l2.461.211a16.466,16.466,0,0,1,2.742.281q1.09.457-.176,1.23a1.24,1.24,0,0,0-.527,1.16v3.375q0,1.09.7.105.668-1.02,1.688.035l1.02,1.16q.844.844,1.336.844h3.48q.879,0,.879-.844V90.949a.9.9,0,0,1,1.055-1.02l5.273.422a3.119,3.119,0,0,1,1.2.387q.563.563-.527,1.125a1.427,1.427,0,0,0-.809,1.3v4.008q0,.879.527.879.563,0,1.441-1.055l1.2-1.477q.914-1.16,1.9-.316l2.391,2.039q.914.844.527,1.266a1.953,1.953,0,0,1-1.477.457H16.313q-1.055,0-1.16-.176a4.779,4.779,0,0,1-.984.035H12.34q-.879,0-.879.844v4.008q0,.879,1.09.492l1.688-.633q1.055-.457,1.16-.141.07.352-1.055,1.3l-2,1.617a2.061,2.061,0,0,0-.879,1.547v11.883A3.138,3.138,0,0,1,9.6,122.273a8.5,8.5,0,0,1-3.41.7,1.006,1.006,0,0,1-1.16-1.02,10.416,10.416,0,0,0-.492-2.461,3.98,3.98,0,0,0-1.125-1.371q-1.16-.773-1.125-1.055.035-.211,1.09-.211H5.063q.879,0,.879-.844v-3.867q0-.844-1.055-.035l-.562.492a5.691,5.691,0,0,1-.984,1.266q-.6-.07-.773-.984l-1.125-4.922A.921.921,0,0,1,2.25,106.7q1.371-.176,2.742-.492.949-.176.949-.949V99.7q0-.879-.844-.879H2.953q-1.055,0-1.23-.387-.281-.562.668-.562H5.063q.879,0,.879-.844Zm21.3,10.3q.211-1.125,1.2-.773l5.2,1.9a5.094,5.094,0,0,1,1.336.668q.563.879-.844,1.09a1.857,1.857,0,0,0-1.441,1.16l-6.75,15.117q-.316.844.563.844a2.419,2.419,0,0,0,1.793-1.055l1.371-1.758a1.188,1.188,0,0,1,1.9-.246l2.5,2.109q1.125.949.7,1.406a1.907,1.907,0,0,1-1.512.527H14.906q-1.055,0-1.266-.492t.844-.492h8.121q.844,0,1.09-1.055Q25.418,110.426,27.246,100.934Zm-10.617,0q.246-.105,1.02.949,4.148,6.223,5.063,10.9a16.756,16.756,0,0,1,.211,2.848,3.25,3.25,0,0,1-3.691,3.023,2.859,2.859,0,0,1-2.6-2.426,10.777,10.777,0,0,1,.352-2.988q1.406-6.609-.246-11.215Q16.383,100.969,16.629,100.934ZM7.313,134.563q0-1.125.984-1.09l3.8.281q1.2.281.281.984a.91.91,0,0,0-.562.914q0,.7.6.7.7.352,1.828-1.406a1.269,1.269,0,0,1,1.969-.035q1.723,1.758,2.6,1.441h9.668q.879.422,2.18-1.406a1.39,1.39,0,0,1,2.039-.281l1.055.844q1.055.844.809,1.336-.316.492-1.371.492H28.477a3.021,3.021,0,0,0-1.9.949l-2.145,1.934q-.773.809.07.809h4.535a2.207,2.207,0,0,0,1.512-.6q.6-.527,1.723.176a8.233,8.233,0,0,1,1.969,1.406q.035.211-.387.527-.422.211-.422,1.055v14.766a1.128,1.128,0,0,1-1.055,1.23l-1.512.246q-1.2.176-1.2-.422,0-.773-.844-.773H21.691q-.879,0-.879.457t-1.055.633a11.79,11.79,0,0,0-1.547.246q-1.2.246-1.2-.738v-9.457q.07-1.863-.809.246a5.19,5.19,0,0,0-.352,1.125q-.246,1.125-1.3.281a8.714,8.714,0,0,1-2.285-2.988q-.457-1.02-.457.105v1.652a1.107,1.107,0,0,1-.984,1.23q-1.02.07-.984.316-.035.211-.492.6a1.425,1.425,0,0,0-.7.492q-.141.281.949.281a2.66,2.66,0,0,0,1.934-.844,1.334,1.334,0,0,1,1.9-.105l2.461,1.723q1.441.738.246,1.477-.316.105-.773.914-.773,1.406-1.687,2.813-.668.949.176,1.23a34.178,34.178,0,0,0,4.781.527H33.785q1.055,0,1.09.352a3.441,3.441,0,0,1-.809,1.406,6.668,6.668,0,0,0-.668,2.531,1.044,1.044,0,0,1-1.16,1.055H18.633a15.186,15.186,0,0,1-7.734-2.215,1.762,1.762,0,0,0-2.109.07,21.974,21.974,0,0,1-6.328,2.285q-1.2.246-1.266-.035-.07-.176,1.125-.879a18.805,18.805,0,0,0,4.254-3.762,1.721,1.721,0,0,0,.035-2.109A19.238,19.238,0,0,1,5.73,157.7q-.316-.844-1.16-.035-1.055.949-2.109,1.723t-1.23.7a3.72,3.72,0,0,1,.563-1.23,23.807,23.807,0,0,0,2.531-7.1q.211-.844-.984-.176l-.914.457q-1.09.527-1.2.246t.844-1.23a33.79,33.79,0,0,0,3.41-4.219q.738-1.125.387-1.09-.949.035-1.02-1.336-.176-.809-1.055.352a19.638,19.638,0,0,1-1.547,1.863q-1.23,1.23-1.23.809,1.371-4.676,2.074-8.367.281-1.371,1.336-.914,1.02.387,2.039.879.844.316.844-.668,0-1.02-.844-1.02H2.637q-1.055,0-1.3-.492-.176-.492.879-.492H6.434q.879,0,.879-.844Zm14.8,3.762q.176-.984-.562-.984H12.691q-.879,0-.879.844v3.586q0,1.2.387.07l.879-3.023q.316-1.125,1.547-.562l1.406.633a2.7,2.7,0,0,1,1.23.738.992.992,0,0,0,.492.527l1.406.492a2.652,2.652,0,0,0,1.723.387q.7,0,.914-1.055A14.6,14.6,0,0,1,22.113,138.324Zm-5.1,2.461q0-.738-.316-.7-.246.07-.879.879-.633.773.457,1.512,1.16.984.105,2.566a1.6,1.6,0,0,1-.984.7q-.492.246-.844-.633l-.281-1.2q-.246-.914-1.16.07-.914.879.141,1.758a10.254,10.254,0,0,0,2.777,1.266q.984.176.984-.562ZM7.1,140.223q-.316.07-.879.914-.633.949.07,1.266a3.047,3.047,0,0,1,.738.7q.281.422.281-.7v-1.336Q7.313,140.223,7.1,140.223Zm14.7,2.742q0-.949-.422-.949-.562,0-.562.844v13.887q0,.879.457.879.527,0,.527-.844Zm3.938,0q0-.949-.422-.949-.562,0-.562.844V145.5q0,.879.457.879.527,0,.527-.844Zm3.938,0q0-.949-.422-.949-.562,0-.562.844v13.887q0,.879.457.879.527,0,.527-.844Zm-3.937,5.273q0-.914-.457-.914-.527,0-.527.844v2.672q0,.879.457.879.527,0,.527-.844ZM7.313,149.926q0-.949-1.02-.141-1.02.668,0,.879T7.313,149.926Zm18.422,3.656q0-.879-.457-.879-.527,0-.527.844v3.2q0,.879.457.879.527,0,.527-.844ZM10.2,154.988q.316-.879-.527-.879H8.684a1.99,1.99,0,0,0-1.547.879,1.344,1.344,0,0,0,.105,1.934,4.942,4.942,0,0,0,.633.6q.844.7,1.406-.422Z" transform="translate(536 1880)" fill="#534741"/>
    <line id="直线_1" data-name="直线 1" y2="73" transform="translate(556.5 2054.5)" fill="none" stroke="#534741" stroke-width="1"/>
    <path id="路径_54" data-name="路径 54" d="M24.047,2.352a1.32,1.32,0,0,1,1.863-.141q1.23.773,2.461,1.652,2.32,1.09.984,2.039A1.273,1.273,0,0,0,28.9,7.027v7.348a1.128,1.128,0,0,1-1.055,1.23l-3.937.563q-1.055.105-1.055-1.055,0-1.2-.844-1.2H13.148q-.879,0-.879.914t-1.055,1.09l-3.621.492q-1.2.176-1.2-.773V2.809q0-1.055,1.055-.738L11.32,3.336a5.107,5.107,0,0,0,1.652.316H21.8Q22.641,4.039,24.047,2.352Zm-1.2,3.2q0-.914-.809-.914H13.148q-.879,0-.879.844V7.449q0,.879.844.879h8.859q.879,0,.879-.844Zm0,4.605q0-.879-.844-.879H13.148q-.879,0-.879.844v2q0,.879.844.879h8.859q.879,0,.879-.844Zm7.1,5.063a1.216,1.216,0,0,1,1.934-.281l1.688,1.371q1.16,1.02.844,1.477a1.64,1.64,0,0,1-1.406.492H22.324q-.879,0-.879.844V21.9q0,.879.844.879h1.09A2.382,2.382,0,0,0,25.1,21.723q.492-.668,1.125-1.371a1.207,1.207,0,0,1,1.934-.105l1.793,1.547q1.125.984.844,1.477a1.75,1.75,0,0,1-1.441.492H22.324q-.879,0-.879.844v2.953q0,.879.844.879H33.855q1.09,0,1.09.387t-.527.738a5.61,5.61,0,0,0-1.16,3.27q0,1.23-1.055,1.23H20q-5.7-.984-8.578-7.84-.387-.879-.984.211a20.37,20.37,0,0,1-7.523,7.7q-1.3.773-1.477.492-.105-.176.633-1.3A32.254,32.254,0,0,0,6.539,20.281q.141-1.09,1.2-.844,2.566.633,5.238,1.371a.8.8,0,0,1,.738.6,1.443,1.443,0,0,1-1.055.844,1.574,1.574,0,0,0-.457.633,1.4,1.4,0,0,1-.176.457,2,2,0,0,0,.246,1.9A5.629,5.629,0,0,0,14.836,27.7q.844.316.844-.527V19.156q0-.879-.844-.879H3.129q-1.055,0-1.23-.387-.281-.562.668-.562H27.352a2.382,2.382,0,0,0,1.723-1.055Zm-.316,30.344q1.2-1.336,2.215-.527l2.109,1.723q1.02.914.633,1.406a1.865,1.865,0,0,1-1.477.492H24.152a1.78,1.78,0,0,0-1.477,1.055q-1.336,2.215-2.848,4.43-.6.844.281,1.02.879.352.984.563.035.281-.6.773a1.24,1.24,0,0,0-.668,1.2V75.832a1.128,1.128,0,0,1-1.055,1.23l-3.867.492q-1.23.141-1.23-.914V61.8q0-.844-1.125.035a42.294,42.294,0,0,1-9.879,5.344q-1.125.422-1.266.105-.246-.457.949-1.336,7.418-5.168,10.652-11.32A48.432,48.432,0,0,0,15.645,49.5q.352-.844-.492-.844H2.813q-1.055,0-1.3-.492-.176-.492.879-.492H27a2.481,2.481,0,0,0,1.758-1.055ZM21.27,57.445q.141-.211,1.2.035a40.41,40.41,0,0,1,8.086,2.5,8.04,8.04,0,0,1,3.762,3.445,3.666,3.666,0,0,1,.281,2.813q-.949,2.285-2.883,2.074-3.023-.211-4.324-4.184a13.6,13.6,0,0,0-5.238-5.836Q21.164,57.656,21.27,57.445Zm5.273,31.047q1.02-1.16,1.969-.422.7.633,1.512,1.23,1.16.949.844,1.371a1.685,1.685,0,0,1-1.441.527H21.27q-.879,0-.879.844v.7q0,.879.844.879h6.574a2.382,2.382,0,0,0,1.723-1.055l.773-.914a3.92,3.92,0,0,1,1.2.738q1.23.879,2.461,1.863,1.617.809,1.125,2.039a1.886,1.886,0,0,1-1.512.246A2.625,2.625,0,0,0,31.359,97l-2.707,1.688q-1.055.668-1.336.6-.316-.105.141-1.441l.773-2.109q.352-1.125-.492-1.125H21.27q-.879,0-.879.844v6.188a1.128,1.128,0,0,1-1.055,1.23l-3.164.422q-1.266.141-1.266-.914V95.488q0-.879-.844-.879H7.629q-.844,0-.7,1.055a3.8,3.8,0,0,1-.105,2.32,3.077,3.077,0,0,1-3.8,1.969,2.26,2.26,0,0,1-1.758-2.637A3.075,3.075,0,0,1,3.375,95a3.676,3.676,0,0,0,1.9-1.652q.527-1.336.668-1.266t.316.738a1,1,0,0,0,1.02.809h6.75q.879,0,.879-.844v-.7q0-.879-.844-.879H6.574q-1.055,0-1.266-.387-.246-.527.738-.527H24.152Q25,90.777,26.543,88.492Zm-15.4,7.875a1.251,1.251,0,0,1,1.793-.105q1.23.844,1.09,1.266-.281.563-1.336.563h-3.3q-1.055,0-1.3-.492-.176-.492.879-.492h.6A2.217,2.217,0,0,0,11.145,96.367Zm13.359,0a1.251,1.251,0,0,1,1.793-.105q1.2.844,1.055,1.266-.281.563-1.336.563h-3.27q-1.055,0-1.3-.492-.176-.492.879-.492h.6A2.217,2.217,0,0,0,24.5,96.367Zm-13.359,3.656a1.294,1.294,0,0,1,1.793-.105q1.23.809,1.09,1.266-.281.563-1.336.563H8.4q-1.055,0-1.3-.492-.141-.492.914-.492H9.563A2.217,2.217,0,0,0,11.145,100.023Zm13.922,0a1.29,1.29,0,0,1,1.793-.105q1.512.668,1.055,1.336-.246.492-1.3.492H22.746q-1.055,0-1.3-.492-.176-.492.879-.492h1.16A2.217,2.217,0,0,0,25.066,100.023Zm4.078,2.039a1.25,1.25,0,0,1,1.969-.281l1.758,1.406q1.125.949.809,1.441a1.639,1.639,0,0,1-1.406.527H21.445a3.068,3.068,0,0,0-1.9.914l-1.406,1.2q-.773.738.07.738H25.1a2.979,2.979,0,0,0,1.9-.984,1.662,1.662,0,0,1,2.145-.387l3.3,2.109q.422.457-.246.914a1.743,1.743,0,0,0-.422,1.23v6.855a3.506,3.506,0,0,1-1.758,2.6,10.841,10.841,0,0,1-3.621.527,1.006,1.006,0,0,1-1.16-1.02,5.6,5.6,0,0,0-.773-2.637q-.7-.879-.7,0v1.336a1.085,1.085,0,0,1-1.055,1.2q-1.23.105-2.461.316-1.266.141-1.266-.914V109.8q0-.879-.984-.879-1.02,0-1.02.844v9.07a1.085,1.085,0,0,1-1.055,1.2q-1.23.105-2.461.316-1.23.105-1.23-.949v-9.6q0-.879-.844-.879h-.668q-.879,0-.879.844v9.387a1.128,1.128,0,0,1-1.055,1.23l-3.234.492q-1.055.105-1.055-.949V107.23q0-1.055,1.055-.7,1.934.633,3.867,1.371a3.835,3.835,0,0,0,1.125.105h1.9q.844,0,1.09-1.055l.211-.914q.176-.879-.668-.879H3.059q-1.055,0-1.266-.492t.844-.492H26.543a2.382,2.382,0,0,0,1.723-1.055Zm-2.988,7.77q0-.914-.809-.914h-.7q-.879,0-.879.844v4.816q0,.879.844.879h.668q.879,0,.879-.844Zm4.219,21.2q.773-.984,1.828-.105.879.668,1.758,1.441.949.809.633,1.23a1.828,1.828,0,0,1-1.441.457h-8.3q-.879,0-.879.844v1.723q0,.879.844.879h.844q.844.316,2.25-1.2a1.63,1.63,0,0,1,2.109-.07l2.461,1.617a4.439,4.439,0,0,1,1.02,1.02q-.035.176-.6.563a1.045,1.045,0,0,0-.668,1.055V145.2q0,1.055-.492,1.16-.492.141.6,1.09L34.1,148.93q1.055.914.668,1.371a1.865,1.865,0,0,1-1.477.492h-3.2a1.856,1.856,0,0,0-1.512,1.055q-.914,1.512-1.969,3.023-.562.844.492,1.09a10.4,10.4,0,0,1,3.867,1.9q2.074,2.039.809,4.219-1.512,2.215-3.3,1.512a8.934,8.934,0,0,1-2.812-2.145q-1.055-.809-2.109-1.477a1.861,1.861,0,0,0-2.109.211,20.739,20.739,0,0,1-5.625,2.391,54.583,54.583,0,0,1-12.234,1.441q-1.055,0-1.09-.281,0-.246,1.16-.422,8.3-1.3,13.113-5.1.914-.879.07-1.2-1.617-.562-3.27-.984-.844-.211-1.617.914l-.492.7q-.844,1.3-1.934.984l-3.621-1.055q-1.02-.316-.316-1.371l3.094-4.5q.668-.914-.176-.914H2.848q-1.055,0-1.23-.387-.281-.562.668-.562H9.141a2.1,2.1,0,0,0,1.617-1.055l1.512-2.215q.527-.844-.316-.844H10.23q-.879,0-.879.563t-1.055.738q-1.758.211-3.516.527-1.055.105-1.055-.949V136.73q0-1.055,1.055-.738l2.461.809a6.719,6.719,0,0,0,3.129.7q1.125,0,1.125-.844v-1.723q0-.879-.844-.879H3.27q-1.055,0-1.266-.387-.246-.527.738-.527h25Q28.758,133.566,30.375,131.035Zm-11.6,3.9q0-.879-1.02-.879-1.09,0-1.09.844v1.723q0,.879,1.02.879,1.09,0,1.09-.844ZM11.5,139.3q0-.879-1.055-.879-1.09,0-1.09.844V143.9q0,.879,1.055.879,1.09,0,1.09-.844Zm7.277,0q0-.879-1.02-.879-1.09,0-1.09.844V143.9q0,.879,1.02.879,1.09,0,1.09-.844Zm7.734,0q0-.879-.844-.879h-.809q-.879,0-.879.844V143.9q0,.879.844.879h.809q.879,0,.879-.844Zm0,7.172q-.035-.738-.844-.738h-7.98q-1.2,0-.07.352a2.16,2.16,0,0,1,1.863,1.02q-.035.141-.773.563a2.765,2.765,0,0,0-1.477,1.23q-.668.949.105.949h9.809a2.583,2.583,0,0,0,1.793-1.055l1.266-1.477q.668-.773-.527-.633-1.3.141-2.6.387Q26.508,147.137,26.508,146.469ZM21.9,151.742q.563-.949-.211-.949H16.875a2.019,2.019,0,0,0-1.582,1.055q-.633.879-1.16,1.758-.668.984.387,1.09l4.219.281a1.8,1.8,0,0,0,1.617-.914Q21.2,152.9,21.9,151.742ZM9.387,174.949a1.3,1.3,0,0,1,2-.246l1.477,1.2q.844.633.844-.492t1.055-.773q1.23.387,2.461.879a4.477,4.477,0,0,0,2.215.492h7.242a2.744,2.744,0,0,0,1.828-.984,1.513,1.513,0,0,1,2.039-.176l2.531,1.617q1.547.738.457,1.477a1.231,1.231,0,0,0-.457,1.09V192a1.128,1.128,0,0,1-1.055,1.23l-3.164.422q-1.23.141-1.23-.809,0-1.02-.914-1.02-.949,0-.949.844v3.8q0,.879,1.055.879a2.418,2.418,0,0,0,1.9-1.055l.844-1.055q1.055-1.23,1.934-.457,1.055.809,2.109,1.723.984.844.668,1.3a1.64,1.64,0,0,1-1.406.492H26.648q-.879,0-.879.844v5.027q0,.879.844.879H27.6q1.02.422,2.6-2.109,1.09-1.3,2.18-.422l1.828,1.582q1.125.984.773,1.477a1.75,1.75,0,0,1-1.441.492H10.723q-1.055,0-1.3-.492-.176-.527.879-.527h9.422q.879,0,.879-.844v-5.027q0-.879-.844-.879H14.8q-1.055,0-1.23-.387-.281-.562.668-.562h5.484q.879,0,.879-.844v-3.8q0-.879-.809-.879-.879,0-.879.949a1.137,1.137,0,0,1-1.055,1.2l-2.953.492q-1.2.176-1.2-.773v-16q0-.914-.281-.457-.281.422-1.3.422H10.617q-.879,0-.879.844v6.891q0,1.125.809.07.773-1.16,1.9-.035,1.125,1.2.914,1.723-.211.457-1.266.457H10.617q-.879,0-.879.844v6.223q0,.844,1.055.7l2.426-.492q1.055-.176,1.055.07,0,.387-1.16,1.371-3.516,2.742-7.031,5.59a4.683,4.683,0,0,0-1.2,1.125q-.352.984-1.125,1.02a4.809,4.809,0,0,1-.914-2.18l-1.055-3.551a.937.937,0,0,1,.738-1.336l1.055-.211a1,1,0,0,0,.844-1.055v-7.242q0-.879-1.02-.879-1.055,0-1.266-.387-.246-.562.7-.562h.7q.879,0,.879-.844v-7.277q0-.879-1.09-.879-1.125,0-1.371-.492-.176-.492.879-.492H7.1a2.382,2.382,0,0,0,1.723-1.055ZM20.6,177.867q0-.949-.773-.949-.914,0-.914.844v4.957q0,.879.809.879.879,0,.879-.844Zm7.031,0q0-.949-.879-.949-.984,0-.984.844v4.957q0,.879.914.879.949,0,.949-.844ZM20.6,185.426q0-.914-.809-.914-.879,0-.879.844V190q0,.879.809.879.879,0,.879-.844Zm7.031,0q0-.914-.879-.914-.984,0-.984.844V190q0,.879.914.879.949,0,.949-.844Zm-12.867,32q0-1.125,1.02-1.055l5.238.422a1.213,1.213,0,0,1,1.16.563q.035.281-.7.809a1.354,1.354,0,0,0-.809,1.266v4.148q0,.879.844.879H25.77q.949.457,2.32-1.758a1.425,1.425,0,0,1,1.969-.387l3.059,1.9q1.582.6.668,1.652a2.526,2.526,0,0,0-.914,1.652v20.5a1.085,1.085,0,0,1-1.055,1.2l-3.9.422q-1.055.105-1.055-.949v-.984q0-.879-.844-.879H9.879q-.879,0-.879,1.125A1.122,1.122,0,0,1,7.945,249.2l-3.586.422q-1.125.176-1.125-.879V222.871q0-1.055,1.055-.633l3.867,1.688a3.042,3.042,0,0,0,2,.527h3.727q.879,0,.879-.844Zm0,8.895q0-.914-.809-.914H9.879q-.879,0-.879.844v7.172q0,.879.844.879h4.043q.879,0,.879-.844Zm12.094,0q0-.914-.809-.914h-4.5q-.879,0-.879.844v7.172q0,.879.844.879H25.98q.879,0,.879-.844ZM14.766,236.16q0-.914-.809-.914H9.879q-.879,0-.879.844v8.859q0,.879.844.879h4.043q.879,0,.879-.844Zm12.094,0q0-.914-.809-.914h-4.5q-.879,0-.879.844v8.859q0,.879.844.879H25.98q.879,0,.879-.844ZM7,260.422q.211-1.125,1.2-.949l3.832.7a4.243,4.243,0,0,1,1.582.422q.668.7-.211,1.125a3.546,3.546,0,0,0-1.371.949q-1.406,1.547-2.953,2.953-.914.879-.07.879h1.441a2.663,2.663,0,0,0,1.793-.949,1.439,1.439,0,0,1,2-.246q1.23.773,2.461,1.652,1.582.809.211,1.652-.211.105-.211.914v3.48q0,.809.316-.141A88.736,88.736,0,0,0,18.7,260.6q.141-1.3,1.266-1.055,2.672.668,5.344,1.2a1.413,1.413,0,0,1,1.125.7q0,.281-.668.773a1.924,1.924,0,0,0-1.125,1.3l-.668,1.688q-.457,1.125.387,1.125h2.672q.844.387,2.25-1.336a1.759,1.759,0,0,1,2.355-.316l3.27,2.285q.633.879-.387,1.336a1.109,1.109,0,0,0-.773,1.09,126.815,126.815,0,0,1-.738,14.414,18.986,18.986,0,0,1-1.582,7.031,3.293,3.293,0,0,1-1.934,1.547,16.381,16.381,0,0,1-3.516.633q-1.09,0-1.09-1.266l-.211-1.406a3.473,3.473,0,0,0-2.742-2.672q-1.125-.281-1.125-.668,0-.422,1.055-.422h4.078q.844,0,1.055-1.055a114.673,114.673,0,0,0,1.125-17.367q0-.879-.844-.879h-3.34a1.635,1.635,0,0,0-1.406,1.055,25.854,25.854,0,0,1-1.371,2.461,1.066,1.066,0,0,0,.352,1.688A7.39,7.39,0,0,1,25.277,278a3.179,3.179,0,0,1-1.3,3.27,2.573,2.573,0,0,1-2.812.176q-1.23-1.512-.879-5.52a13.5,13.5,0,0,0-.352-1.9q-.281-.879-1.09.211l-1.336,1.828a2.716,2.716,0,0,0-.809,1.758v11.145a1.128,1.128,0,0,1-1.055,1.23q-1.582.141-3.2.422-1.055.105-1.055-.949v-2.531q0-.879-.844-.879H8.719q-.879,0-.879.844v2.461a1.174,1.174,0,0,1-1.055,1.266q-1.441.176-2.918.457-1.2.176-1.2-.773V265.871q0-1.055,1.055-.738l1.512.492q.844.316,1.02-.809Q6.574,262.637,7,260.422Zm4.395,7.875q0-.879-.844-.879H8.719q-.879,0-.879.844v6.363q0,.879.844.879h1.828q.879,0,.879-.844Zm0,9q0-.879-.844-.879H8.719q-.879,0-.879.844V284.4q0,.879.844.879h1.828q.879,0,.879-.844Z" transform="translate(482 1897)" fill="#534741"/>
    <g id="椭圆_1" data-name="椭圆 1" transform="translate(508 2201)" fill="none" stroke="#534741" stroke-width="1">
      <circle cx="5" cy="5" r="5" stroke="none"/>
      <circle cx="5" cy="5" r="4.5" fill="none"/>
    </g>
  </g>
</svg>
